{"glyphs":{"0":{"ha":943,"x_min":36,"x_max":907,"o":"m 472 -11 q 247 52 346 -11 q 92 227 149 115 q 36 483 36 339 q 92 738 36 626 q 247 913 149 849 q 472 976 346 976 q 646 940 567 976 q 783 837 725 903 q 874 681 842 771 q 907 483 907 590 q 851 228 907 340 q 697 53 794 117 q 472 -11 599 -11 m 472 226 q 581 294 542 226 q 621 483 621 363 q 581 670 621 601 q 472 739 542 739 q 362 671 401 739 q 322 483 322 603 q 363 296 322 365 q 472 226 404 226 z "},"1":{"ha":617,"x_min":67,"x_max":599,"o":"m 67 0 l 67 203 l 183 203 l 183 683 l 67 683 l 67 865 q 197 888 126 865 q 336 956 268 910 l 482 956 l 482 203 l 599 203 l 599 0 l 67 0 z "},"2":{"ha":721,"x_min":40,"x_max":668,"o":"m 57 0 l 57 196 q 300 453 213 343 q 388 638 388 564 q 360 710 388 686 q 288 735 332 735 q 108 678 194 735 l 40 894 q 181 956 104 935 q 333 976 258 976 q 521 936 447 976 q 631 826 594 896 q 668 668 668 757 q 583 419 668 533 q 328 203 497 306 l 663 203 l 663 0 l 57 0 z "},"3":{"ha":715,"x_min":31,"x_max":681,"o":"m 322 -15 q 177 -1 250 -15 q 43 40 104 14 l 89 253 q 293 207 201 207 q 407 293 407 207 q 349 373 407 349 q 154 397 290 397 l 154 588 q 401 686 401 588 q 373 734 401 717 q 294 751 344 751 q 85 703 178 751 l 31 899 q 338 976 167 976 q 558 913 478 976 q 639 740 639 850 q 605 612 639 671 q 508 513 571 553 q 640 417 599 481 q 681 288 681 354 q 636 126 681 194 q 511 22 592 58 q 322 -15 431 -15 z "},"4":{"ha":869,"x_min":39,"x_max":853,"o":"m 424 0 l 424 225 l 39 225 l 39 431 l 408 956 l 719 956 l 719 428 l 853 428 l 853 225 l 719 225 l 719 0 l 424 0 m 243 428 l 424 428 l 424 719 l 243 428 z "},"5":{"ha":760,"x_min":58,"x_max":722,"o":"m 322 -18 q 193 -5 258 -18 q 58 39 128 8 l 103 251 q 203 217 149 229 q 304 206 257 206 q 414 234 379 206 q 449 313 449 263 q 421 382 449 357 q 349 407 393 407 q 218 350 275 407 l 68 414 l 114 956 l 660 956 l 639 747 l 322 747 l 306 575 q 378 613 339 601 q 454 624 418 624 q 608 583 549 624 q 694 478 667 543 q 722 338 722 413 q 672 138 722 217 q 533 20 622 58 q 322 -18 443 -18 z "},"6":{"ha":824,"x_min":36,"x_max":811,"o":"m 36 440 q 97 720 36 600 q 267 908 158 840 q 518 976 375 976 q 769 908 669 976 l 713 708 q 626 742 669 731 q 543 754 583 754 q 384 685 443 754 q 314 490 325 617 q 400 579 344 546 q 519 613 456 613 q 674 577 608 613 q 775 476 739 542 q 811 324 811 411 q 765 149 811 225 q 635 32 718 74 q 440 -10 551 -10 q 143 109 250 -10 q 36 440 36 228 m 314 374 q 442 190 329 190 q 527 222 494 190 q 560 306 560 254 q 528 381 560 353 q 442 410 496 410 q 314 374 369 410 z "},"7":{"ha":713,"x_min":36,"x_max":686,"o":"m 324 -24 l 71 83 l 381 753 l 36 753 l 36 956 l 686 956 l 686 786 l 324 -24 z "},"8":{"ha":833,"x_min":31,"x_max":803,"o":"m 31 243 q 218 457 31 389 q 124 550 163 493 q 85 697 85 607 q 130 846 85 783 q 253 942 175 908 q 431 976 331 976 q 590 948 521 976 q 699 869 660 919 q 739 753 739 819 q 706 638 739 685 q 599 560 672 592 q 699 499 653 535 q 774 413 746 464 q 803 286 803 361 q 750 123 803 192 q 610 18 697 54 q 418 -18 524 -18 q 215 14 301 -18 q 79 104 128 46 q 31 243 31 163 m 311 742 q 359 666 311 694 q 475 611 407 638 q 521 717 521 653 q 415 821 521 821 q 339 799 367 821 q 311 742 311 776 m 294 286 q 328 198 294 232 q 419 164 361 164 q 511 191 478 164 q 544 264 544 218 q 498 332 544 304 q 340 397 451 360 q 294 286 294 347 z "},"9":{"ha":824,"x_min":13,"x_max":788,"o":"m 13 643 q 58 815 13 740 q 186 933 103 890 q 383 976 269 976 q 608 919 518 976 q 742 762 697 863 q 788 526 788 661 q 727 248 788 369 q 558 58 667 126 q 306 -10 450 -10 q 168 6 232 -10 q 54 58 104 22 l 111 258 q 194 224 151 236 q 281 213 238 213 q 441 283 382 213 q 510 476 500 353 q 416 383 475 413 q 304 354 357 354 q 149 390 215 354 q 48 492 83 426 q 13 643 13 557 m 264 661 q 297 585 264 614 q 382 557 329 557 q 449 566 415 557 q 510 593 482 575 q 382 776 494 776 q 296 744 328 776 q 264 661 264 713 z "},"A":{"ha":994,"x_min":6,"x_max":996,"o":"m 6 0 l 269 956 l 719 956 l 996 0 l 656 0 l 619 183 l 372 183 l 332 0 l 6 0 m 401 354 l 586 354 l 496 772 l 401 354 z "},"Á":{"ha":994,"x_min":6,"x_max":996,"o":"m 6 0 l 269 956 l 719 956 l 996 0 l 656 0 l 619 183 l 372 183 l 332 0 l 6 0 m 401 354 l 586 354 l 496 772 l 401 354 m 410 1018 l 325 1167 l 732 1451 l 872 1203 l 410 1018 z "},"Ă":{"ha":994,"x_min":6,"x_max":996,"o":"m 6 0 l 269 956 l 719 956 l 996 0 l 656 0 l 619 183 l 372 183 l 332 0 l 6 0 m 401 354 l 586 354 l 496 772 l 401 354 m 494 1018 q 302 1105 378 1018 q 221 1376 226 1192 l 417 1376 q 438 1233 417 1275 q 494 1192 460 1192 q 549 1232 529 1192 q 568 1376 568 1272 l 767 1376 q 686 1103 761 1188 q 494 1018 611 1018 z "},"Ắ":{"ha":994,"x_min":6,"x_max":996,"o":"m 6 0 l 269 956 l 719 956 l 996 0 l 656 0 l 619 183 l 372 183 l 332 0 l 6 0 m 401 354 l 586 354 l 496 772 l 401 354 m 483 1307 l 408 1406 l 722 1685 l 864 1511 l 483 1307 m 496 1018 q 303 1091 379 1018 q 222 1307 228 1164 l 414 1307 q 439 1214 417 1243 q 496 1185 461 1185 q 552 1213 531 1185 q 576 1307 574 1242 l 768 1307 q 688 1089 763 1160 q 496 1018 613 1018 z "},"Ặ":{"ha":994,"x_min":6,"x_max":996,"o":"m 6 0 l 269 956 l 719 956 l 996 0 l 656 0 l 619 183 l 372 183 l 332 0 l 6 0 m 401 354 l 586 354 l 496 772 l 401 354 m 501 -358 q 392 -317 438 -358 q 346 -217 346 -276 q 368 -144 346 -176 q 426 -94 390 -112 q 501 -76 463 -76 q 580 -96 544 -76 q 637 -147 615 -115 q 658 -217 658 -179 q 635 -290 658 -258 q 577 -340 613 -322 q 501 -358 542 -358 m 494 1018 q 302 1105 378 1018 q 221 1376 226 1192 l 417 1376 q 438 1233 417 1275 q 494 1192 460 1192 q 549 1232 529 1192 q 568 1376 568 1272 l 767 1376 q 686 1103 761 1188 q 494 1018 611 1018 z "},"Ằ":{"ha":994,"x_min":6,"x_max":996,"o":"m 6 0 l 269 956 l 719 956 l 996 0 l 656 0 l 619 183 l 372 183 l 332 0 l 6 0 m 401 354 l 586 354 l 496 772 l 401 354 m 507 1307 l 126 1511 l 268 1685 l 582 1406 l 507 1307 m 494 1018 q 303 1089 378 1018 q 222 1307 228 1160 l 414 1307 q 438 1213 417 1242 q 494 1185 460 1185 q 552 1214 529 1185 q 576 1307 575 1243 l 768 1307 q 687 1091 763 1164 q 494 1018 611 1018 z "},"Ẳ":{"ha":994,"x_min":6,"x_max":996,"o":"m 6 0 l 269 956 l 719 956 l 996 0 l 656 0 l 619 183 l 372 183 l 332 0 l 6 0 m 401 354 l 586 354 l 496 772 l 401 354 m 406 1360 q 420 1419 406 1397 q 453 1457 435 1442 q 485 1488 471 1472 q 500 1525 500 1503 q 487 1550 500 1540 q 443 1560 474 1560 q 397 1554 421 1560 q 346 1539 374 1549 l 335 1654 q 415 1674 371 1667 q 506 1682 460 1682 q 649 1647 607 1682 q 690 1557 690 1611 q 674 1486 690 1513 q 635 1442 657 1460 q 596 1406 613 1424 q 579 1360 579 1388 l 406 1360 m 494 1018 q 303 1089 378 1018 q 222 1307 228 1160 l 414 1307 q 438 1213 417 1242 q 494 1185 460 1185 q 552 1214 529 1185 q 576 1307 575 1243 l 768 1307 q 687 1091 763 1164 q 494 1018 611 1018 z "},"Ẵ":{"ha":994,"x_min":6,"x_max":996,"o":"m 6 0 l 269 956 l 719 956 l 996 0 l 656 0 l 619 183 l 372 183 l 332 0 l 6 0 m 401 354 l 586 354 l 496 772 l 401 354 m 336 1369 l 208 1426 q 295 1565 243 1519 q 411 1611 347 1611 q 475 1598 447 1611 q 528 1572 503 1585 q 583 1558 554 1558 q 619 1572 603 1558 q 653 1613 635 1586 l 781 1557 q 694 1417 746 1464 q 578 1371 642 1371 q 515 1384 543 1371 q 460 1410 486 1397 q 406 1424 435 1424 q 370 1410 386 1424 q 336 1369 354 1397 m 494 1018 q 303 1089 378 1018 q 222 1307 228 1160 l 414 1307 q 438 1213 417 1242 q 494 1185 460 1185 q 552 1214 529 1185 q 576 1307 575 1243 l 768 1307 q 687 1091 763 1164 q 494 1018 611 1018 z "},"Â":{"ha":994,"x_min":6,"x_max":996,"o":"m 6 0 l 269 956 l 719 956 l 996 0 l 656 0 l 619 183 l 372 183 l 332 0 l 6 0 m 401 354 l 586 354 l 496 772 l 401 354 m 194 1032 l 365 1378 l 622 1378 l 793 1032 l 563 1032 l 510 1179 l 493 1232 l 479 1179 l 425 1032 l 194 1032 z "},"Ấ":{"ha":994,"x_min":6,"x_max":1083,"o":"m 6 0 l 269 956 l 719 956 l 996 0 l 656 0 l 619 183 l 372 183 l 332 0 l 6 0 m 401 354 l 586 354 l 496 772 l 401 354 m 758 1222 l 664 1301 l 906 1643 l 1083 1506 l 758 1222 m 194 1032 l 365 1307 l 622 1307 l 793 1032 l 567 1032 l 493 1172 l 421 1032 l 194 1032 z "},"Ậ":{"ha":994,"x_min":6,"x_max":996,"o":"m 6 0 l 269 956 l 719 956 l 996 0 l 656 0 l 619 183 l 372 183 l 332 0 l 6 0 m 401 354 l 586 354 l 496 772 l 401 354 m 501 -358 q 392 -317 438 -358 q 346 -217 346 -276 q 368 -144 346 -176 q 426 -94 390 -112 q 501 -76 463 -76 q 580 -96 544 -76 q 637 -147 615 -115 q 658 -217 658 -179 q 635 -290 658 -258 q 577 -340 613 -322 q 501 -358 542 -358 m 194 1032 l 365 1378 l 622 1378 l 793 1032 l 563 1032 l 510 1179 l 493 1232 l 479 1179 l 425 1032 l 194 1032 z "},"Ầ":{"ha":994,"x_min":6,"x_max":996,"o":"m 6 0 l 269 956 l 719 956 l 996 0 l 656 0 l 619 183 l 372 183 l 332 0 l 6 0 m 401 354 l 586 354 l 496 772 l 401 354 m 781 1222 l 456 1506 l 633 1643 l 875 1301 l 781 1222 m 196 1032 l 367 1307 l 624 1307 l 794 1032 l 568 1032 l 496 1172 l 422 1032 l 196 1032 z "},"Ẩ":{"ha":994,"x_min":6,"x_max":996,"o":"m 6 0 l 269 956 l 719 956 l 996 0 l 656 0 l 619 183 l 372 183 l 332 0 l 6 0 m 401 354 l 586 354 l 496 772 l 401 354 m 711 1222 q 726 1282 711 1260 q 758 1319 740 1304 q 791 1350 776 1335 q 806 1388 806 1365 q 792 1413 806 1403 q 749 1422 779 1422 q 703 1417 726 1422 q 651 1401 679 1411 l 640 1517 q 721 1537 676 1529 q 811 1544 765 1544 q 954 1509 913 1544 q 996 1419 996 1474 q 979 1349 996 1375 q 940 1304 963 1322 q 901 1268 918 1286 q 885 1222 885 1250 l 711 1222 m 196 1032 l 367 1307 l 624 1307 l 794 1032 l 568 1032 l 496 1172 l 422 1032 l 196 1032 z "},"Ẫ":{"ha":994,"x_min":6,"x_max":996,"o":"m 6 0 l 269 956 l 719 956 l 996 0 l 656 0 l 619 183 l 372 183 l 332 0 l 6 0 m 401 354 l 586 354 l 496 772 l 401 354 m 336 1369 l 208 1426 q 295 1565 243 1519 q 411 1611 347 1611 q 475 1598 447 1611 q 528 1572 503 1585 q 583 1558 554 1558 q 619 1572 603 1558 q 653 1613 635 1586 l 781 1557 q 694 1417 746 1464 q 578 1371 642 1371 q 515 1384 543 1371 q 460 1410 486 1397 q 406 1424 435 1424 q 370 1410 386 1424 q 336 1369 354 1397 m 196 1032 l 367 1307 l 624 1307 l 794 1032 l 568 1032 l 496 1172 l 422 1032 l 196 1032 z "},"Ȁ":{"ha":994,"x_min":6,"x_max":996,"o":"m 6 0 l 269 956 l 719 956 l 996 0 l 656 0 l 619 183 l 372 183 l 332 0 l 6 0 m 401 354 l 586 354 l 496 772 l 401 354 m 314 1018 l 100 1365 l 318 1454 l 463 1071 l 314 1018 m 574 1019 l 415 1396 l 646 1451 l 731 1051 l 574 1019 z "},"Ä":{"ha":994,"x_min":6,"x_max":996,"o":"m 6 0 l 269 956 l 719 956 l 996 0 l 656 0 l 619 183 l 372 183 l 332 0 l 6 0 m 401 354 l 586 354 l 496 772 l 401 354 m 299 1018 q 189 1058 235 1018 q 143 1157 143 1099 q 165 1229 143 1197 q 223 1280 188 1261 q 299 1299 258 1299 q 377 1279 342 1299 q 434 1227 413 1260 q 456 1157 456 1194 q 433 1084 456 1115 q 374 1035 410 1053 q 299 1018 339 1018 m 692 1018 q 578 1060 622 1018 q 535 1157 535 1103 q 558 1231 535 1199 q 617 1281 581 1263 q 692 1299 653 1299 q 774 1277 739 1299 q 827 1224 808 1256 q 846 1157 846 1192 q 824 1085 846 1117 q 767 1036 803 1054 q 692 1018 732 1018 z "},"Ạ":{"ha":994,"x_min":6,"x_max":996,"o":"m 6 0 l 269 956 l 719 956 l 996 0 l 656 0 l 619 183 l 372 183 l 332 0 l 6 0 m 401 354 l 586 354 l 496 772 l 401 354 m 501 -358 q 392 -317 438 -358 q 346 -217 346 -276 q 368 -144 346 -176 q 426 -94 390 -112 q 501 -76 463 -76 q 580 -96 544 -76 q 637 -147 615 -115 q 658 -217 658 -179 q 635 -290 658 -258 q 577 -340 613 -322 q 501 -358 542 -358 z "},"À":{"ha":994,"x_min":6,"x_max":996,"o":"m 6 0 l 269 956 l 719 956 l 996 0 l 656 0 l 619 183 l 372 183 l 332 0 l 6 0 m 401 354 l 586 354 l 496 772 l 401 354 m 579 1018 l 117 1203 l 257 1451 l 664 1167 l 579 1018 z "},"Ả":{"ha":994,"x_min":6,"x_max":996,"o":"m 6 0 l 269 956 l 719 956 l 996 0 l 656 0 l 619 183 l 372 183 l 332 0 l 6 0 m 401 354 l 586 354 l 496 772 l 401 354 m 410 1046 q 407 1067 408 1057 q 406 1094 406 1078 q 420 1147 406 1128 q 453 1181 435 1167 q 485 1211 471 1196 q 500 1249 500 1226 q 487 1274 500 1264 q 443 1283 474 1283 q 397 1278 421 1283 q 346 1263 374 1272 l 335 1378 q 415 1398 371 1390 q 506 1406 460 1406 q 649 1370 607 1406 q 690 1281 690 1335 q 674 1209 690 1236 q 635 1163 657 1182 q 596 1124 613 1144 q 579 1069 579 1103 l 579 1046 l 410 1046 z "},"Ȃ":{"ha":994,"x_min":6,"x_max":996,"o":"m 6 0 l 269 956 l 719 956 l 996 0 l 656 0 l 619 183 l 372 183 l 332 0 l 6 0 m 401 354 l 586 354 l 496 772 l 401 354 m 221 1032 q 301 1306 226 1221 q 493 1390 376 1390 q 685 1304 610 1390 q 767 1032 761 1218 l 571 1032 q 549 1176 571 1135 q 493 1217 528 1217 q 439 1176 458 1217 q 419 1032 419 1136 l 221 1032 z "},"Ā":{"ha":994,"x_min":6,"x_max":996,"o":"m 6 0 l 269 956 l 719 956 l 996 0 l 656 0 l 619 183 l 372 183 l 332 0 l 6 0 m 401 354 l 586 354 l 496 772 l 401 354 m 253 1032 l 253 1210 l 736 1210 l 736 1032 l 253 1032 z "},"Ą":{"ha":994,"x_min":6,"x_max":996,"o":"m 6 0 l 269 956 l 719 956 l 996 0 l 656 0 l 619 183 l 372 183 l 332 0 l 6 0 m 401 354 l 586 354 l 496 772 l 401 354 m 863 -344 q 727 -310 774 -344 q 681 -219 681 -275 q 738 -95 681 -156 q 901 14 794 -35 l 996 0 q 892 -106 925 -58 q 858 -194 858 -154 q 925 -251 858 -251 q 990 -239 953 -251 l 990 -319 q 926 -339 958 -333 q 863 -344 893 -344 z "},"Å":{"ha":994,"x_min":6,"x_max":996,"o":"m 6 0 l 269 956 l 719 956 l 996 0 l 656 0 l 619 183 l 372 183 l 332 0 l 6 0 m 401 354 l 586 354 l 496 772 l 401 354 m 494 879 q 370 909 424 879 q 286 992 317 939 q 256 1115 256 1046 q 287 1242 256 1189 q 372 1326 318 1296 q 494 1356 426 1356 q 622 1324 569 1356 q 703 1237 675 1292 q 732 1115 732 1182 q 665 944 732 1008 q 494 879 599 879 m 494 1032 q 554 1054 533 1032 q 575 1115 575 1076 q 552 1179 575 1156 q 492 1203 529 1203 q 433 1178 456 1203 q 410 1115 410 1154 q 433 1054 410 1076 q 494 1032 457 1032 z "},"Ǻ":{"ha":994,"x_min":6,"x_max":996,"o":"m 6 0 l 269 956 l 719 956 l 996 0 l 656 0 l 619 183 l 372 183 l 332 0 l 6 0 m 401 354 l 586 354 l 496 772 l 401 354 m 494 879 q 370 909 424 879 q 286 992 317 939 q 256 1115 256 1046 q 287 1242 256 1189 q 372 1326 318 1296 q 494 1356 426 1356 q 638 1314 578 1356 l 858 1468 l 971 1268 l 726 1171 q 732 1115 732 1147 q 665 944 732 1008 q 494 879 599 879 m 494 1032 q 554 1054 533 1032 q 575 1115 575 1076 q 552 1179 575 1156 q 492 1203 529 1203 q 433 1178 456 1203 q 410 1115 410 1154 q 433 1054 410 1076 q 494 1032 457 1032 z "},"Ã":{"ha":994,"x_min":6,"x_max":996,"o":"m 6 0 l 269 956 l 719 956 l 996 0 l 656 0 l 619 183 l 372 183 l 332 0 l 6 0 m 401 354 l 586 354 l 496 772 l 401 354 m 307 1021 l 157 1088 q 259 1251 197 1197 q 396 1306 321 1306 q 470 1289 438 1306 q 533 1256 503 1272 q 599 1239 564 1239 q 641 1258 622 1239 q 681 1307 660 1276 l 831 1242 q 729 1077 792 1132 q 592 1022 667 1022 q 517 1039 550 1022 q 454 1072 485 1056 q 389 1089 424 1089 q 347 1071 367 1089 q 307 1021 328 1053 z "},"Æ":{"ha":1321,"x_min":6,"x_max":1311,"o":"m 381 183 l 324 0 l 6 0 l 332 956 l 1147 956 l 1183 744 l 811 744 l 840 571 l 1182 571 l 1211 396 l 869 396 l 901 211 l 1275 211 l 1311 0 l 646 0 l 614 183 l 381 183 m 525 703 l 432 354 l 585 354 l 525 703 z "},"Ǽ":{"ha":1321,"x_min":6,"x_max":1311,"o":"m 381 183 l 324 0 l 6 0 l 332 956 l 1147 956 l 1183 744 l 811 744 l 840 571 l 1182 571 l 1211 396 l 869 396 l 901 211 l 1275 211 l 1311 0 l 646 0 l 614 183 l 381 183 m 525 703 l 432 354 l 585 354 l 525 703 m 589 1018 l 504 1167 l 911 1451 l 1051 1203 l 589 1018 z "},"B":{"ha":988,"x_min":76,"x_max":953,"o":"m 438 0 l 76 0 l 76 956 l 467 956 q 803 892 696 956 q 910 718 910 829 q 758 519 910 574 q 953 290 953 482 q 819 72 953 143 q 438 0 685 0 m 386 578 l 496 578 q 586 603 551 578 q 621 669 621 628 q 490 765 621 765 l 386 765 l 386 578 m 504 196 q 611 224 574 196 q 649 301 649 251 q 611 385 649 356 q 504 415 574 415 l 385 415 l 385 196 l 504 196 z "},"C":{"ha":821,"x_min":36,"x_max":797,"o":"m 533 -22 q 272 38 383 -22 q 98 208 160 99 q 36 464 36 318 q 101 729 36 614 q 278 910 165 844 q 539 976 392 976 q 796 913 703 976 l 758 692 q 674 720 718 711 q 592 729 631 729 q 413 661 478 729 q 347 472 347 593 q 410 294 347 358 q 586 229 474 229 q 667 238 631 229 q 758 268 704 246 l 797 49 q 533 -22 676 -22 z "},"Ć":{"ha":821,"x_min":36,"x_max":864,"o":"m 533 -22 q 272 38 383 -22 q 98 208 160 99 q 36 464 36 318 q 101 729 36 614 q 278 910 165 844 q 539 976 392 976 q 796 913 703 976 l 758 692 q 674 720 718 711 q 592 729 631 729 q 413 661 478 729 q 347 472 347 593 q 410 294 347 358 q 586 229 474 229 q 667 238 631 229 q 758 268 704 246 l 797 49 q 533 -22 676 -22 m 401 1018 l 317 1167 l 724 1451 l 864 1203 l 401 1018 z "},"Č":{"ha":821,"x_min":36,"x_max":797,"o":"m 533 -22 q 272 38 383 -22 q 98 208 160 99 q 36 464 36 318 q 101 729 36 614 q 278 910 165 844 q 539 976 392 976 q 796 913 703 976 l 758 692 q 674 720 718 711 q 592 729 631 729 q 413 661 478 729 q 347 472 347 593 q 410 294 347 358 q 586 229 474 229 q 667 238 631 229 q 758 268 704 246 l 797 49 q 533 -22 676 -22 m 357 1032 l 186 1378 l 417 1378 l 471 1229 l 485 1175 q 506 1238 493 1200 q 533 1314 519 1275 q 554 1378 546 1353 l 785 1378 l 614 1032 l 357 1032 z "},"Ç":{"ha":821,"x_min":36,"x_max":797,"o":"m 533 -22 q 272 38 383 -22 q 98 208 160 99 q 36 464 36 318 q 101 729 36 614 q 278 910 165 844 q 539 976 392 976 q 796 913 703 976 l 758 692 q 674 720 718 711 q 592 729 631 729 q 413 661 478 729 q 347 472 347 593 q 410 294 347 358 q 586 229 474 229 q 667 238 631 229 q 758 268 704 246 l 797 49 q 533 -22 676 -22 m 453 -344 q 388 -338 421 -344 q 326 -319 354 -332 l 326 -240 q 363 -249 346 -246 q 393 -251 381 -251 q 451 -235 429 -251 q 472 -186 472 -218 q 450 -142 472 -158 q 392 -121 428 -126 l 447 42 l 553 42 l 518 -62 q 615 -113 586 -81 q 643 -194 643 -146 q 592 -303 643 -262 q 453 -344 540 -344 z "},"Ĉ":{"ha":821,"x_min":36,"x_max":797,"o":"m 533 -22 q 272 38 383 -22 q 98 208 160 99 q 36 464 36 318 q 101 729 36 614 q 278 910 165 844 q 539 976 392 976 q 796 913 703 976 l 758 692 q 674 720 718 711 q 592 729 631 729 q 413 661 478 729 q 347 472 347 593 q 410 294 347 358 q 586 229 474 229 q 667 238 631 229 q 758 268 704 246 l 797 49 q 533 -22 676 -22 m 186 1032 l 357 1378 l 614 1378 l 785 1032 l 554 1032 l 501 1179 l 485 1232 l 471 1179 l 417 1032 l 186 1032 z "},"Ċ":{"ha":821,"x_min":36,"x_max":797,"o":"m 533 -22 q 272 38 383 -22 q 98 208 160 99 q 36 464 36 318 q 101 729 36 614 q 278 910 165 844 q 539 976 392 976 q 796 913 703 976 l 758 692 q 674 720 718 711 q 592 729 631 729 q 413 661 478 729 q 347 472 347 593 q 410 294 347 358 q 586 229 474 229 q 667 238 631 229 q 758 268 704 246 l 797 49 q 533 -22 676 -22 m 486 1018 q 376 1059 422 1018 q 331 1160 331 1100 q 353 1233 331 1201 q 411 1282 375 1264 q 486 1300 447 1300 q 565 1281 529 1300 q 622 1229 600 1261 q 643 1160 643 1197 q 620 1086 643 1118 q 562 1036 597 1054 q 486 1018 526 1018 z "},"D":{"ha":1039,"x_min":76,"x_max":1003,"o":"m 76 0 l 76 956 l 408 956 q 748 896 617 956 q 941 731 879 836 q 1003 485 1003 625 q 852 128 1003 256 q 394 0 701 0 l 76 0 m 383 243 l 472 243 q 638 310 583 243 q 692 488 692 378 q 640 651 692 589 q 472 713 588 713 l 383 713 l 383 243 z "},"Ǆ":{"ha":1733,"x_min":76,"x_max":1715,"o":"m 76 0 l 76 956 l 408 956 q 748 896 617 956 q 941 731 879 836 q 1003 485 1003 625 q 852 128 1003 256 q 394 0 701 0 l 76 0 m 383 243 l 472 243 q 638 310 583 243 q 692 488 692 378 q 640 651 692 589 q 472 713 588 713 l 383 713 l 383 243 m 1064 0 l 1064 201 l 1392 736 l 1076 736 l 1076 956 l 1708 956 l 1708 753 l 1386 219 l 1715 219 l 1715 0 l 1064 0 m 1260 1032 l 1089 1378 l 1319 1378 l 1374 1229 l 1388 1175 q 1409 1238 1396 1200 q 1435 1314 1422 1275 q 1457 1378 1449 1353 l 1688 1378 l 1517 1032 l 1260 1032 z "},"Ð":{"ha":1067,"x_min":14,"x_max":1031,"o":"m 104 0 l 104 956 l 436 956 q 776 896 644 956 q 969 731 907 836 q 1031 485 1031 625 q 880 128 1031 256 q 422 0 729 0 l 104 0 m 411 243 l 500 243 q 665 310 611 243 q 719 488 719 378 q 667 651 719 589 q 500 713 615 713 l 411 713 l 411 243 m 14 418 l 14 536 l 556 536 l 556 418 l 14 418 z "},"Ď":{"ha":1039,"x_min":76,"x_max":1003,"o":"m 76 0 l 76 956 l 408 956 q 748 896 617 956 q 941 731 879 836 q 1003 485 1003 625 q 852 128 1003 256 q 394 0 701 0 l 76 0 m 383 243 l 472 243 q 638 310 583 243 q 692 488 692 378 q 640 651 692 589 q 472 713 588 713 l 383 713 l 383 243 m 388 1032 l 217 1378 l 447 1378 l 501 1229 l 515 1175 q 537 1238 524 1200 q 563 1314 550 1275 q 585 1378 576 1353 l 815 1378 l 644 1032 l 388 1032 z "},"Đ":{"ha":1067,"x_min":14,"x_max":1031,"o":"m 104 0 l 104 956 l 436 956 q 776 896 644 956 q 969 731 907 836 q 1031 485 1031 625 q 880 128 1031 256 q 422 0 729 0 l 104 0 m 411 243 l 500 243 q 665 310 611 243 q 719 488 719 378 q 667 651 719 589 q 500 713 615 713 l 411 713 l 411 243 m 14 418 l 14 536 l 556 536 l 556 418 l 14 418 z "},"ǅ":{"ha":1717,"x_min":76,"x_max":1678,"o":"m 76 0 l 76 956 l 408 956 q 748 896 617 956 q 941 731 879 836 q 1003 485 1003 625 q 852 128 1003 256 q 394 0 701 0 l 76 0 m 383 243 l 472 243 q 638 310 583 243 q 692 488 692 378 q 640 651 692 589 q 472 713 588 713 l 383 713 l 383 243 m 1081 0 l 1081 149 l 1332 504 l 1090 504 l 1090 696 l 1668 696 l 1668 546 l 1429 192 l 1674 192 l 1674 0 l 1081 0 m 1250 786 l 1079 1132 l 1310 1132 l 1364 983 l 1378 929 q 1399 992 1386 954 q 1426 1068 1413 1029 q 1447 1132 1439 1107 l 1678 1132 l 1507 786 l 1250 786 z "},"E":{"ha":796,"x_min":76,"x_max":747,"o":"m 76 0 l 76 956 l 747 956 l 747 744 l 414 744 l 414 575 l 718 575 l 718 400 l 414 400 l 414 218 l 747 218 l 747 0 l 76 0 z "},"É":{"ha":796,"x_min":76,"x_max":790,"o":"m 76 0 l 76 956 l 747 956 l 747 744 l 414 744 l 414 575 l 718 575 l 718 400 l 414 400 l 414 218 l 747 218 l 747 0 l 76 0 m 328 1018 l 243 1167 l 650 1451 l 790 1203 l 328 1018 z "},"Ĕ":{"ha":796,"x_min":76,"x_max":747,"o":"m 76 0 l 76 956 l 747 956 l 747 744 l 414 744 l 414 575 l 718 575 l 718 400 l 414 400 l 414 218 l 747 218 l 747 0 l 76 0 m 413 1018 q 220 1105 296 1018 q 139 1376 144 1192 l 335 1376 q 356 1233 335 1275 q 413 1192 378 1192 q 467 1232 447 1192 q 486 1376 486 1272 l 685 1376 q 604 1103 679 1188 q 413 1018 529 1018 z "},"Ě":{"ha":796,"x_min":76,"x_max":747,"o":"m 76 0 l 76 956 l 747 956 l 747 744 l 414 744 l 414 575 l 718 575 l 718 400 l 414 400 l 414 218 l 747 218 l 747 0 l 76 0 m 283 1032 l 113 1378 l 343 1378 l 397 1229 l 411 1175 q 433 1238 419 1200 q 459 1314 446 1275 q 481 1378 472 1353 l 711 1378 l 540 1032 l 283 1032 z "},"Ê":{"ha":796,"x_min":76,"x_max":747,"o":"m 76 0 l 76 956 l 747 956 l 747 744 l 414 744 l 414 575 l 718 575 l 718 400 l 414 400 l 414 218 l 747 218 l 747 0 l 76 0 m 113 1032 l 283 1378 l 540 1378 l 711 1032 l 481 1032 l 428 1179 l 411 1232 l 397 1179 l 343 1032 l 113 1032 z "},"Ế":{"ha":796,"x_min":76,"x_max":1001,"o":"m 76 0 l 76 956 l 747 956 l 747 744 l 414 744 l 414 575 l 718 575 l 718 400 l 414 400 l 414 218 l 747 218 l 747 0 l 76 0 m 676 1222 l 582 1301 l 824 1643 l 1001 1506 l 676 1222 m 113 1032 l 283 1307 l 540 1307 l 711 1032 l 485 1032 l 411 1172 l 339 1032 l 113 1032 z "},"Ệ":{"ha":796,"x_min":76,"x_max":747,"o":"m 76 0 l 76 956 l 747 956 l 747 744 l 414 744 l 414 575 l 718 575 l 718 400 l 414 400 l 414 218 l 747 218 l 747 0 l 76 0 m 413 -358 q 303 -317 349 -358 q 257 -217 257 -276 q 279 -144 257 -176 q 338 -94 301 -112 q 413 -76 374 -76 q 491 -96 456 -76 q 548 -147 526 -115 q 569 -217 569 -179 q 547 -290 569 -258 q 488 -340 524 -322 q 413 -358 453 -358 m 113 1032 l 283 1378 l 540 1378 l 711 1032 l 481 1032 l 428 1179 l 411 1232 l 397 1179 l 343 1032 l 113 1032 z "},"Ề":{"ha":796,"x_min":76,"x_max":793,"o":"m 76 0 l 76 956 l 747 956 l 747 744 l 414 744 l 414 575 l 718 575 l 718 400 l 414 400 l 414 218 l 747 218 l 747 0 l 76 0 m 699 1222 l 374 1506 l 551 1643 l 793 1301 l 699 1222 m 114 1032 l 285 1307 l 542 1307 l 713 1032 l 486 1032 l 414 1172 l 340 1032 l 114 1032 z "},"Ể":{"ha":796,"x_min":76,"x_max":914,"o":"m 76 0 l 76 956 l 747 956 l 747 744 l 414 744 l 414 575 l 718 575 l 718 400 l 414 400 l 414 218 l 747 218 l 747 0 l 76 0 m 629 1222 q 644 1282 629 1260 q 676 1319 658 1304 q 709 1350 694 1335 q 724 1388 724 1365 q 710 1413 724 1403 q 667 1422 697 1422 q 621 1417 644 1422 q 569 1401 597 1411 l 558 1517 q 639 1537 594 1529 q 729 1544 683 1544 q 872 1509 831 1544 q 914 1419 914 1474 q 897 1349 914 1375 q 858 1304 881 1322 q 819 1268 836 1286 q 803 1222 803 1250 l 629 1222 m 114 1032 l 285 1307 l 542 1307 l 713 1032 l 486 1032 l 414 1172 l 340 1032 l 114 1032 z "},"Ễ":{"ha":796,"x_min":76,"x_max":747,"o":"m 76 0 l 76 956 l 747 956 l 747 744 l 414 744 l 414 575 l 718 575 l 718 400 l 414 400 l 414 218 l 747 218 l 747 0 l 76 0 m 254 1369 l 126 1426 q 213 1565 161 1519 q 329 1611 265 1611 q 393 1598 365 1611 q 447 1572 421 1585 q 501 1558 472 1558 q 537 1572 521 1558 q 571 1613 553 1586 l 699 1557 q 612 1417 664 1464 q 496 1371 560 1371 q 433 1384 461 1371 q 378 1410 404 1397 q 324 1424 353 1424 q 288 1410 304 1424 q 254 1369 272 1397 m 114 1032 l 285 1307 l 542 1307 l 713 1032 l 486 1032 l 414 1172 l 340 1032 l 114 1032 z "},"Ȅ":{"ha":796,"x_min":18,"x_max":747,"o":"m 76 0 l 76 956 l 747 956 l 747 744 l 414 744 l 414 575 l 718 575 l 718 400 l 414 400 l 414 218 l 747 218 l 747 0 l 76 0 m 232 1018 l 18 1365 l 236 1454 l 381 1071 l 232 1018 m 492 1019 l 333 1396 l 564 1451 l 649 1051 l 492 1019 z "},"Ë":{"ha":796,"x_min":61,"x_max":764,"o":"m 76 0 l 76 956 l 747 956 l 747 744 l 414 744 l 414 575 l 718 575 l 718 400 l 414 400 l 414 218 l 747 218 l 747 0 l 76 0 m 217 1018 q 107 1058 153 1018 q 61 1157 61 1099 q 83 1229 61 1197 q 141 1280 106 1261 q 217 1299 176 1299 q 295 1279 260 1299 q 352 1227 331 1260 q 374 1157 374 1194 q 351 1084 374 1115 q 292 1035 328 1053 q 217 1018 257 1018 m 610 1018 q 497 1060 540 1018 q 453 1157 453 1103 q 476 1231 453 1199 q 535 1281 499 1263 q 610 1299 571 1299 q 692 1277 657 1299 q 745 1224 726 1256 q 764 1157 764 1192 q 742 1085 764 1117 q 685 1036 721 1054 q 610 1018 650 1018 z "},"Ė":{"ha":796,"x_min":76,"x_max":747,"o":"m 76 0 l 76 956 l 747 956 l 747 744 l 414 744 l 414 575 l 718 575 l 718 400 l 414 400 l 414 218 l 747 218 l 747 0 l 76 0 m 413 1018 q 303 1059 349 1018 q 257 1160 257 1100 q 279 1233 257 1201 q 338 1282 301 1264 q 413 1300 374 1300 q 491 1281 456 1300 q 548 1229 526 1261 q 569 1160 569 1197 q 547 1086 569 1118 q 488 1036 524 1054 q 413 1018 453 1018 z "},"Ẹ":{"ha":796,"x_min":76,"x_max":747,"o":"m 76 0 l 76 956 l 747 956 l 747 744 l 414 744 l 414 575 l 718 575 l 718 400 l 414 400 l 414 218 l 747 218 l 747 0 l 76 0 m 413 -358 q 303 -317 349 -358 q 257 -217 257 -276 q 279 -144 257 -176 q 338 -94 301 -112 q 413 -76 374 -76 q 491 -96 456 -76 q 548 -147 526 -115 q 569 -217 569 -179 q 547 -290 569 -258 q 488 -340 524 -322 q 413 -358 453 -358 z "},"È":{"ha":796,"x_min":35,"x_max":747,"o":"m 76 0 l 76 956 l 747 956 l 747 744 l 414 744 l 414 575 l 718 575 l 718 400 l 414 400 l 414 218 l 747 218 l 747 0 l 76 0 m 497 1018 l 35 1203 l 175 1451 l 582 1167 l 497 1018 z "},"Ẻ":{"ha":796,"x_min":76,"x_max":747,"o":"m 76 0 l 76 956 l 747 956 l 747 744 l 414 744 l 414 575 l 718 575 l 718 400 l 414 400 l 414 218 l 747 218 l 747 0 l 76 0 m 328 1046 q 325 1067 326 1057 q 324 1094 324 1078 q 338 1147 324 1128 q 371 1181 353 1167 q 403 1211 389 1196 q 418 1249 418 1226 q 405 1274 418 1264 q 361 1283 392 1283 q 315 1278 339 1283 q 264 1263 292 1272 l 253 1378 q 333 1398 289 1390 q 424 1406 378 1406 q 567 1370 525 1406 q 608 1281 608 1335 q 592 1209 608 1236 q 553 1163 575 1182 q 514 1124 531 1144 q 497 1069 497 1103 l 497 1046 l 328 1046 z "},"Ȇ":{"ha":796,"x_min":76,"x_max":747,"o":"m 76 0 l 76 956 l 747 956 l 747 744 l 414 744 l 414 575 l 718 575 l 718 400 l 414 400 l 414 218 l 747 218 l 747 0 l 76 0 m 139 1032 q 219 1306 144 1221 q 411 1390 294 1390 q 603 1304 528 1390 q 685 1032 679 1218 l 489 1032 q 467 1176 489 1135 q 411 1217 446 1217 q 357 1176 376 1217 q 338 1032 338 1136 l 139 1032 z "},"Ē":{"ha":796,"x_min":76,"x_max":747,"o":"m 76 0 l 76 956 l 747 956 l 747 744 l 414 744 l 414 575 l 718 575 l 718 400 l 414 400 l 414 218 l 747 218 l 747 0 l 76 0 m 171 1032 l 171 1210 l 654 1210 l 654 1032 l 171 1032 z "},"Ę":{"ha":796,"x_min":76,"x_max":747,"o":"m 76 0 l 76 956 l 747 956 l 747 744 l 414 744 l 414 575 l 718 575 l 718 400 l 414 400 l 414 218 l 747 218 l 747 0 l 76 0 m 614 -344 q 478 -310 525 -344 q 432 -219 432 -275 q 489 -95 432 -156 q 653 14 546 -35 l 747 0 q 643 -106 676 -58 q 610 -194 610 -154 q 676 -251 610 -251 q 742 -239 704 -251 l 742 -319 q 677 -339 710 -333 q 614 -344 644 -344 z "},"Ẽ":{"ha":796,"x_min":75,"x_max":749,"o":"m 76 0 l 76 956 l 747 956 l 747 744 l 414 744 l 414 575 l 718 575 l 718 400 l 414 400 l 414 218 l 747 218 l 747 0 l 76 0 m 225 1021 l 75 1088 q 177 1251 115 1197 q 314 1306 239 1306 q 388 1289 356 1306 q 451 1256 421 1272 q 517 1239 482 1239 q 559 1258 540 1239 q 599 1307 578 1276 l 749 1242 q 647 1077 710 1132 q 510 1022 585 1022 q 435 1039 468 1022 q 372 1072 403 1056 q 307 1089 342 1089 q 265 1071 285 1089 q 225 1021 246 1053 z "},"Ə":{"ha":1057,"x_min":36,"x_max":1021,"o":"m 524 -24 q 260 38 369 -24 q 94 206 151 99 q 36 451 36 314 q 37 478 36 467 q 40 501 38 490 l 694 578 q 612 690 672 656 q 463 725 551 725 q 342 715 399 725 q 214 679 286 704 l 161 893 q 328 958 243 939 q 494 976 413 976 q 772 913 654 976 q 956 738 890 850 q 1021 476 1021 625 q 984 276 1021 368 q 881 118 947 185 q 723 14 814 51 q 524 -24 632 -24 m 507 197 q 659 253 611 197 q 708 399 707 310 l 322 333 q 383 235 333 272 q 507 197 432 197 z "},"F":{"ha":772,"x_min":76,"x_max":735,"o":"m 76 0 l 76 956 l 735 956 l 735 744 l 375 744 l 375 551 l 708 551 l 708 365 l 375 365 l 375 0 l 76 0 z "},"G":{"ha":911,"x_min":36,"x_max":850,"o":"m 529 -22 q 269 39 379 -22 q 97 208 158 100 q 36 458 36 317 q 100 726 36 610 q 279 910 164 843 q 547 976 394 976 q 813 910 714 976 l 771 692 q 589 729 683 729 q 410 661 475 729 q 344 472 344 593 q 403 282 344 350 q 554 214 463 214 q 610 219 588 214 l 610 457 l 850 485 l 850 50 q 689 -4 771 14 q 529 -22 607 -22 z "},"Ğ":{"ha":911,"x_min":36,"x_max":850,"o":"m 529 -22 q 269 39 379 -22 q 97 208 158 100 q 36 458 36 317 q 100 726 36 610 q 279 910 164 843 q 547 976 394 976 q 813 910 714 976 l 771 692 q 589 729 683 729 q 410 661 475 729 q 344 472 344 593 q 403 282 344 350 q 554 214 463 214 q 610 219 588 214 l 610 457 l 850 485 l 850 50 q 689 -4 771 14 q 529 -22 607 -22 m 501 1018 q 309 1105 385 1018 q 228 1376 233 1192 l 424 1376 q 445 1233 424 1275 q 501 1192 467 1192 q 556 1232 536 1192 q 575 1376 575 1272 l 774 1376 q 693 1103 768 1188 q 501 1018 618 1018 z "},"Ǧ":{"ha":911,"x_min":36,"x_max":850,"o":"m 529 -22 q 269 39 379 -22 q 97 208 158 100 q 36 458 36 317 q 100 726 36 610 q 279 910 164 843 q 547 976 394 976 q 813 910 714 976 l 771 692 q 589 729 683 729 q 410 661 475 729 q 344 472 344 593 q 403 282 344 350 q 554 214 463 214 q 610 219 588 214 l 610 457 l 850 485 l 850 50 q 689 -4 771 14 q 529 -22 607 -22 m 372 1032 l 201 1378 l 432 1378 l 486 1229 l 500 1175 q 522 1238 508 1200 q 548 1314 535 1275 q 569 1378 561 1353 l 800 1378 l 629 1032 l 372 1032 z "},"Ĝ":{"ha":911,"x_min":36,"x_max":850,"o":"m 529 -22 q 269 39 379 -22 q 97 208 158 100 q 36 458 36 317 q 100 726 36 610 q 279 910 164 843 q 547 976 394 976 q 813 910 714 976 l 771 692 q 589 729 683 729 q 410 661 475 729 q 344 472 344 593 q 403 282 344 350 q 554 214 463 214 q 610 219 588 214 l 610 457 l 850 485 l 850 50 q 689 -4 771 14 q 529 -22 607 -22 m 201 1032 l 372 1378 l 629 1378 l 800 1032 l 569 1032 l 517 1179 l 500 1232 l 486 1179 l 432 1032 l 201 1032 z "},"Ģ":{"ha":911,"x_min":36,"x_max":850,"o":"m 529 -22 q 269 39 379 -22 q 97 208 158 100 q 36 458 36 317 q 100 726 36 610 q 279 910 164 843 q 547 976 394 976 q 813 910 714 976 l 771 692 q 589 729 683 729 q 410 661 475 729 q 344 472 344 593 q 403 282 344 350 q 554 214 463 214 q 610 219 588 214 l 610 457 l 850 485 l 850 50 q 689 -4 771 14 q 529 -22 607 -22 m 372 -487 l 372 -375 q 456 -360 433 -375 q 483 -312 479 -344 l 372 -312 l 372 -90 l 629 -90 l 629 -211 q 572 -423 629 -358 q 372 -487 514 -487 z "},"Ġ":{"ha":911,"x_min":36,"x_max":850,"o":"m 529 -22 q 269 39 379 -22 q 97 208 158 100 q 36 458 36 317 q 100 726 36 610 q 279 910 164 843 q 547 976 394 976 q 813 910 714 976 l 771 692 q 589 729 683 729 q 410 661 475 729 q 344 472 344 593 q 403 282 344 350 q 554 214 463 214 q 610 219 588 214 l 610 457 l 850 485 l 850 50 q 689 -4 771 14 q 529 -22 607 -22 m 501 1018 q 392 1059 438 1018 q 346 1160 346 1100 q 368 1233 346 1201 q 426 1282 390 1264 q 501 1300 463 1300 q 580 1281 544 1300 q 637 1229 615 1261 q 658 1160 658 1197 q 635 1086 658 1118 q 577 1036 613 1054 q 501 1018 542 1018 z "},"H":{"ha":1075,"x_min":76,"x_max":999,"o":"m 76 0 l 76 956 l 389 956 l 389 596 l 685 596 l 685 956 l 999 956 l 999 0 l 685 0 l 685 376 l 389 376 l 389 0 l 76 0 z "},"Ħ":{"ha":1131,"x_min":14,"x_max":1117,"o":"m 104 0 l 104 956 l 417 956 l 417 596 l 713 596 l 713 956 l 1026 956 l 1026 0 l 713 0 l 713 376 l 417 376 l 417 0 l 104 0 m 1117 718 l 14 718 l 14 836 l 1117 836 l 1117 718 z "},"Ĥ":{"ha":1075,"x_min":76,"x_max":999,"o":"m 76 0 l 76 956 l 389 956 l 389 596 l 685 596 l 685 956 l 999 956 l 999 0 l 685 0 l 685 376 l 389 376 l 389 0 l 76 0 m 238 1032 l 408 1378 l 665 1378 l 836 1032 l 606 1032 l 553 1179 l 536 1232 l 522 1179 l 468 1032 l 238 1032 z "},"I":{"ha":467,"x_min":76,"x_max":390,"o":"m 76 0 l 76 956 l 390 956 l 390 0 l 76 0 z "},"Ĳ":{"ha":1058,"x_min":76,"x_max":988,"o":"m 76 0 l 76 956 l 390 956 l 390 0 l 76 0 m 675 -22 q 547 -5 610 -22 q 446 49 485 13 l 508 232 q 551 217 528 224 q 596 210 574 210 q 689 315 689 210 l 689 956 l 988 956 l 988 333 q 907 68 988 158 q 675 -22 826 -22 z "},"Í":{"ha":467,"x_min":64,"x_max":611,"o":"m 76 0 l 76 956 l 390 956 l 390 0 l 76 0 m 149 1018 l 64 1167 l 471 1451 l 611 1203 l 149 1018 z "},"Ĭ":{"ha":467,"x_min":-40,"x_max":506,"o":"m 76 0 l 76 956 l 390 956 l 390 0 l 76 0 m 233 1018 q 41 1105 117 1018 q -40 1376 -35 1192 l 156 1376 q 177 1233 156 1275 q 233 1192 199 1192 q 288 1232 268 1192 q 307 1376 307 1272 l 506 1376 q 425 1103 500 1188 q 233 1018 350 1018 z "},"Î":{"ha":467,"x_min":-67,"x_max":532,"o":"m 76 0 l 76 956 l 390 956 l 390 0 l 76 0 m -67 1032 l 104 1378 l 361 1378 l 532 1032 l 301 1032 l 249 1179 l 232 1232 l 218 1179 l 164 1032 l -67 1032 z "},"Ȉ":{"ha":467,"x_min":-161,"x_max":469,"o":"m 76 0 l 76 956 l 390 956 l 390 0 l 76 0 m 53 1018 l -161 1365 l 57 1454 l 201 1071 l 53 1018 m 313 1019 l 154 1396 l 385 1451 l 469 1051 l 313 1019 z "},"Ï":{"ha":467,"x_min":-118,"x_max":585,"o":"m 76 0 l 76 956 l 390 956 l 390 0 l 76 0 m 38 1018 q -72 1058 -26 1018 q -118 1157 -118 1099 q -96 1229 -118 1197 q -38 1280 -74 1261 q 38 1299 -3 1299 q 116 1279 81 1299 q 173 1227 151 1260 q 194 1157 194 1194 q 172 1084 194 1115 q 113 1035 149 1053 q 38 1018 78 1018 m 431 1018 q 317 1060 361 1018 q 274 1157 274 1103 q 297 1231 274 1199 q 356 1281 319 1263 q 431 1299 392 1299 q 513 1277 478 1299 q 566 1224 547 1256 q 585 1157 585 1192 q 563 1085 585 1117 q 506 1036 542 1054 q 431 1018 471 1018 z "},"İ":{"ha":467,"x_min":76,"x_max":390,"o":"m 76 0 l 76 956 l 390 956 l 390 0 l 76 0 m 233 1018 q 124 1059 169 1018 q 78 1160 78 1100 q 100 1233 78 1201 q 158 1282 122 1264 q 233 1300 194 1300 q 312 1281 276 1300 q 369 1229 347 1261 q 390 1160 390 1197 q 367 1086 390 1118 q 309 1036 344 1054 q 233 1018 274 1018 z "},"Ị":{"ha":467,"x_min":76,"x_max":390,"o":"m 76 0 l 76 956 l 390 956 l 390 0 l 76 0 m 233 -358 q 124 -317 169 -358 q 78 -217 78 -276 q 100 -144 78 -176 q 158 -94 122 -112 q 233 -76 194 -76 q 312 -96 276 -76 q 369 -147 347 -115 q 390 -217 390 -179 q 367 -290 390 -258 q 309 -340 344 -322 q 233 -358 274 -358 z "},"Ì":{"ha":467,"x_min":-144,"x_max":403,"o":"m 76 0 l 76 956 l 390 956 l 390 0 l 76 0 m 318 1018 l -144 1203 l -4 1451 l 403 1167 l 318 1018 z "},"Ỉ":{"ha":467,"x_min":74,"x_max":429,"o":"m 76 0 l 76 956 l 390 956 l 390 0 l 76 0 m 149 1046 q 146 1067 147 1057 q 144 1094 144 1078 q 159 1147 144 1128 q 192 1181 174 1167 q 224 1211 210 1196 q 239 1249 239 1226 q 226 1274 239 1264 q 182 1283 213 1283 q 136 1278 160 1283 q 85 1263 113 1272 l 74 1378 q 154 1398 110 1390 q 244 1406 199 1406 q 388 1370 346 1406 q 429 1281 429 1335 q 413 1209 429 1236 q 374 1163 396 1182 q 335 1124 351 1144 q 318 1069 318 1103 l 318 1046 l 149 1046 z "},"Ȋ":{"ha":467,"x_min":-40,"x_max":506,"o":"m 76 0 l 76 956 l 390 956 l 390 0 l 76 0 m -40 1032 q 40 1306 -35 1221 q 232 1390 115 1390 q 424 1304 349 1390 q 506 1032 500 1218 l 310 1032 q 288 1176 310 1135 q 232 1217 267 1217 q 178 1176 197 1217 q 158 1032 158 1136 l -40 1032 z "},"Ī":{"ha":467,"x_min":-8,"x_max":475,"o":"m 76 0 l 76 956 l 390 956 l 390 0 l 76 0 m -8 1032 l -8 1210 l 475 1210 l 475 1032 l -8 1032 z "},"Į":{"ha":467,"x_min":75,"x_max":390,"o":"m 76 0 l 76 956 l 390 956 l 390 0 l 76 0 m 257 -344 q 122 -310 168 -344 q 75 -219 75 -275 q 132 -95 75 -156 q 296 14 189 -35 l 390 0 q 286 -106 319 -58 q 253 -194 253 -154 q 319 -251 253 -251 q 385 -239 347 -251 l 385 -319 q 320 -339 353 -333 q 257 -344 288 -344 z "},"Ĩ":{"ha":467,"x_min":-104,"x_max":569,"o":"m 76 0 l 76 956 l 390 956 l 390 0 l 76 0 m 46 1021 l -104 1088 q -2 1251 -64 1197 q 135 1306 60 1306 q 209 1289 176 1306 q 272 1256 242 1272 q 338 1239 303 1239 q 380 1258 361 1239 q 419 1307 399 1276 l 569 1242 q 468 1077 531 1132 q 331 1022 406 1022 q 256 1039 289 1022 q 193 1072 224 1056 q 128 1089 163 1089 q 86 1071 106 1089 q 46 1021 67 1053 z "},"J":{"ha":592,"x_min":-21,"x_max":521,"o":"m 208 -22 q 81 -5 143 -22 q -21 49 18 13 l 42 232 q 84 217 61 224 q 129 210 107 210 q 222 315 222 210 l 222 956 l 521 956 l 521 333 q 440 68 521 158 q 208 -22 360 -22 z "},"Ĵ":{"ha":592,"x_min":-21,"x_max":671,"o":"m 208 -22 q 81 -5 143 -22 q -21 49 18 13 l 42 232 q 84 217 61 224 q 129 210 107 210 q 222 315 222 210 l 222 956 l 521 956 l 521 333 q 440 68 521 158 q 208 -22 360 -22 m 72 1032 l 243 1378 l 500 1378 l 671 1032 l 440 1032 l 388 1179 l 371 1232 l 357 1179 l 303 1032 l 72 1032 z "},"K":{"ha":1031,"x_min":76,"x_max":1065,"o":"m 76 0 l 76 956 l 399 956 l 399 575 l 497 575 l 683 956 l 1031 956 l 778 482 l 1065 0 l 699 0 l 493 368 l 399 368 l 399 0 l 76 0 z "},"Ķ":{"ha":1031,"x_min":76,"x_max":1065,"o":"m 76 0 l 76 956 l 399 956 l 399 575 l 497 575 l 683 956 l 1031 956 l 778 482 l 1065 0 l 699 0 l 493 368 l 399 368 l 399 0 l 76 0 m 404 -487 l 404 -375 q 488 -360 465 -375 q 515 -312 511 -344 l 404 -312 l 404 -90 l 661 -90 l 661 -211 q 603 -423 661 -358 q 404 -487 546 -487 z "},"L":{"ha":744,"x_min":76,"x_max":715,"o":"m 76 0 l 76 956 l 376 956 l 376 219 l 715 219 l 701 0 l 76 0 z "},"Ǉ":{"ha":1364,"x_min":76,"x_max":1293,"o":"m 76 0 l 76 956 l 376 956 l 376 219 l 715 219 l 701 0 l 76 0 m 981 -22 q 853 -5 915 -22 q 751 49 790 13 l 814 232 q 856 217 833 224 q 901 210 879 210 q 994 315 994 210 l 994 956 l 1293 956 l 1293 333 q 1213 68 1293 158 q 981 -22 1132 -22 z "},"Ĺ":{"ha":744,"x_min":57,"x_max":715,"o":"m 76 0 l 76 956 l 376 956 l 376 219 l 715 219 l 701 0 l 76 0 m 142 1018 l 57 1167 l 464 1451 l 604 1203 l 142 1018 z "},"Ľ":{"ha":744,"x_min":76,"x_max":717,"o":"m 76 0 l 76 956 l 376 956 l 376 219 l 715 219 l 701 0 l 76 0 m 460 558 l 460 671 q 544 686 521 671 q 571 733 567 701 l 460 733 l 460 956 l 717 956 l 717 835 q 659 623 717 688 q 460 558 601 558 z "},"Ļ":{"ha":744,"x_min":76,"x_max":715,"o":"m 76 0 l 76 956 l 376 956 l 376 219 l 715 219 l 701 0 l 76 0 m 264 -487 l 264 -375 q 348 -360 325 -375 q 375 -312 371 -344 l 264 -312 l 264 -90 l 521 -90 l 521 -211 q 463 -423 521 -358 q 264 -487 406 -487 z "},"Ŀ":{"ha":744,"x_min":76,"x_max":733,"o":"m 76 0 l 76 956 l 376 956 l 376 219 l 715 219 l 701 0 l 76 0 m 592 444 q 491 481 533 444 q 449 579 449 517 q 491 676 449 636 q 592 715 533 715 q 692 678 650 715 q 733 579 733 640 q 692 483 733 521 q 592 444 650 444 z "},"ǈ":{"ha":1192,"x_min":76,"x_max":1133,"o":"m 76 0 l 76 956 l 376 956 l 376 219 l 715 219 l 701 0 l 76 0 m 796 -271 q 690 -260 739 -271 q 606 -235 642 -250 l 647 -36 q 694 -49 671 -44 q 738 -53 718 -53 q 808 -28 786 -53 q 829 53 829 -3 l 829 696 l 1122 696 l 1122 78 q 1042 -181 1122 -90 q 796 -271 961 -271 m 976 772 q 867 813 913 772 q 821 914 821 854 q 843 987 821 956 q 901 1036 865 1018 q 976 1054 938 1054 q 1055 1035 1019 1054 q 1112 983 1090 1015 q 1133 914 1133 951 q 1110 840 1133 872 q 1052 790 1088 808 q 976 772 1017 772 z "},"Ł":{"ha":772,"x_min":14,"x_max":743,"o":"m 104 0 l 104 956 l 404 956 l 404 219 l 743 219 l 729 0 l 104 0 m 600 567 l 14 417 l 14 532 l 600 682 l 600 567 z "},"M":{"ha":1203,"x_min":76,"x_max":1126,"o":"m 76 0 l 76 956 l 365 956 l 604 492 l 838 956 l 1126 956 l 1126 0 l 838 0 l 838 500 l 661 167 l 543 167 l 365 500 l 365 0 l 76 0 z "},"N":{"ha":1061,"x_min":76,"x_max":985,"o":"m 76 0 l 76 956 l 354 956 l 729 449 l 729 956 l 985 956 l 985 0 l 707 0 l 332 486 l 332 0 l 76 0 z "},"Ǌ":{"ha":1653,"x_min":76,"x_max":1582,"o":"m 76 0 l 76 956 l 354 956 l 729 449 l 729 956 l 985 956 l 985 0 l 707 0 l 332 486 l 332 0 l 76 0 m 1269 -22 q 1142 -5 1204 -22 q 1040 49 1079 13 l 1103 232 q 1145 217 1122 224 q 1190 210 1168 210 q 1283 315 1283 210 l 1283 956 l 1582 956 l 1582 333 q 1501 68 1582 158 q 1269 -22 1421 -22 z "},"Ń":{"ha":1061,"x_min":76,"x_max":985,"o":"m 76 0 l 76 956 l 354 956 l 729 449 l 729 956 l 985 956 l 985 0 l 707 0 l 332 486 l 332 0 l 76 0 m 446 1018 l 361 1167 l 768 1451 l 908 1203 l 446 1018 z "},"Ň":{"ha":1061,"x_min":76,"x_max":985,"o":"m 76 0 l 76 956 l 354 956 l 729 449 l 729 956 l 985 956 l 985 0 l 707 0 l 332 486 l 332 0 l 76 0 m 401 1032 l 231 1378 l 461 1378 l 515 1229 l 529 1175 q 551 1238 538 1200 q 577 1314 564 1275 q 599 1378 590 1353 l 829 1378 l 658 1032 l 401 1032 z "},"Ņ":{"ha":1061,"x_min":76,"x_max":985,"o":"m 76 0 l 76 956 l 354 956 l 729 449 l 729 956 l 985 956 l 985 0 l 707 0 l 332 486 l 332 0 l 76 0 m 401 -487 l 401 -375 q 485 -360 463 -375 q 513 -312 508 -344 l 401 -312 l 401 -90 l 658 -90 l 658 -211 q 601 -423 658 -358 q 401 -487 543 -487 z "},"ǋ":{"ha":1544,"x_min":76,"x_max":1486,"o":"m 76 0 l 76 956 l 354 956 l 729 449 l 729 956 l 985 956 l 985 0 l 707 0 l 332 486 l 332 0 l 76 0 m 1149 -271 q 1043 -260 1092 -271 q 958 -235 994 -250 l 1000 -36 q 1047 -49 1024 -44 q 1090 -53 1071 -53 q 1160 -28 1139 -53 q 1182 53 1182 -3 l 1182 696 l 1475 696 l 1475 78 q 1394 -181 1475 -90 q 1149 -271 1314 -271 m 1329 772 q 1219 813 1265 772 q 1174 914 1174 854 q 1196 987 1174 956 q 1254 1036 1218 1018 q 1329 1054 1290 1054 q 1408 1035 1372 1054 q 1465 983 1443 1015 q 1486 914 1486 951 q 1463 840 1486 872 q 1405 790 1440 808 q 1329 772 1369 772 z "},"Ñ":{"ha":1061,"x_min":76,"x_max":985,"o":"m 76 0 l 76 956 l 354 956 l 729 449 l 729 956 l 985 956 l 985 0 l 707 0 l 332 486 l 332 0 l 76 0 m 343 1021 l 193 1088 q 295 1251 233 1197 q 432 1306 357 1306 q 506 1289 474 1306 q 569 1256 539 1272 q 635 1239 600 1239 q 677 1258 658 1239 q 717 1307 696 1276 l 867 1242 q 765 1077 828 1132 q 628 1022 703 1022 q 553 1039 586 1022 q 490 1072 521 1056 q 425 1089 460 1089 q 383 1071 403 1089 q 343 1021 364 1053 z "},"Ŋ":{"ha":1061,"x_min":76,"x_max":985,"o":"m 985 71 q 910 -170 985 -83 q 697 -257 836 -257 q 580 -241 638 -257 q 486 -194 522 -225 l 549 -17 q 591 -32 568 -25 q 636 -39 614 -39 q 715 -6 693 -39 l 332 488 l 332 0 l 76 0 l 76 956 l 354 956 l 729 449 l 729 956 l 985 956 l 985 71 z "},"O":{"ha":1094,"x_min":36,"x_max":1058,"o":"m 547 -22 q 281 42 396 -22 q 101 218 165 106 q 36 476 36 331 q 101 736 36 624 q 281 913 165 849 q 547 976 396 976 q 814 913 699 976 q 994 738 929 850 q 1058 476 1058 625 q 994 218 1058 331 q 814 42 929 106 q 547 -22 699 -22 m 547 231 q 691 299 635 231 q 747 478 747 367 q 722 610 747 553 q 651 699 696 667 q 546 732 606 732 q 403 662 458 732 q 347 478 347 592 q 403 299 347 367 q 547 231 458 231 z "},"Ó":{"ha":1094,"x_min":36,"x_max":1058,"o":"m 547 -22 q 281 42 396 -22 q 101 218 165 106 q 36 476 36 331 q 101 736 36 624 q 281 913 165 849 q 547 976 396 976 q 814 913 699 976 q 994 738 929 850 q 1058 476 1058 625 q 994 218 1058 331 q 814 42 929 106 q 547 -22 699 -22 m 547 231 q 691 299 635 231 q 747 478 747 367 q 722 610 747 553 q 651 699 696 667 q 546 732 606 732 q 403 662 458 732 q 347 478 347 592 q 403 299 347 367 q 547 231 458 231 m 463 1018 l 378 1167 l 785 1451 l 925 1203 l 463 1018 z "},"Ŏ":{"ha":1094,"x_min":36,"x_max":1058,"o":"m 547 -22 q 281 42 396 -22 q 101 218 165 106 q 36 476 36 331 q 101 736 36 624 q 281 913 165 849 q 547 976 396 976 q 814 913 699 976 q 994 738 929 850 q 1058 476 1058 625 q 994 218 1058 331 q 814 42 929 106 q 547 -22 699 -22 m 547 231 q 691 299 635 231 q 747 478 747 367 q 722 610 747 553 q 651 699 696 667 q 546 732 606 732 q 403 662 458 732 q 347 478 347 592 q 403 299 347 367 q 547 231 458 231 m 547 1018 q 355 1105 431 1018 q 274 1376 279 1192 l 469 1376 q 491 1233 469 1275 q 547 1192 513 1192 q 601 1232 582 1192 q 621 1376 621 1272 l 819 1376 q 739 1103 814 1188 q 547 1018 664 1018 z "},"Ô":{"ha":1094,"x_min":36,"x_max":1058,"o":"m 547 -22 q 281 42 396 -22 q 101 218 165 106 q 36 476 36 331 q 101 736 36 624 q 281 913 165 849 q 547 976 396 976 q 814 913 699 976 q 994 738 929 850 q 1058 476 1058 625 q 994 218 1058 331 q 814 42 929 106 q 547 -22 699 -22 m 547 231 q 691 299 635 231 q 747 478 747 367 q 722 610 747 553 q 651 699 696 667 q 546 732 606 732 q 403 662 458 732 q 347 478 347 592 q 403 299 347 367 q 547 231 458 231 m 247 1032 l 418 1378 l 675 1378 l 846 1032 l 615 1032 l 563 1179 l 546 1232 l 532 1179 l 478 1032 l 247 1032 z "},"Ố":{"ha":1094,"x_min":36,"x_max":1136,"o":"m 547 -22 q 281 42 396 -22 q 101 218 165 106 q 36 476 36 331 q 101 736 36 624 q 281 913 165 849 q 547 976 396 976 q 814 913 699 976 q 994 738 929 850 q 1058 476 1058 625 q 994 218 1058 331 q 814 42 929 106 q 547 -22 699 -22 m 547 231 q 691 299 635 231 q 747 478 747 367 q 722 610 747 553 q 651 699 696 667 q 546 732 606 732 q 403 662 458 732 q 347 478 347 592 q 403 299 347 367 q 547 231 458 231 m 811 1222 l 717 1301 l 958 1643 l 1136 1506 l 811 1222 m 247 1032 l 418 1307 l 675 1307 l 846 1032 l 619 1032 l 546 1172 l 474 1032 l 247 1032 z "},"Ộ":{"ha":1094,"x_min":36,"x_max":1058,"o":"m 547 -22 q 281 42 396 -22 q 101 218 165 106 q 36 476 36 331 q 101 736 36 624 q 281 913 165 849 q 547 976 396 976 q 814 913 699 976 q 994 738 929 850 q 1058 476 1058 625 q 994 218 1058 331 q 814 42 929 106 q 547 -22 699 -22 m 547 231 q 691 299 635 231 q 747 478 747 367 q 722 610 747 553 q 651 699 696 667 q 546 732 606 732 q 403 662 458 732 q 347 478 347 592 q 403 299 347 367 q 547 231 458 231 m 547 -358 q 438 -317 483 -358 q 392 -217 392 -276 q 414 -144 392 -176 q 472 -94 436 -112 q 547 -76 508 -76 q 626 -96 590 -76 q 683 -147 661 -115 q 704 -217 704 -179 q 681 -290 704 -258 q 623 -340 658 -322 q 547 -358 588 -358 m 247 1032 l 418 1378 l 675 1378 l 846 1032 l 615 1032 l 563 1179 l 546 1232 l 532 1179 l 478 1032 l 247 1032 z "},"Ồ":{"ha":1094,"x_min":36,"x_max":1058,"o":"m 547 -22 q 281 42 396 -22 q 101 218 165 106 q 36 476 36 331 q 101 736 36 624 q 281 913 165 849 q 547 976 396 976 q 814 913 699 976 q 994 738 929 850 q 1058 476 1058 625 q 994 218 1058 331 q 814 42 929 106 q 547 -22 699 -22 m 547 231 q 691 299 635 231 q 747 478 747 367 q 722 610 747 553 q 651 699 696 667 q 546 732 606 732 q 403 662 458 732 q 347 478 347 592 q 403 299 347 367 q 547 231 458 231 m 833 1222 l 508 1506 l 686 1643 l 928 1301 l 833 1222 m 249 1032 l 419 1307 l 676 1307 l 847 1032 l 621 1032 l 549 1172 l 475 1032 l 249 1032 z "},"Ổ":{"ha":1094,"x_min":36,"x_max":1058,"o":"m 547 -22 q 281 42 396 -22 q 101 218 165 106 q 36 476 36 331 q 101 736 36 624 q 281 913 165 849 q 547 976 396 976 q 814 913 699 976 q 994 738 929 850 q 1058 476 1058 625 q 994 218 1058 331 q 814 42 929 106 q 547 -22 699 -22 m 547 231 q 691 299 635 231 q 747 478 747 367 q 722 610 747 553 q 651 699 696 667 q 546 732 606 732 q 403 662 458 732 q 347 478 347 592 q 403 299 347 367 q 547 231 458 231 m 764 1222 q 778 1282 764 1260 q 811 1319 793 1304 q 844 1350 829 1335 q 858 1388 858 1365 q 845 1413 858 1403 q 801 1422 832 1422 q 756 1417 779 1422 q 704 1401 732 1411 l 693 1517 q 774 1537 729 1529 q 864 1544 818 1544 q 1007 1509 965 1544 q 1049 1419 1049 1474 q 1032 1349 1049 1375 q 993 1304 1015 1322 q 954 1268 971 1286 q 938 1222 938 1250 l 764 1222 m 249 1032 l 419 1307 l 676 1307 l 847 1032 l 621 1032 l 549 1172 l 475 1032 l 249 1032 z "},"Ỗ":{"ha":1094,"x_min":36,"x_max":1058,"o":"m 547 -22 q 281 42 396 -22 q 101 218 165 106 q 36 476 36 331 q 101 736 36 624 q 281 913 165 849 q 547 976 396 976 q 814 913 699 976 q 994 738 929 850 q 1058 476 1058 625 q 994 218 1058 331 q 814 42 929 106 q 547 -22 699 -22 m 547 231 q 691 299 635 231 q 747 478 747 367 q 722 610 747 553 q 651 699 696 667 q 546 732 606 732 q 403 662 458 732 q 347 478 347 592 q 403 299 347 367 q 547 231 458 231 m 389 1369 l 261 1426 q 348 1565 296 1519 q 464 1611 400 1611 q 528 1598 500 1611 q 581 1572 556 1585 q 636 1558 607 1558 q 672 1572 656 1558 q 706 1613 688 1586 l 833 1557 q 747 1417 799 1464 q 631 1371 694 1371 q 567 1384 596 1371 q 513 1410 539 1397 q 458 1424 488 1424 q 423 1410 439 1424 q 389 1369 407 1397 m 249 1032 l 419 1307 l 676 1307 l 847 1032 l 621 1032 l 549 1172 l 475 1032 l 249 1032 z "},"Ȍ":{"ha":1094,"x_min":36,"x_max":1058,"o":"m 547 -22 q 281 42 396 -22 q 101 218 165 106 q 36 476 36 331 q 101 736 36 624 q 281 913 165 849 q 547 976 396 976 q 814 913 699 976 q 994 738 929 850 q 1058 476 1058 625 q 994 218 1058 331 q 814 42 929 106 q 547 -22 699 -22 m 547 231 q 691 299 635 231 q 747 478 747 367 q 722 610 747 553 q 651 699 696 667 q 546 732 606 732 q 403 662 458 732 q 347 478 347 592 q 403 299 347 367 q 547 231 458 231 m 367 1018 l 153 1365 l 371 1454 l 515 1071 l 367 1018 m 626 1019 l 468 1396 l 699 1451 l 783 1051 l 626 1019 z "},"Ö":{"ha":1094,"x_min":36,"x_max":1058,"o":"m 547 -22 q 281 42 396 -22 q 101 218 165 106 q 36 476 36 331 q 101 736 36 624 q 281 913 165 849 q 547 976 396 976 q 814 913 699 976 q 994 738 929 850 q 1058 476 1058 625 q 994 218 1058 331 q 814 42 929 106 q 547 -22 699 -22 m 547 231 q 691 299 635 231 q 747 478 747 367 q 722 610 747 553 q 651 699 696 667 q 546 732 606 732 q 403 662 458 732 q 347 478 347 592 q 403 299 347 367 q 547 231 458 231 m 351 1018 q 242 1058 288 1018 q 196 1157 196 1099 q 218 1229 196 1197 q 276 1280 240 1261 q 351 1299 311 1299 q 430 1279 394 1299 q 487 1227 465 1260 q 508 1157 508 1194 q 485 1084 508 1115 q 427 1035 463 1053 q 351 1018 392 1018 m 744 1018 q 631 1060 675 1018 q 588 1157 588 1103 q 610 1231 588 1199 q 669 1281 633 1263 q 744 1299 706 1299 q 826 1277 792 1299 q 880 1224 861 1256 q 899 1157 899 1192 q 877 1085 899 1117 q 820 1036 856 1054 q 744 1018 785 1018 z "},"Ȫ":{"ha":1094,"x_min":36,"x_max":1058,"o":"m 547 -22 q 281 42 396 -22 q 101 218 165 106 q 36 476 36 331 q 101 736 36 624 q 281 913 165 849 q 547 976 396 976 q 814 913 699 976 q 994 738 929 850 q 1058 476 1058 625 q 994 218 1058 331 q 814 42 929 106 q 547 -22 699 -22 m 547 231 q 691 299 635 231 q 747 478 747 367 q 722 610 747 553 q 651 699 696 667 q 546 732 606 732 q 403 662 458 732 q 347 478 347 592 q 403 299 347 367 q 547 231 458 231 m 351 1018 q 242 1058 288 1018 q 196 1157 196 1099 q 218 1229 196 1197 q 276 1280 240 1261 q 351 1299 311 1299 q 430 1279 394 1299 q 487 1227 465 1260 q 508 1157 508 1194 q 485 1084 508 1115 q 427 1035 463 1053 q 351 1018 392 1018 m 744 1018 q 631 1060 675 1018 q 588 1157 588 1103 q 610 1231 588 1199 q 669 1281 633 1263 q 744 1299 706 1299 q 826 1277 792 1299 q 880 1224 861 1256 q 899 1157 899 1192 q 877 1085 899 1117 q 820 1036 856 1054 q 744 1018 785 1018 m 313 1351 l 313 1529 l 796 1529 l 796 1351 l 313 1351 z "},"Ȱ":{"ha":1094,"x_min":36,"x_max":1058,"o":"m 547 -22 q 281 42 396 -22 q 101 218 165 106 q 36 476 36 331 q 101 736 36 624 q 281 913 165 849 q 547 976 396 976 q 814 913 699 976 q 994 738 929 850 q 1058 476 1058 625 q 994 218 1058 331 q 814 42 929 106 q 547 -22 699 -22 m 547 231 q 691 299 635 231 q 747 478 747 367 q 722 610 747 553 q 651 699 696 667 q 546 732 606 732 q 403 662 458 732 q 347 478 347 592 q 403 299 347 367 q 547 231 458 231 m 547 1018 q 438 1059 483 1018 q 392 1160 392 1100 q 414 1233 392 1201 q 472 1282 436 1264 q 547 1300 508 1300 q 626 1281 590 1300 q 683 1229 661 1261 q 704 1160 704 1197 q 681 1086 704 1118 q 623 1036 658 1054 q 547 1018 588 1018 m 313 1351 l 313 1529 l 796 1529 l 796 1351 l 313 1351 z "},"Ọ":{"ha":1094,"x_min":36,"x_max":1058,"o":"m 547 -22 q 281 42 396 -22 q 101 218 165 106 q 36 476 36 331 q 101 736 36 624 q 281 913 165 849 q 547 976 396 976 q 814 913 699 976 q 994 738 929 850 q 1058 476 1058 625 q 994 218 1058 331 q 814 42 929 106 q 547 -22 699 -22 m 547 231 q 691 299 635 231 q 747 478 747 367 q 722 610 747 553 q 651 699 696 667 q 546 732 606 732 q 403 662 458 732 q 347 478 347 592 q 403 299 347 367 q 547 231 458 231 m 547 -358 q 438 -317 483 -358 q 392 -217 392 -276 q 414 -144 392 -176 q 472 -94 436 -112 q 547 -76 508 -76 q 626 -96 590 -76 q 683 -147 661 -115 q 704 -217 704 -179 q 681 -290 704 -258 q 623 -340 658 -322 q 547 -358 588 -358 z "},"Ò":{"ha":1094,"x_min":36,"x_max":1058,"o":"m 547 -22 q 281 42 396 -22 q 101 218 165 106 q 36 476 36 331 q 101 736 36 624 q 281 913 165 849 q 547 976 396 976 q 814 913 699 976 q 994 738 929 850 q 1058 476 1058 625 q 994 218 1058 331 q 814 42 929 106 q 547 -22 699 -22 m 547 231 q 691 299 635 231 q 747 478 747 367 q 722 610 747 553 q 651 699 696 667 q 546 732 606 732 q 403 662 458 732 q 347 478 347 592 q 403 299 347 367 q 547 231 458 231 m 632 1018 l 169 1203 l 310 1451 l 717 1167 l 632 1018 z "},"Ỏ":{"ha":1094,"x_min":36,"x_max":1058,"o":"m 547 -22 q 281 42 396 -22 q 101 218 165 106 q 36 476 36 331 q 101 736 36 624 q 281 913 165 849 q 547 976 396 976 q 814 913 699 976 q 994 738 929 850 q 1058 476 1058 625 q 994 218 1058 331 q 814 42 929 106 q 547 -22 699 -22 m 547 231 q 691 299 635 231 q 747 478 747 367 q 722 610 747 553 q 651 699 696 667 q 546 732 606 732 q 403 662 458 732 q 347 478 347 592 q 403 299 347 367 q 547 231 458 231 m 463 1046 q 460 1067 461 1057 q 458 1094 458 1078 q 473 1147 458 1128 q 506 1181 488 1167 q 538 1211 524 1196 q 553 1249 553 1226 q 540 1274 553 1264 q 496 1283 526 1283 q 450 1278 474 1283 q 399 1263 426 1272 l 388 1378 q 468 1398 424 1390 q 558 1406 513 1406 q 701 1370 660 1406 q 743 1281 743 1335 q 726 1209 743 1236 q 688 1163 710 1182 q 649 1124 665 1144 q 632 1069 632 1103 l 632 1046 l 463 1046 z "},"Ơ":{"ha":1094,"x_min":36,"x_max":1086,"o":"m 547 -22 q 281 42 396 -22 q 101 218 165 106 q 36 476 36 331 q 101 736 36 624 q 281 913 165 849 q 547 976 396 976 q 639 972 601 976 q 713 962 676 967 q 793 957 749 957 q 874 967 846 957 q 913 1008 901 976 q 924 1100 924 1039 l 1086 1100 q 1048 914 1086 974 q 922 832 1010 854 q 1058 476 1058 688 q 994 218 1058 331 q 814 42 929 106 q 547 -22 699 -22 m 547 231 q 691 299 635 231 q 747 478 747 367 q 722 610 747 553 q 651 699 696 667 q 546 732 606 732 q 443 699 488 732 q 373 610 399 667 q 347 478 347 553 q 403 299 347 367 q 547 231 458 231 z "},"Ớ":{"ha":1094,"x_min":36,"x_max":1086,"o":"m 547 -22 q 281 42 396 -22 q 101 218 165 106 q 36 476 36 331 q 101 736 36 624 q 281 913 165 849 q 547 976 396 976 q 639 972 601 976 q 713 962 676 967 q 793 957 749 957 q 874 967 846 957 q 913 1008 901 976 q 924 1100 924 1039 l 1086 1100 q 1048 914 1086 974 q 922 832 1010 854 q 1058 476 1058 688 q 994 218 1058 331 q 814 42 929 106 q 547 -22 699 -22 m 547 231 q 691 299 635 231 q 747 478 747 367 q 722 610 747 553 q 651 699 696 667 q 546 732 606 732 q 443 699 488 732 q 373 610 399 667 q 347 478 347 553 q 403 299 347 367 q 547 231 458 231 m 461 1018 l 376 1167 l 783 1451 l 924 1203 l 461 1018 z "},"Ợ":{"ha":1094,"x_min":36,"x_max":1086,"o":"m 547 -22 q 281 42 396 -22 q 101 218 165 106 q 36 476 36 331 q 101 736 36 624 q 281 913 165 849 q 547 976 396 976 q 639 972 601 976 q 713 962 676 967 q 793 957 749 957 q 874 967 846 957 q 913 1008 901 976 q 924 1100 924 1039 l 1086 1100 q 1048 914 1086 974 q 922 832 1010 854 q 1058 476 1058 688 q 994 218 1058 331 q 814 42 929 106 q 547 -22 699 -22 m 547 231 q 691 299 635 231 q 747 478 747 367 q 722 610 747 553 q 651 699 696 667 q 546 732 606 732 q 443 699 488 732 q 373 610 399 667 q 347 478 347 553 q 403 299 347 367 q 547 231 458 231 m 547 -358 q 438 -317 483 -358 q 392 -217 392 -276 q 414 -144 392 -176 q 472 -94 436 -112 q 547 -76 508 -76 q 626 -96 590 -76 q 683 -147 661 -115 q 704 -217 704 -179 q 681 -290 704 -258 q 623 -340 658 -322 q 547 -358 588 -358 z "},"Ờ":{"ha":1094,"x_min":36,"x_max":1086,"o":"m 547 -22 q 281 42 396 -22 q 101 218 165 106 q 36 476 36 331 q 101 736 36 624 q 281 913 165 849 q 547 976 396 976 q 639 972 601 976 q 713 962 676 967 q 793 957 749 957 q 874 967 846 957 q 913 1008 901 976 q 924 1100 924 1039 l 1086 1100 q 1048 914 1086 974 q 922 832 1010 854 q 1058 476 1058 688 q 994 218 1058 331 q 814 42 929 106 q 547 -22 699 -22 m 547 231 q 691 299 635 231 q 747 478 747 367 q 722 610 747 553 q 651 699 696 667 q 546 732 606 732 q 443 699 488 732 q 373 610 399 667 q 347 478 347 553 q 403 299 347 367 q 547 231 458 231 m 631 1018 l 168 1203 l 308 1451 l 715 1167 l 631 1018 z "},"Ở":{"ha":1094,"x_min":36,"x_max":1086,"o":"m 547 -22 q 281 42 396 -22 q 101 218 165 106 q 36 476 36 331 q 101 736 36 624 q 281 913 165 849 q 547 976 396 976 q 639 972 601 976 q 713 962 676 967 q 793 957 749 957 q 874 967 846 957 q 913 1008 901 976 q 924 1100 924 1039 l 1086 1100 q 1048 914 1086 974 q 922 832 1010 854 q 1058 476 1058 688 q 994 218 1058 331 q 814 42 929 106 q 547 -22 699 -22 m 547 231 q 691 299 635 231 q 747 478 747 367 q 722 610 747 553 q 651 699 696 667 q 546 732 606 732 q 443 699 488 732 q 373 610 399 667 q 347 478 347 553 q 403 299 347 367 q 547 231 458 231 m 461 1046 q 458 1067 460 1057 q 457 1094 457 1078 q 472 1147 457 1128 q 504 1181 486 1167 q 537 1211 522 1196 q 551 1249 551 1226 q 538 1274 551 1264 q 494 1283 525 1283 q 449 1278 472 1283 q 397 1263 425 1272 l 386 1378 q 467 1398 422 1390 q 557 1406 511 1406 q 700 1370 658 1406 q 742 1281 742 1335 q 725 1209 742 1236 q 686 1163 708 1182 q 647 1124 664 1144 q 631 1069 631 1103 l 631 1046 l 461 1046 z "},"Ỡ":{"ha":1094,"x_min":36,"x_max":1086,"o":"m 547 -22 q 281 42 396 -22 q 101 218 165 106 q 36 476 36 331 q 101 736 36 624 q 281 913 165 849 q 547 976 396 976 q 639 972 601 976 q 713 962 676 967 q 793 957 749 957 q 874 967 846 957 q 913 1008 901 976 q 924 1100 924 1039 l 1086 1100 q 1048 914 1086 974 q 922 832 1010 854 q 1058 476 1058 688 q 994 218 1058 331 q 814 42 929 106 q 547 -22 699 -22 m 547 231 q 691 299 635 231 q 747 478 747 367 q 722 610 747 553 q 651 699 696 667 q 546 732 606 732 q 443 699 488 732 q 373 610 399 667 q 347 478 347 553 q 403 299 347 367 q 547 231 458 231 m 358 1021 l 208 1088 q 310 1251 249 1197 q 447 1306 372 1306 q 522 1289 489 1306 q 585 1256 554 1272 q 650 1239 615 1239 q 692 1258 674 1239 q 732 1307 711 1276 l 882 1242 q 781 1077 843 1132 q 643 1022 718 1022 q 569 1039 601 1022 q 506 1072 536 1056 q 440 1089 475 1089 q 399 1071 418 1089 q 358 1021 379 1053 z "},"Ő":{"ha":1094,"x_min":36,"x_max":1058,"o":"m 547 -22 q 281 42 396 -22 q 101 218 165 106 q 36 476 36 331 q 101 736 36 624 q 281 913 165 849 q 547 976 396 976 q 814 913 699 976 q 994 738 929 850 q 1058 476 1058 625 q 994 218 1058 331 q 814 42 929 106 q 547 -22 699 -22 m 547 231 q 691 299 635 231 q 747 478 747 367 q 722 610 747 553 q 651 699 696 667 q 546 732 606 732 q 403 662 458 732 q 347 478 347 592 q 403 299 347 367 q 547 231 458 231 m 728 1018 l 579 1071 l 724 1454 l 942 1365 l 728 1018 m 468 1019 l 311 1051 l 396 1451 l 626 1396 l 468 1019 z "},"Ȏ":{"ha":1094,"x_min":36,"x_max":1058,"o":"m 547 -22 q 281 42 396 -22 q 101 218 165 106 q 36 476 36 331 q 101 736 36 624 q 281 913 165 849 q 547 976 396 976 q 814 913 699 976 q 994 738 929 850 q 1058 476 1058 625 q 994 218 1058 331 q 814 42 929 106 q 547 -22 699 -22 m 547 231 q 691 299 635 231 q 747 478 747 367 q 722 610 747 553 q 651 699 696 667 q 546 732 606 732 q 403 662 458 732 q 347 478 347 592 q 403 299 347 367 q 547 231 458 231 m 274 1032 q 354 1306 279 1221 q 546 1390 429 1390 q 738 1304 663 1390 q 819 1032 814 1218 l 624 1032 q 602 1176 624 1135 q 546 1217 581 1217 q 492 1176 511 1217 q 472 1032 472 1136 l 274 1032 z "},"Ō":{"ha":1094,"x_min":36,"x_max":1058,"o":"m 547 -22 q 281 42 396 -22 q 101 218 165 106 q 36 476 36 331 q 101 736 36 624 q 281 913 165 849 q 547 976 396 976 q 814 913 699 976 q 994 738 929 850 q 1058 476 1058 625 q 994 218 1058 331 q 814 42 929 106 q 547 -22 699 -22 m 547 231 q 691 299 635 231 q 747 478 747 367 q 722 610 747 553 q 651 699 696 667 q 546 732 606 732 q 403 662 458 732 q 347 478 347 592 q 403 299 347 367 q 547 231 458 231 m 306 1032 l 306 1210 l 789 1210 l 789 1032 l 306 1032 z "},"Ǫ":{"ha":1094,"x_min":36,"x_max":1058,"o":"m 618 -331 q 483 -296 529 -331 q 436 -206 436 -261 q 468 -110 436 -157 q 576 -22 500 -64 l 547 -22 q 281 42 396 -22 q 101 218 165 106 q 36 476 36 331 q 101 736 36 624 q 281 913 165 849 q 547 976 396 976 q 814 913 699 976 q 994 738 929 850 q 1058 476 1058 625 q 998 227 1058 338 q 832 53 938 117 q 694 -44 740 -1 q 631 -120 647 -87 q 614 -181 614 -153 q 681 -237 614 -237 q 746 -225 708 -237 l 746 -306 q 681 -325 714 -319 q 618 -331 649 -331 m 547 231 q 691 299 635 231 q 747 478 747 367 q 722 610 747 553 q 651 699 696 667 q 546 732 606 732 q 443 699 488 732 q 373 610 399 667 q 347 478 347 553 q 403 299 347 367 q 547 231 458 231 z "},"Ø":{"ha":1094,"x_min":36,"x_max":1058,"o":"m 547 -22 q 281 42 396 -22 q 101 218 165 106 q 36 476 36 331 q 101 736 36 624 q 281 913 165 849 q 547 976 396 976 q 814 913 699 976 q 994 738 929 850 q 1058 476 1058 625 q 994 218 1058 331 q 814 42 929 106 q 547 -22 699 -22 m 547 231 q 691 299 635 231 q 747 478 747 367 q 722 610 747 553 q 651 699 696 667 q 546 732 606 732 q 403 662 458 732 q 347 478 347 592 q 403 299 347 367 q 547 231 458 231 m 300 -175 l 675 1129 l 793 1129 l 418 -175 l 300 -175 z "},"Ǿ":{"ha":1094,"x_min":36,"x_max":1058,"o":"m 547 -22 q 281 42 396 -22 q 101 218 165 106 q 36 476 36 331 q 101 736 36 624 q 281 913 165 849 q 547 976 396 976 q 814 913 699 976 q 994 738 929 850 q 1058 476 1058 625 q 994 218 1058 331 q 814 42 929 106 q 547 -22 699 -22 m 547 231 q 691 299 635 231 q 747 478 747 367 q 722 610 747 553 q 651 699 696 667 q 546 732 606 732 q 403 662 458 732 q 347 478 347 592 q 403 299 347 367 q 547 231 458 231 m 300 -175 l 675 1129 l 793 1129 l 418 -175 l 300 -175 m 457 1088 l 372 1236 l 779 1521 l 919 1272 l 457 1088 z "},"Õ":{"ha":1094,"x_min":36,"x_max":1058,"o":"m 547 -22 q 281 42 396 -22 q 101 218 165 106 q 36 476 36 331 q 101 736 36 624 q 281 913 165 849 q 547 976 396 976 q 814 913 699 976 q 994 738 929 850 q 1058 476 1058 625 q 994 218 1058 331 q 814 42 929 106 q 547 -22 699 -22 m 547 231 q 691 299 635 231 q 747 478 747 367 q 722 610 747 553 q 651 699 696 667 q 546 732 606 732 q 403 662 458 732 q 347 478 347 592 q 403 299 347 367 q 547 231 458 231 m 360 1021 l 210 1088 q 312 1251 250 1197 q 449 1306 374 1306 q 523 1289 490 1306 q 586 1256 556 1272 q 651 1239 617 1239 q 694 1258 675 1239 q 733 1307 713 1276 l 883 1242 q 782 1077 844 1132 q 644 1022 719 1022 q 570 1039 603 1022 q 507 1072 538 1056 q 442 1089 476 1089 q 400 1071 419 1089 q 360 1021 381 1053 z "},"Ȭ":{"ha":1094,"x_min":36,"x_max":1058,"o":"m 547 -22 q 281 42 396 -22 q 101 218 165 106 q 36 476 36 331 q 101 736 36 624 q 281 913 165 849 q 547 976 396 976 q 814 913 699 976 q 994 738 929 850 q 1058 476 1058 625 q 994 218 1058 331 q 814 42 929 106 q 547 -22 699 -22 m 547 231 q 691 299 635 231 q 747 478 747 367 q 722 610 747 553 q 651 699 696 667 q 546 732 606 732 q 403 662 458 732 q 347 478 347 592 q 403 299 347 367 q 547 231 458 231 m 360 1021 l 210 1088 q 312 1251 250 1197 q 449 1306 374 1306 q 523 1289 490 1306 q 586 1256 556 1272 q 651 1239 617 1239 q 694 1258 675 1239 q 733 1307 713 1276 l 883 1242 q 782 1077 844 1132 q 644 1022 719 1022 q 570 1039 603 1022 q 507 1072 538 1056 q 442 1089 476 1089 q 400 1071 419 1089 q 360 1021 381 1053 m 313 1351 l 313 1529 l 796 1529 l 796 1351 l 313 1351 z "},"Œ":{"ha":1400,"x_min":36,"x_max":1351,"o":"m 465 -22 q 238 43 335 -22 q 89 221 142 108 q 36 475 36 333 q 68 673 36 582 q 159 832 100 764 q 299 938 218 900 q 476 976 379 976 q 685 910 597 976 l 685 956 l 1351 956 l 1351 744 l 1018 744 l 1018 575 l 1322 575 l 1322 400 l 1018 400 l 1018 218 l 1351 218 l 1351 0 l 681 0 l 681 46 q 576 -4 635 14 q 465 -22 517 -22 m 544 229 q 616 238 582 229 q 681 265 650 246 l 681 694 q 618 722 650 714 q 558 731 586 731 q 406 663 465 731 q 347 478 347 594 q 399 295 347 361 q 544 229 451 229 z "},"P":{"ha":899,"x_min":76,"x_max":876,"o":"m 76 0 l 76 957 l 400 957 q 756 880 636 957 q 876 653 876 803 q 824 476 876 549 q 678 365 772 403 q 456 326 583 326 l 383 326 l 383 0 l 76 0 m 443 519 q 557 550 517 519 q 597 642 597 581 q 558 727 597 699 q 446 756 519 756 l 383 756 l 383 519 l 443 519 z "},"Þ":{"ha":899,"x_min":76,"x_max":876,"o":"m 400 832 q 756 755 636 832 q 876 528 876 678 q 824 351 876 424 q 678 240 772 278 q 456 201 583 201 l 383 201 l 383 0 l 76 0 l 76 956 l 383 956 l 383 832 l 400 832 m 443 394 q 557 425 517 394 q 597 517 597 456 q 558 602 597 574 q 446 631 519 631 l 383 631 l 383 394 l 443 394 z "},"Q":{"ha":1094,"x_min":36,"x_max":1140,"o":"m 928 -250 l 576 -19 q 546 -22 560 -22 q 281 42 396 -22 q 101 218 165 106 q 36 476 36 331 q 101 736 36 624 q 281 913 165 849 q 547 976 396 976 q 814 913 699 976 q 994 738 929 850 q 1058 476 1058 625 q 1013 260 1058 363 q 881 85 968 158 l 1140 -85 l 928 -250 m 547 231 q 691 299 635 231 q 747 478 747 367 q 722 610 747 553 q 651 699 696 667 q 546 732 606 732 q 403 662 458 732 q 347 478 347 592 q 403 299 347 367 q 547 231 458 231 z "},"R":{"ha":939,"x_min":76,"x_max":931,"o":"m 800 -22 q 635 8 700 -22 q 531 90 569 38 q 472 214 492 143 q 446 367 453 285 l 381 367 l 381 0 l 76 0 l 76 956 l 469 956 q 798 876 697 956 q 899 660 899 796 q 854 513 899 578 q 711 406 810 449 q 721 356 717 375 q 733 313 725 336 q 778 243 751 263 q 853 224 806 224 q 914 232 883 224 l 931 4 q 872 -15 903 -7 q 800 -22 840 -22 m 381 557 l 433 557 q 578 580 536 557 q 621 658 621 603 q 586 727 621 706 q 476 749 551 749 l 381 749 l 381 557 z "},"Ŕ":{"ha":939,"x_min":76,"x_max":931,"o":"m 800 -22 q 635 8 700 -22 q 531 90 569 38 q 472 214 492 143 q 446 367 453 285 l 381 367 l 381 0 l 76 0 l 76 956 l 469 956 q 798 876 697 956 q 899 660 899 796 q 854 513 899 578 q 711 406 810 449 q 721 356 717 375 q 733 313 725 336 q 778 243 751 263 q 853 224 806 224 q 914 232 883 224 l 931 4 q 872 -15 903 -7 q 800 -22 840 -22 m 381 557 l 433 557 q 578 580 536 557 q 621 658 621 603 q 586 727 621 706 q 476 749 551 749 l 381 749 l 381 557 m 386 1018 l 301 1167 l 708 1451 l 849 1203 l 386 1018 z "},"Ř":{"ha":939,"x_min":76,"x_max":931,"o":"m 800 -22 q 635 8 700 -22 q 531 90 569 38 q 472 214 492 143 q 446 367 453 285 l 381 367 l 381 0 l 76 0 l 76 956 l 469 956 q 798 876 697 956 q 899 660 899 796 q 854 513 899 578 q 711 406 810 449 q 721 356 717 375 q 733 313 725 336 q 778 243 751 263 q 853 224 806 224 q 914 232 883 224 l 931 4 q 872 -15 903 -7 q 800 -22 840 -22 m 381 557 l 433 557 q 578 580 536 557 q 621 658 621 603 q 586 727 621 706 q 476 749 551 749 l 381 749 l 381 557 m 342 1032 l 171 1378 l 401 1378 l 456 1229 l 469 1175 q 491 1238 478 1200 q 517 1314 504 1275 q 539 1378 531 1353 l 769 1378 l 599 1032 l 342 1032 z "},"Ŗ":{"ha":939,"x_min":76,"x_max":931,"o":"m 800 -22 q 635 8 700 -22 q 531 90 569 38 q 472 214 492 143 q 446 367 453 285 l 381 367 l 381 0 l 76 0 l 76 956 l 469 956 q 798 876 697 956 q 899 660 899 796 q 854 513 899 578 q 711 406 810 449 q 721 356 717 375 q 733 313 725 336 q 778 243 751 263 q 853 224 806 224 q 914 232 883 224 l 931 4 q 872 -15 903 -7 q 800 -22 840 -22 m 381 557 l 433 557 q 578 580 536 557 q 621 658 621 603 q 586 727 621 706 q 476 749 551 749 l 381 749 l 381 557 m 342 -487 l 342 -375 q 426 -360 403 -375 q 453 -312 449 -344 l 342 -312 l 342 -90 l 599 -90 l 599 -211 q 541 -423 599 -358 q 342 -487 483 -487 z "},"Ȑ":{"ha":939,"x_min":76,"x_max":931,"o":"m 800 -22 q 635 8 700 -22 q 531 90 569 38 q 472 214 492 143 q 446 367 453 285 l 381 367 l 381 0 l 76 0 l 76 956 l 469 956 q 798 876 697 956 q 899 660 899 796 q 854 513 899 578 q 711 406 810 449 q 721 356 717 375 q 733 313 725 336 q 778 243 751 263 q 853 224 806 224 q 914 232 883 224 l 931 4 q 872 -15 903 -7 q 800 -22 840 -22 m 381 557 l 433 557 q 578 580 536 557 q 621 658 621 603 q 586 727 621 706 q 476 749 551 749 l 381 749 l 381 557 m 290 1018 l 76 1365 l 294 1454 l 439 1071 l 290 1018 m 550 1019 l 392 1396 l 622 1451 l 707 1051 l 550 1019 z "},"Ȓ":{"ha":939,"x_min":76,"x_max":931,"o":"m 800 -22 q 635 8 700 -22 q 531 90 569 38 q 472 214 492 143 q 446 367 453 285 l 381 367 l 381 0 l 76 0 l 76 956 l 469 956 q 798 876 697 956 q 899 660 899 796 q 854 513 899 578 q 711 406 810 449 q 721 356 717 375 q 733 313 725 336 q 778 243 751 263 q 853 224 806 224 q 914 232 883 224 l 931 4 q 872 -15 903 -7 q 800 -22 840 -22 m 381 557 l 433 557 q 578 580 536 557 q 621 658 621 603 q 586 727 621 706 q 476 749 551 749 l 381 749 l 381 557 m 197 1032 q 278 1306 203 1221 q 469 1390 353 1390 q 662 1304 586 1390 q 743 1032 738 1218 l 547 1032 q 526 1176 547 1135 q 469 1217 504 1217 q 415 1176 435 1217 q 396 1032 396 1136 l 197 1032 z "},"S":{"ha":782,"x_min":36,"x_max":764,"o":"m 368 -22 q 190 -1 281 -22 q 38 57 100 21 l 88 283 q 238 227 168 240 q 368 214 308 214 q 452 232 424 214 q 481 281 481 250 q 449 324 481 308 q 366 354 417 340 q 258 387 315 368 q 151 437 201 406 q 68 520 100 468 q 36 651 36 572 q 85 824 36 751 q 224 937 133 897 q 436 976 314 976 q 597 955 518 976 q 722 897 675 933 l 675 693 q 548 735 604 722 q 442 749 492 749 q 353 732 383 749 q 322 688 322 715 q 354 644 322 661 q 436 613 386 628 q 543 578 486 597 q 650 526 600 558 q 732 443 700 494 q 764 314 764 392 q 659 65 764 153 q 368 -22 554 -22 z "},"Ś":{"ha":782,"x_min":36,"x_max":799,"o":"m 368 -22 q 190 -1 281 -22 q 38 57 100 21 l 88 283 q 238 227 168 240 q 368 214 308 214 q 452 232 424 214 q 481 281 481 250 q 449 324 481 308 q 366 354 417 340 q 258 387 315 368 q 151 437 201 406 q 68 520 100 468 q 36 651 36 572 q 85 824 36 751 q 224 937 133 897 q 436 976 314 976 q 597 955 518 976 q 722 897 675 933 l 675 693 q 548 735 604 722 q 442 749 492 749 q 353 732 383 749 q 322 688 322 715 q 354 644 322 661 q 436 613 386 628 q 543 578 486 597 q 650 526 600 558 q 732 443 700 494 q 764 314 764 392 q 659 65 764 153 q 368 -22 554 -22 m 336 1018 l 251 1167 l 658 1451 l 799 1203 l 336 1018 z "},"Š":{"ha":782,"x_min":36,"x_max":764,"o":"m 368 -22 q 190 -1 281 -22 q 38 57 100 21 l 88 283 q 238 227 168 240 q 368 214 308 214 q 452 232 424 214 q 481 281 481 250 q 449 324 481 308 q 366 354 417 340 q 258 387 315 368 q 151 437 201 406 q 68 520 100 468 q 36 651 36 572 q 85 824 36 751 q 224 937 133 897 q 436 976 314 976 q 597 955 518 976 q 722 897 675 933 l 675 693 q 548 735 604 722 q 442 749 492 749 q 353 732 383 749 q 322 688 322 715 q 354 644 322 661 q 436 613 386 628 q 543 578 486 597 q 650 526 600 558 q 732 443 700 494 q 764 314 764 392 q 659 65 764 153 q 368 -22 554 -22 m 292 1032 l 121 1378 l 351 1378 l 406 1229 l 419 1175 q 441 1238 428 1200 q 467 1314 454 1275 q 489 1378 481 1353 l 719 1378 l 549 1032 l 292 1032 z "},"Ş":{"ha":782,"x_min":36,"x_max":764,"o":"m 368 -22 q 190 -1 281 -22 q 38 57 100 21 l 88 283 q 238 227 168 240 q 368 214 308 214 q 452 232 424 214 q 481 281 481 250 q 449 324 481 308 q 366 354 417 340 q 258 387 315 368 q 151 437 201 406 q 68 520 100 468 q 36 651 36 572 q 85 824 36 751 q 224 937 133 897 q 436 976 314 976 q 597 955 518 976 q 722 897 675 933 l 675 693 q 548 735 604 722 q 442 749 492 749 q 353 732 383 749 q 322 688 322 715 q 354 644 322 661 q 436 613 386 628 q 543 578 486 597 q 650 526 600 558 q 732 443 700 494 q 764 314 764 392 q 659 65 764 153 q 368 -22 554 -22 m 388 -344 q 322 -338 356 -344 q 261 -319 289 -332 l 261 -240 q 298 -249 281 -246 q 328 -251 315 -251 q 385 -235 364 -251 q 407 -186 407 -218 q 385 -142 407 -158 q 326 -121 363 -126 l 382 42 l 488 42 l 453 -62 q 549 -113 521 -81 q 578 -194 578 -146 q 526 -303 578 -262 q 388 -344 475 -344 z "},"Ŝ":{"ha":782,"x_min":36,"x_max":764,"o":"m 368 -22 q 190 -1 281 -22 q 38 57 100 21 l 88 283 q 238 227 168 240 q 368 214 308 214 q 452 232 424 214 q 481 281 481 250 q 449 324 481 308 q 366 354 417 340 q 258 387 315 368 q 151 437 201 406 q 68 520 100 468 q 36 651 36 572 q 85 824 36 751 q 224 937 133 897 q 436 976 314 976 q 597 955 518 976 q 722 897 675 933 l 675 693 q 548 735 604 722 q 442 749 492 749 q 353 732 383 749 q 322 688 322 715 q 354 644 322 661 q 436 613 386 628 q 543 578 486 597 q 650 526 600 558 q 732 443 700 494 q 764 314 764 392 q 659 65 764 153 q 368 -22 554 -22 m 121 1032 l 292 1378 l 549 1378 l 719 1032 l 489 1032 l 436 1179 l 419 1232 l 406 1179 l 351 1032 l 121 1032 z "},"Ș":{"ha":782,"x_min":36,"x_max":764,"o":"m 368 -22 q 190 -1 281 -22 q 38 57 100 21 l 88 283 q 238 227 168 240 q 368 214 308 214 q 452 232 424 214 q 481 281 481 250 q 449 324 481 308 q 366 354 417 340 q 258 387 315 368 q 151 437 201 406 q 68 520 100 468 q 36 651 36 572 q 85 824 36 751 q 224 937 133 897 q 436 976 314 976 q 597 955 518 976 q 722 897 675 933 l 675 693 q 548 735 604 722 q 442 749 492 749 q 353 732 383 749 q 322 688 322 715 q 354 644 322 661 q 436 613 386 628 q 543 578 486 597 q 650 526 600 558 q 732 443 700 494 q 764 314 764 392 q 659 65 764 153 q 368 -22 554 -22 m 292 -487 l 292 -375 q 376 -360 353 -375 q 403 -312 399 -344 l 292 -312 l 292 -90 l 549 -90 l 549 -211 q 491 -423 549 -358 q 292 -487 433 -487 z "},"ẞ":{"ha":1022,"x_min":76,"x_max":988,"o":"m 603 -24 q 510 -19 544 -24 q 454 -8 476 -14 l 468 208 q 560 199 515 199 q 642 227 608 199 q 676 306 676 256 q 631 397 676 358 q 481 439 585 435 l 481 615 q 559 650 536 626 q 582 708 582 674 q 558 749 582 733 q 485 764 533 764 q 438 761 463 764 q 386 751 413 758 l 386 0 l 76 0 l 76 918 q 279 962 181 947 q 478 976 378 976 q 772 919 674 976 q 869 769 869 863 q 835 653 869 706 q 721 558 801 601 q 876 488 817 533 q 961 388 935 443 q 988 278 988 333 q 888 60 988 143 q 603 -24 789 -24 z "},"T":{"ha":776,"x_min":11,"x_max":765,"o":"m 226 0 l 226 736 l 11 736 l 11 956 l 765 956 l 765 736 l 550 736 l 550 0 l 226 0 z "},"Ŧ":{"ha":776,"x_min":11,"x_max":765,"o":"m 226 0 l 226 736 l 11 736 l 11 956 l 765 956 l 765 736 l 550 736 l 550 0 l 226 0 m 118 418 l 118 536 l 660 536 l 660 418 l 118 418 z "},"Ť":{"ha":776,"x_min":11,"x_max":765,"o":"m 226 0 l 226 736 l 11 736 l 11 956 l 765 956 l 765 736 l 550 736 l 550 0 l 226 0 m 260 1032 l 89 1378 l 319 1378 l 374 1229 l 388 1175 q 409 1238 396 1200 q 435 1314 422 1275 q 457 1378 449 1353 l 688 1378 l 517 1032 l 260 1032 z "},"Ţ":{"ha":776,"x_min":11,"x_max":765,"o":"m 226 0 l 226 736 l 11 736 l 11 956 l 765 956 l 765 736 l 550 736 l 550 0 l 226 0 m 356 -344 q 290 -338 324 -344 q 229 -319 257 -332 l 229 -240 q 266 -249 249 -246 q 296 -251 283 -251 q 353 -235 332 -251 q 375 -186 375 -218 q 353 -142 375 -158 q 294 -121 331 -126 l 350 42 l 456 42 l 421 -62 q 517 -113 489 -81 q 546 -194 546 -146 q 494 -303 546 -262 q 356 -344 443 -344 z "},"Ț":{"ha":776,"x_min":11,"x_max":765,"o":"m 226 0 l 226 736 l 11 736 l 11 956 l 765 956 l 765 736 l 550 736 l 550 0 l 226 0 m 260 -487 l 260 -375 q 344 -360 321 -375 q 371 -312 367 -344 l 260 -312 l 260 -90 l 517 -90 l 517 -211 q 459 -423 517 -358 q 260 -487 401 -487 z "},"U":{"ha":1058,"x_min":57,"x_max":1001,"o":"m 524 -22 q 279 28 385 -22 q 115 172 174 78 q 57 396 57 265 l 57 956 l 365 956 l 365 410 q 410 273 365 317 q 529 229 456 229 q 648 274 607 229 q 689 396 689 318 l 689 956 l 1001 956 l 1001 396 q 940 178 1001 272 q 772 31 879 83 q 524 -22 664 -22 z "},"Ú":{"ha":1058,"x_min":57,"x_max":1001,"o":"m 524 -22 q 279 28 385 -22 q 115 172 174 78 q 57 396 57 265 l 57 956 l 365 956 l 365 410 q 410 273 365 317 q 529 229 456 229 q 648 274 607 229 q 689 396 689 318 l 689 956 l 1001 956 l 1001 396 q 940 178 1001 272 q 772 31 879 83 q 524 -22 664 -22 m 444 1018 l 360 1167 l 767 1451 l 907 1203 l 444 1018 z "},"Ŭ":{"ha":1058,"x_min":57,"x_max":1001,"o":"m 524 -22 q 279 28 385 -22 q 115 172 174 78 q 57 396 57 265 l 57 956 l 365 956 l 365 410 q 410 273 365 317 q 529 229 456 229 q 648 274 607 229 q 689 396 689 318 l 689 956 l 1001 956 l 1001 396 q 940 178 1001 272 q 772 31 879 83 q 524 -22 664 -22 m 529 1018 q 337 1105 413 1018 q 256 1376 261 1192 l 451 1376 q 473 1233 451 1275 q 529 1192 494 1192 q 583 1232 564 1192 q 603 1376 603 1272 l 801 1376 q 721 1103 796 1188 q 529 1018 646 1018 z "},"Û":{"ha":1058,"x_min":57,"x_max":1001,"o":"m 524 -22 q 279 28 385 -22 q 115 172 174 78 q 57 396 57 265 l 57 956 l 365 956 l 365 410 q 410 273 365 317 q 529 229 456 229 q 648 274 607 229 q 689 396 689 318 l 689 956 l 1001 956 l 1001 396 q 940 178 1001 272 q 772 31 879 83 q 524 -22 664 -22 m 229 1032 l 400 1378 l 657 1378 l 828 1032 l 597 1032 l 544 1179 l 528 1232 l 514 1179 l 460 1032 l 229 1032 z "},"Ȕ":{"ha":1058,"x_min":57,"x_max":1001,"o":"m 524 -22 q 279 28 385 -22 q 115 172 174 78 q 57 396 57 265 l 57 956 l 365 956 l 365 410 q 410 273 365 317 q 529 229 456 229 q 648 274 607 229 q 689 396 689 318 l 689 956 l 1001 956 l 1001 396 q 940 178 1001 272 q 772 31 879 83 q 524 -22 664 -22 m 349 1018 l 135 1365 l 353 1454 l 497 1071 l 349 1018 m 608 1019 l 450 1396 l 681 1451 l 765 1051 l 608 1019 z "},"Ü":{"ha":1058,"x_min":57,"x_max":1001,"o":"m 524 -22 q 279 28 385 -22 q 115 172 174 78 q 57 396 57 265 l 57 956 l 365 956 l 365 410 q 410 273 365 317 q 529 229 456 229 q 648 274 607 229 q 689 396 689 318 l 689 956 l 1001 956 l 1001 396 q 940 178 1001 272 q 772 31 879 83 q 524 -22 664 -22 m 333 1018 q 224 1058 269 1018 q 178 1157 178 1099 q 200 1229 178 1197 q 258 1280 222 1261 q 333 1299 293 1299 q 412 1279 376 1299 q 469 1227 447 1260 q 490 1157 490 1194 q 467 1084 490 1115 q 409 1035 444 1053 q 333 1018 374 1018 m 726 1018 q 613 1060 657 1018 q 569 1157 569 1103 q 592 1231 569 1199 q 651 1281 615 1263 q 726 1299 688 1299 q 808 1277 774 1299 q 862 1224 843 1256 q 881 1157 881 1192 q 859 1085 881 1117 q 802 1036 838 1054 q 726 1018 767 1018 z "},"Ụ":{"ha":1058,"x_min":57,"x_max":1001,"o":"m 524 -22 q 279 28 385 -22 q 115 172 174 78 q 57 396 57 265 l 57 956 l 365 956 l 365 410 q 410 273 365 317 q 529 229 456 229 q 648 274 607 229 q 689 396 689 318 l 689 956 l 1001 956 l 1001 396 q 940 178 1001 272 q 772 31 879 83 q 524 -22 664 -22 m 529 -358 q 419 -317 465 -358 q 374 -217 374 -276 q 396 -144 374 -176 q 454 -94 418 -112 q 529 -76 490 -76 q 608 -96 572 -76 q 665 -147 643 -115 q 686 -217 686 -179 q 663 -290 686 -258 q 605 -340 640 -322 q 529 -358 569 -358 z "},"Ù":{"ha":1058,"x_min":57,"x_max":1001,"o":"m 524 -22 q 279 28 385 -22 q 115 172 174 78 q 57 396 57 265 l 57 956 l 365 956 l 365 410 q 410 273 365 317 q 529 229 456 229 q 648 274 607 229 q 689 396 689 318 l 689 956 l 1001 956 l 1001 396 q 940 178 1001 272 q 772 31 879 83 q 524 -22 664 -22 m 614 1018 l 151 1203 l 292 1451 l 699 1167 l 614 1018 z "},"Ủ":{"ha":1058,"x_min":57,"x_max":1001,"o":"m 524 -22 q 279 28 385 -22 q 115 172 174 78 q 57 396 57 265 l 57 956 l 365 956 l 365 410 q 410 273 365 317 q 529 229 456 229 q 648 274 607 229 q 689 396 689 318 l 689 956 l 1001 956 l 1001 396 q 940 178 1001 272 q 772 31 879 83 q 524 -22 664 -22 m 444 1046 q 442 1067 443 1057 q 440 1094 440 1078 q 455 1147 440 1128 q 488 1181 469 1167 q 520 1211 506 1196 q 535 1249 535 1226 q 522 1274 535 1264 q 478 1283 508 1283 q 432 1278 456 1283 q 381 1263 408 1272 l 369 1378 q 450 1398 406 1390 q 540 1406 494 1406 q 683 1370 642 1406 q 725 1281 725 1335 q 708 1209 725 1236 q 669 1163 692 1182 q 631 1124 647 1144 q 614 1069 614 1103 l 614 1046 l 444 1046 z "},"Ư":{"ha":1086,"x_min":57,"x_max":1147,"o":"m 524 -22 q 279 28 385 -22 q 115 172 174 78 q 57 396 57 265 l 57 956 l 365 956 l 365 410 q 410 273 365 317 q 529 229 456 229 q 648 274 607 229 q 689 396 689 318 l 689 956 l 840 956 q 924 963 893 956 q 970 1000 956 969 q 985 1099 985 1031 l 1147 1099 q 1111 900 1147 964 q 1001 814 1075 836 l 1001 396 q 940 178 1001 272 q 772 31 879 83 q 524 -22 664 -22 z "},"Ứ":{"ha":1086,"x_min":57,"x_max":1147,"o":"m 524 -22 q 279 28 385 -22 q 115 172 174 78 q 57 396 57 265 l 57 956 l 365 956 l 365 410 q 410 273 365 317 q 529 229 456 229 q 648 274 607 229 q 689 396 689 318 l 689 956 l 840 956 q 924 963 893 956 q 970 1000 956 969 q 985 1099 985 1031 l 1147 1099 q 1111 900 1147 964 q 1001 814 1075 836 l 1001 396 q 940 178 1001 272 q 772 31 879 83 q 524 -22 664 -22 m 444 1018 l 360 1167 l 767 1451 l 907 1203 l 444 1018 z "},"Ự":{"ha":1086,"x_min":57,"x_max":1147,"o":"m 524 -22 q 279 28 385 -22 q 115 172 174 78 q 57 396 57 265 l 57 956 l 365 956 l 365 410 q 410 273 365 317 q 529 229 456 229 q 648 274 607 229 q 689 396 689 318 l 689 956 l 840 956 q 924 963 893 956 q 970 1000 956 969 q 985 1099 985 1031 l 1147 1099 q 1111 900 1147 964 q 1001 814 1075 836 l 1001 396 q 940 178 1001 272 q 772 31 879 83 q 524 -22 664 -22 m 529 -358 q 419 -317 465 -358 q 374 -217 374 -276 q 396 -144 374 -176 q 454 -94 418 -112 q 529 -76 490 -76 q 608 -96 572 -76 q 665 -147 643 -115 q 686 -217 686 -179 q 663 -290 686 -258 q 605 -340 640 -322 q 529 -358 569 -358 z "},"Ừ":{"ha":1086,"x_min":57,"x_max":1147,"o":"m 524 -22 q 279 28 385 -22 q 115 172 174 78 q 57 396 57 265 l 57 956 l 365 956 l 365 410 q 410 273 365 317 q 529 229 456 229 q 648 274 607 229 q 689 396 689 318 l 689 956 l 840 956 q 924 963 893 956 q 970 1000 956 969 q 985 1099 985 1031 l 1147 1099 q 1111 900 1147 964 q 1001 814 1075 836 l 1001 396 q 940 178 1001 272 q 772 31 879 83 q 524 -22 664 -22 m 614 1018 l 151 1203 l 292 1451 l 699 1167 l 614 1018 z "},"Ử":{"ha":1086,"x_min":57,"x_max":1147,"o":"m 524 -22 q 279 28 385 -22 q 115 172 174 78 q 57 396 57 265 l 57 956 l 365 956 l 365 410 q 410 273 365 317 q 529 229 456 229 q 648 274 607 229 q 689 396 689 318 l 689 956 l 840 956 q 924 963 893 956 q 970 1000 956 969 q 985 1099 985 1031 l 1147 1099 q 1111 900 1147 964 q 1001 814 1075 836 l 1001 396 q 940 178 1001 272 q 772 31 879 83 q 524 -22 664 -22 m 444 1046 q 442 1067 443 1057 q 440 1094 440 1078 q 455 1147 440 1128 q 488 1181 469 1167 q 520 1211 506 1196 q 535 1249 535 1226 q 522 1274 535 1264 q 478 1283 508 1283 q 432 1278 456 1283 q 381 1263 408 1272 l 369 1378 q 450 1398 406 1390 q 540 1406 494 1406 q 683 1370 642 1406 q 725 1281 725 1335 q 708 1209 725 1236 q 669 1163 692 1182 q 631 1124 647 1144 q 614 1069 614 1103 l 614 1046 l 444 1046 z "},"Ữ":{"ha":1086,"x_min":57,"x_max":1147,"o":"m 524 -22 q 279 28 385 -22 q 115 172 174 78 q 57 396 57 265 l 57 956 l 365 956 l 365 410 q 410 273 365 317 q 529 229 456 229 q 648 274 607 229 q 689 396 689 318 l 689 956 l 840 956 q 924 963 893 956 q 970 1000 956 969 q 985 1099 985 1031 l 1147 1099 q 1111 900 1147 964 q 1001 814 1075 836 l 1001 396 q 940 178 1001 272 q 772 31 879 83 q 524 -22 664 -22 m 342 1021 l 192 1088 q 294 1251 232 1197 q 431 1306 356 1306 q 505 1289 472 1306 q 568 1256 538 1272 q 633 1239 599 1239 q 676 1258 657 1239 q 715 1307 694 1276 l 865 1242 q 764 1077 826 1132 q 626 1022 701 1022 q 552 1039 585 1022 q 489 1072 519 1056 q 424 1089 458 1089 q 382 1071 401 1089 q 342 1021 363 1053 z "},"Ű":{"ha":1058,"x_min":57,"x_max":1001,"o":"m 524 -22 q 279 28 385 -22 q 115 172 174 78 q 57 396 57 265 l 57 956 l 365 956 l 365 410 q 410 273 365 317 q 529 229 456 229 q 648 274 607 229 q 689 396 689 318 l 689 956 l 1001 956 l 1001 396 q 940 178 1001 272 q 772 31 879 83 q 524 -22 664 -22 m 710 1018 l 561 1071 l 706 1454 l 924 1365 l 710 1018 m 450 1019 l 293 1051 l 378 1451 l 608 1396 l 450 1019 z "},"Ȗ":{"ha":1058,"x_min":57,"x_max":1001,"o":"m 524 -22 q 279 28 385 -22 q 115 172 174 78 q 57 396 57 265 l 57 956 l 365 956 l 365 410 q 410 273 365 317 q 529 229 456 229 q 648 274 607 229 q 689 396 689 318 l 689 956 l 1001 956 l 1001 396 q 940 178 1001 272 q 772 31 879 83 q 524 -22 664 -22 m 256 1032 q 336 1306 261 1221 q 528 1390 411 1390 q 720 1304 644 1390 q 801 1032 796 1218 l 606 1032 q 584 1176 606 1135 q 528 1217 563 1217 q 474 1176 493 1217 q 454 1032 454 1136 l 256 1032 z "},"Ū":{"ha":1058,"x_min":57,"x_max":1001,"o":"m 524 -22 q 279 28 385 -22 q 115 172 174 78 q 57 396 57 265 l 57 956 l 365 956 l 365 410 q 410 273 365 317 q 529 229 456 229 q 648 274 607 229 q 689 396 689 318 l 689 956 l 1001 956 l 1001 396 q 940 178 1001 272 q 772 31 879 83 q 524 -22 664 -22 m 288 1032 l 288 1210 l 771 1210 l 771 1032 l 288 1032 z "},"Ų":{"ha":1058,"x_min":57,"x_max":1001,"o":"m 601 -331 q 466 -296 513 -331 q 419 -206 419 -261 q 452 -110 419 -157 q 554 -22 485 -64 l 529 -22 q 281 28 388 -22 q 116 172 175 78 q 57 396 57 265 l 57 956 l 365 956 l 365 410 q 410 273 365 317 q 529 229 456 229 q 648 274 607 229 q 689 396 689 318 l 689 956 l 1001 956 l 1001 396 q 974 246 1001 314 q 900 127 946 178 q 799 46 854 76 q 673 -42 717 0 q 613 -119 629 -83 q 597 -181 597 -154 q 664 -237 597 -237 q 729 -225 692 -237 l 729 -306 q 665 -325 697 -319 q 601 -331 632 -331 z "},"Ů":{"ha":1058,"x_min":57,"x_max":1001,"o":"m 524 -22 q 279 28 385 -22 q 115 172 174 78 q 57 396 57 265 l 57 956 l 365 956 l 365 410 q 410 273 365 317 q 529 229 456 229 q 648 274 607 229 q 689 396 689 318 l 689 956 l 1001 956 l 1001 396 q 940 178 1001 272 q 772 31 879 83 q 524 -22 664 -22 m 529 1018 q 405 1048 458 1018 q 321 1131 351 1078 q 290 1254 290 1185 q 322 1381 290 1328 q 407 1465 353 1435 q 529 1494 461 1494 q 657 1463 604 1494 q 738 1376 710 1431 q 767 1254 767 1321 q 700 1083 767 1147 q 529 1018 633 1018 m 529 1171 q 589 1193 568 1171 q 610 1254 610 1215 q 587 1318 610 1294 q 526 1342 564 1342 q 467 1317 490 1342 q 444 1254 444 1293 q 468 1193 444 1215 q 529 1171 492 1171 z "},"Ũ":{"ha":1058,"x_min":57,"x_max":1001,"o":"m 524 -22 q 279 28 385 -22 q 115 172 174 78 q 57 396 57 265 l 57 956 l 365 956 l 365 410 q 410 273 365 317 q 529 229 456 229 q 648 274 607 229 q 689 396 689 318 l 689 956 l 1001 956 l 1001 396 q 940 178 1001 272 q 772 31 879 83 q 524 -22 664 -22 m 342 1021 l 192 1088 q 294 1251 232 1197 q 431 1306 356 1306 q 505 1289 472 1306 q 568 1256 538 1272 q 633 1239 599 1239 q 676 1258 657 1239 q 715 1307 694 1276 l 865 1242 q 764 1077 826 1132 q 626 1022 701 1022 q 552 1039 585 1022 q 489 1072 519 1056 q 424 1089 458 1089 q 382 1071 401 1089 q 342 1021 363 1053 z "},"V":{"ha":926,"x_min":-1,"x_max":935,"o":"m 282 0 l -1 956 l 326 956 l 474 360 l 621 956 l 935 956 l 636 0 l 282 0 z "},"W":{"ha":1381,"x_min":32,"x_max":1349,"o":"m 249 0 l 32 956 l 344 956 l 435 360 l 528 793 l 851 793 l 946 360 l 1036 956 l 1349 956 l 1132 0 l 808 0 l 690 524 l 572 0 l 249 0 z "},"Ẃ":{"ha":1381,"x_min":32,"x_max":1349,"o":"m 249 0 l 32 956 l 344 956 l 435 360 l 528 793 l 851 793 l 946 360 l 1036 956 l 1349 956 l 1132 0 l 808 0 l 690 524 l 572 0 l 249 0 m 606 1018 l 521 1167 l 928 1451 l 1068 1203 l 606 1018 z "},"Ŵ":{"ha":1381,"x_min":32,"x_max":1349,"o":"m 249 0 l 32 956 l 344 956 l 435 360 l 528 793 l 851 793 l 946 360 l 1036 956 l 1349 956 l 1132 0 l 808 0 l 690 524 l 572 0 l 249 0 m 390 1032 l 561 1378 l 818 1378 l 989 1032 l 758 1032 l 706 1179 l 689 1232 l 675 1179 l 621 1032 l 390 1032 z "},"Ẅ":{"ha":1381,"x_min":32,"x_max":1349,"o":"m 249 0 l 32 956 l 344 956 l 435 360 l 528 793 l 851 793 l 946 360 l 1036 956 l 1349 956 l 1132 0 l 808 0 l 690 524 l 572 0 l 249 0 m 494 1018 q 385 1058 431 1018 q 339 1157 339 1099 q 361 1229 339 1197 q 419 1280 383 1261 q 494 1299 454 1299 q 573 1279 538 1299 q 630 1227 608 1260 q 651 1157 651 1194 q 628 1084 651 1115 q 570 1035 606 1053 q 494 1018 535 1018 m 888 1018 q 774 1060 818 1018 q 731 1157 731 1103 q 753 1231 731 1199 q 813 1281 776 1263 q 888 1299 849 1299 q 969 1277 935 1299 q 1023 1224 1004 1256 q 1042 1157 1042 1192 q 1020 1085 1042 1117 q 963 1036 999 1054 q 888 1018 928 1018 z "},"Ẁ":{"ha":1381,"x_min":32,"x_max":1349,"o":"m 249 0 l 32 956 l 344 956 l 435 360 l 528 793 l 851 793 l 946 360 l 1036 956 l 1349 956 l 1132 0 l 808 0 l 690 524 l 572 0 l 249 0 m 775 1018 l 313 1203 l 453 1451 l 860 1167 l 775 1018 z "},"X":{"ha":879,"x_min":0,"x_max":878,"o":"m 0 0 l 265 475 l 8 956 l 324 956 l 436 700 l 549 956 l 869 956 l 611 475 l 878 0 l 557 0 l 436 251 l 315 0 l 0 0 z "},"Y":{"ha":822,"x_min":-18,"x_max":844,"o":"m 257 0 l 257 265 l -18 956 l 281 956 l 415 533 l 547 956 l 844 956 l 556 265 l 556 0 l 257 0 z "},"Ý":{"ha":822,"x_min":-18,"x_max":844,"o":"m 257 0 l 257 265 l -18 956 l 281 956 l 415 533 l 547 956 l 844 956 l 556 265 l 556 0 l 257 0 m 326 1018 l 242 1167 l 649 1451 l 789 1203 l 326 1018 z "},"Ŷ":{"ha":822,"x_min":-18,"x_max":844,"o":"m 257 0 l 257 265 l -18 956 l 281 956 l 415 533 l 547 956 l 844 956 l 556 265 l 556 0 l 257 0 m 111 1032 l 282 1378 l 539 1378 l 710 1032 l 479 1032 l 426 1179 l 410 1232 l 396 1179 l 342 1032 l 111 1032 z "},"Ÿ":{"ha":822,"x_min":-18,"x_max":844,"o":"m 257 0 l 257 265 l -18 956 l 281 956 l 415 533 l 547 956 l 844 956 l 556 265 l 556 0 l 257 0 m 215 1018 q 106 1058 151 1018 q 60 1157 60 1099 q 82 1229 60 1197 q 140 1280 104 1261 q 215 1299 175 1299 q 294 1279 258 1299 q 351 1227 329 1260 q 372 1157 372 1194 q 349 1084 372 1115 q 291 1035 326 1053 q 215 1018 256 1018 m 608 1018 q 495 1060 539 1018 q 451 1157 451 1103 q 474 1231 451 1199 q 533 1281 497 1263 q 608 1299 569 1299 q 690 1277 656 1299 q 744 1224 725 1256 q 763 1157 763 1192 q 741 1085 763 1117 q 684 1036 719 1054 q 608 1018 649 1018 z "},"Ỵ":{"ha":822,"x_min":-18,"x_max":844,"o":"m 257 0 l 257 265 l -18 956 l 281 956 l 415 533 l 547 956 l 844 956 l 556 265 l 556 0 l 257 0 m 411 -358 q 301 -317 347 -358 q 256 -217 256 -276 q 278 -144 256 -176 q 336 -94 300 -112 q 411 -76 372 -76 q 490 -96 454 -76 q 547 -147 525 -115 q 568 -217 568 -179 q 545 -290 568 -258 q 487 -340 522 -322 q 411 -358 451 -358 z "},"Ỳ":{"ha":822,"x_min":-18,"x_max":844,"o":"m 257 0 l 257 265 l -18 956 l 281 956 l 415 533 l 547 956 l 844 956 l 556 265 l 556 0 l 257 0 m 496 1018 l 33 1203 l 174 1451 l 581 1167 l 496 1018 z "},"Ỷ":{"ha":822,"x_min":-18,"x_max":844,"o":"m 257 0 l 257 265 l -18 956 l 281 956 l 415 533 l 547 956 l 844 956 l 556 265 l 556 0 l 257 0 m 326 1046 q 324 1067 325 1057 q 322 1094 322 1078 q 337 1147 322 1128 q 369 1181 351 1167 q 402 1211 388 1196 q 417 1249 417 1226 q 403 1274 417 1264 q 360 1283 390 1283 q 314 1278 338 1283 q 263 1263 290 1272 l 251 1378 q 332 1398 288 1390 q 422 1406 376 1406 q 565 1370 524 1406 q 607 1281 607 1335 q 590 1209 607 1236 q 551 1163 574 1182 q 513 1124 529 1144 q 496 1069 496 1103 l 496 1046 l 326 1046 z "},"Ȳ":{"ha":822,"x_min":-18,"x_max":844,"o":"m 257 0 l 257 265 l -18 956 l 281 956 l 415 533 l 547 956 l 844 956 l 556 265 l 556 0 l 257 0 m 169 1032 l 169 1210 l 653 1210 l 653 1032 l 169 1032 z "},"Ỹ":{"ha":822,"x_min":-18,"x_max":844,"o":"m 257 0 l 257 265 l -18 956 l 281 956 l 415 533 l 547 956 l 844 956 l 556 265 l 556 0 l 257 0 m 224 1021 l 74 1088 q 176 1251 114 1197 q 313 1306 238 1306 q 387 1289 354 1306 q 450 1256 419 1272 q 515 1239 481 1239 q 558 1258 539 1239 q 597 1307 576 1276 l 747 1242 q 646 1077 708 1132 q 508 1022 583 1022 q 434 1039 467 1022 q 371 1072 401 1056 q 306 1089 340 1089 q 264 1071 283 1089 q 224 1021 244 1053 z "},"Z":{"ha":708,"x_min":39,"x_max":690,"o":"m 39 0 l 39 201 l 367 736 l 51 736 l 51 956 l 683 956 l 683 753 l 361 219 l 690 219 l 690 0 l 39 0 z "},"Ź":{"ha":708,"x_min":39,"x_max":742,"o":"m 39 0 l 39 201 l 367 736 l 51 736 l 51 956 l 683 956 l 683 753 l 361 219 l 690 219 l 690 0 l 39 0 m 279 1018 l 194 1167 l 601 1451 l 742 1203 l 279 1018 z "},"Ž":{"ha":708,"x_min":39,"x_max":690,"o":"m 39 0 l 39 201 l 367 736 l 51 736 l 51 956 l 683 956 l 683 753 l 361 219 l 690 219 l 690 0 l 39 0 m 235 1032 l 64 1378 l 294 1378 l 349 1229 l 363 1175 q 384 1238 371 1200 q 410 1314 397 1275 q 432 1378 424 1353 l 663 1378 l 492 1032 l 235 1032 z "},"Ż":{"ha":708,"x_min":39,"x_max":690,"o":"m 39 0 l 39 201 l 367 736 l 51 736 l 51 956 l 683 956 l 683 753 l 361 219 l 690 219 l 690 0 l 39 0 m 364 1018 q 254 1059 300 1018 q 208 1160 208 1100 q 231 1233 208 1201 q 289 1282 253 1264 q 364 1300 325 1300 q 442 1281 407 1300 q 499 1229 478 1261 q 521 1160 521 1197 q 498 1086 521 1118 q 440 1036 475 1054 q 364 1018 404 1018 z "},"a":{"ha":965,"x_min":35,"x_max":896,"o":"m 376 -11 q 203 35 281 -11 q 80 164 125 82 q 35 351 35 246 q 80 536 35 457 q 203 660 125 615 q 376 706 281 706 q 508 668 444 706 q 607 544 572 631 l 607 696 l 896 696 l 896 0 l 604 0 l 604 129 q 515 25 571 61 q 376 -11 460 -11 m 467 208 q 564 249 524 208 q 604 350 604 290 q 564 448 604 410 q 467 486 524 486 q 367 446 407 486 q 326 347 326 406 q 367 249 326 289 q 467 208 407 208 z "},"á":{"ha":965,"x_min":35,"x_max":896,"o":"m 376 -11 q 203 35 281 -11 q 80 164 125 82 q 35 351 35 246 q 80 536 35 457 q 203 660 125 615 q 376 706 281 706 q 508 668 444 706 q 607 544 572 631 l 607 696 l 896 696 l 896 0 l 604 0 l 604 129 q 515 25 571 61 q 376 -11 460 -11 m 467 208 q 564 249 524 208 q 604 350 604 290 q 564 448 604 410 q 467 486 524 486 q 367 446 407 486 q 326 347 326 406 q 367 249 326 289 q 467 208 407 208 m 329 772 l 244 921 l 651 1206 l 792 957 l 329 772 z "},"ă":{"ha":965,"x_min":35,"x_max":896,"o":"m 376 -11 q 203 35 281 -11 q 80 164 125 82 q 35 351 35 246 q 80 536 35 457 q 203 660 125 615 q 376 706 281 706 q 508 668 444 706 q 607 544 572 631 l 607 696 l 896 696 l 896 0 l 604 0 l 604 129 q 515 25 571 61 q 376 -11 460 -11 m 467 208 q 564 249 524 208 q 604 350 604 290 q 564 448 604 410 q 467 486 524 486 q 367 446 407 486 q 326 347 326 406 q 367 249 326 289 q 467 208 407 208 m 483 772 q 291 859 367 772 q 210 1131 215 946 l 406 1131 q 427 988 406 1029 q 483 946 449 946 q 538 986 518 946 q 557 1131 557 1026 l 756 1131 q 675 857 750 942 q 483 772 600 772 z "},"ắ":{"ha":965,"x_min":35,"x_max":896,"o":"m 376 -11 q 203 35 281 -11 q 80 164 125 82 q 35 351 35 246 q 80 536 35 457 q 203 660 125 615 q 376 706 281 706 q 508 668 444 706 q 607 544 572 631 l 607 696 l 896 696 l 896 0 l 604 0 l 604 129 q 515 25 571 61 q 376 -11 460 -11 m 467 208 q 564 249 524 208 q 604 350 604 290 q 564 448 604 410 q 467 486 524 486 q 367 446 407 486 q 326 347 326 406 q 367 249 326 289 q 467 208 407 208 m 472 1061 l 397 1160 l 711 1439 l 853 1265 l 472 1061 m 485 772 q 292 845 368 772 q 211 1061 217 918 l 403 1061 q 428 968 406 997 q 485 939 450 939 q 541 967 519 939 q 565 1061 563 996 l 757 1061 q 676 843 751 914 q 485 772 601 772 z "},"ặ":{"ha":965,"x_min":35,"x_max":896,"o":"m 376 -11 q 203 35 281 -11 q 80 164 125 82 q 35 351 35 246 q 80 536 35 457 q 203 660 125 615 q 376 706 281 706 q 508 668 444 706 q 607 544 572 631 l 607 696 l 896 696 l 896 0 l 604 0 l 604 129 q 515 25 571 61 q 376 -11 460 -11 m 467 208 q 564 249 524 208 q 604 350 604 290 q 564 448 604 410 q 467 486 524 486 q 367 446 407 486 q 326 347 326 406 q 367 249 326 289 q 467 208 407 208 m 483 -358 q 374 -317 419 -358 q 328 -217 328 -276 q 350 -144 328 -176 q 408 -94 372 -112 q 483 -76 444 -76 q 562 -96 526 -76 q 619 -147 597 -115 q 640 -217 640 -179 q 617 -290 640 -258 q 559 -340 594 -322 q 483 -358 524 -358 m 483 772 q 291 859 367 772 q 210 1131 215 946 l 406 1131 q 427 988 406 1029 q 483 946 449 946 q 538 986 518 946 q 557 1131 557 1026 l 756 1131 q 675 857 750 942 q 483 772 600 772 z "},"ằ":{"ha":965,"x_min":35,"x_max":896,"o":"m 376 -11 q 203 35 281 -11 q 80 164 125 82 q 35 351 35 246 q 80 536 35 457 q 203 660 125 615 q 376 706 281 706 q 508 668 444 706 q 607 544 572 631 l 607 696 l 896 696 l 896 0 l 604 0 l 604 129 q 515 25 571 61 q 376 -11 460 -11 m 467 208 q 564 249 524 208 q 604 350 604 290 q 564 448 604 410 q 467 486 524 486 q 367 446 407 486 q 326 347 326 406 q 367 249 326 289 q 467 208 407 208 m 496 1061 l 115 1265 l 257 1439 l 571 1160 l 496 1061 m 483 772 q 292 843 367 772 q 211 1061 217 914 l 403 1061 q 427 967 406 996 q 483 939 449 939 q 541 968 518 939 q 565 1061 564 997 l 757 1061 q 676 845 751 918 q 483 772 600 772 z "},"ẳ":{"ha":965,"x_min":35,"x_max":896,"o":"m 376 -11 q 203 35 281 -11 q 80 164 125 82 q 35 351 35 246 q 80 536 35 457 q 203 660 125 615 q 376 706 281 706 q 508 668 444 706 q 607 544 572 631 l 607 696 l 896 696 l 896 0 l 604 0 l 604 129 q 515 25 571 61 q 376 -11 460 -11 m 467 208 q 564 249 524 208 q 604 350 604 290 q 564 448 604 410 q 467 486 524 486 q 367 446 407 486 q 326 347 326 406 q 367 249 326 289 q 467 208 407 208 m 394 1114 q 409 1174 394 1151 q 442 1211 424 1196 q 474 1242 460 1226 q 489 1279 489 1257 q 476 1304 489 1294 q 432 1314 463 1314 q 386 1308 410 1314 q 335 1293 363 1303 l 324 1408 q 404 1428 360 1421 q 494 1436 449 1436 q 638 1401 596 1436 q 679 1311 679 1365 q 663 1240 679 1267 q 624 1196 646 1214 q 585 1160 601 1178 q 568 1114 568 1142 l 394 1114 m 483 772 q 292 843 367 772 q 211 1061 217 914 l 403 1061 q 427 967 406 996 q 483 939 449 939 q 541 968 518 939 q 565 1061 564 997 l 757 1061 q 676 845 751 918 q 483 772 600 772 z "},"ẵ":{"ha":965,"x_min":35,"x_max":896,"o":"m 376 -11 q 203 35 281 -11 q 80 164 125 82 q 35 351 35 246 q 80 536 35 457 q 203 660 125 615 q 376 706 281 706 q 508 668 444 706 q 607 544 572 631 l 607 696 l 896 696 l 896 0 l 604 0 l 604 129 q 515 25 571 61 q 376 -11 460 -11 m 467 208 q 564 249 524 208 q 604 350 604 290 q 564 448 604 410 q 467 486 524 486 q 367 446 407 486 q 326 347 326 406 q 367 249 326 289 q 467 208 407 208 m 325 1124 l 197 1181 q 284 1319 232 1274 q 400 1365 336 1365 q 464 1352 436 1365 q 517 1326 492 1339 q 572 1313 543 1313 q 608 1326 592 1313 q 642 1367 624 1340 l 769 1311 q 683 1172 735 1218 q 567 1125 631 1125 q 503 1138 532 1125 q 449 1165 475 1151 q 394 1178 424 1178 q 359 1165 375 1178 q 325 1124 343 1151 m 483 772 q 292 843 367 772 q 211 1061 217 914 l 403 1061 q 427 967 406 996 q 483 939 449 939 q 541 968 518 939 q 565 1061 564 997 l 757 1061 q 676 845 751 918 q 483 772 600 772 z "},"â":{"ha":965,"x_min":35,"x_max":896,"o":"m 376 -11 q 203 35 281 -11 q 80 164 125 82 q 35 351 35 246 q 80 536 35 457 q 203 660 125 615 q 376 706 281 706 q 508 668 444 706 q 607 544 572 631 l 607 696 l 896 696 l 896 0 l 604 0 l 604 129 q 515 25 571 61 q 376 -11 460 -11 m 467 208 q 564 249 524 208 q 604 350 604 290 q 564 448 604 410 q 467 486 524 486 q 367 446 407 486 q 326 347 326 406 q 367 249 326 289 q 467 208 407 208 m 183 786 l 354 1132 l 611 1132 l 782 786 l 551 786 l 499 933 l 482 986 l 468 933 l 414 786 l 183 786 z "},"ấ":{"ha":965,"x_min":35,"x_max":1072,"o":"m 376 -11 q 203 35 281 -11 q 80 164 125 82 q 35 351 35 246 q 80 536 35 457 q 203 660 125 615 q 376 706 281 706 q 508 668 444 706 q 607 544 572 631 l 607 696 l 896 696 l 896 0 l 604 0 l 604 129 q 515 25 571 61 q 376 -11 460 -11 m 467 208 q 564 249 524 208 q 604 350 604 290 q 564 448 604 410 q 467 486 524 486 q 367 446 407 486 q 326 347 326 406 q 367 249 326 289 q 467 208 407 208 m 747 976 l 653 1056 l 894 1397 l 1072 1260 l 747 976 m 183 786 l 354 1061 l 611 1061 l 782 786 l 556 786 l 482 926 l 410 786 l 183 786 z "},"ậ":{"ha":965,"x_min":35,"x_max":896,"o":"m 376 -11 q 203 35 281 -11 q 80 164 125 82 q 35 351 35 246 q 80 536 35 457 q 203 660 125 615 q 376 706 281 706 q 508 668 444 706 q 607 544 572 631 l 607 696 l 896 696 l 896 0 l 604 0 l 604 129 q 515 25 571 61 q 376 -11 460 -11 m 467 208 q 564 249 524 208 q 604 350 604 290 q 564 448 604 410 q 467 486 524 486 q 367 446 407 486 q 326 347 326 406 q 367 249 326 289 q 467 208 407 208 m 483 -358 q 374 -317 419 -358 q 328 -217 328 -276 q 350 -144 328 -176 q 408 -94 372 -112 q 483 -76 444 -76 q 562 -96 526 -76 q 619 -147 597 -115 q 640 -217 640 -179 q 617 -290 640 -258 q 559 -340 594 -322 q 483 -358 524 -358 m 183 786 l 354 1132 l 611 1132 l 782 786 l 551 786 l 499 933 l 482 986 l 468 933 l 414 786 l 183 786 z "},"ầ":{"ha":965,"x_min":35,"x_max":896,"o":"m 376 -11 q 203 35 281 -11 q 80 164 125 82 q 35 351 35 246 q 80 536 35 457 q 203 660 125 615 q 376 706 281 706 q 508 668 444 706 q 607 544 572 631 l 607 696 l 896 696 l 896 0 l 604 0 l 604 129 q 515 25 571 61 q 376 -11 460 -11 m 467 208 q 564 249 524 208 q 604 350 604 290 q 564 448 604 410 q 467 486 524 486 q 367 446 407 486 q 326 347 326 406 q 367 249 326 289 q 467 208 407 208 m 769 976 l 444 1260 l 622 1397 l 864 1056 l 769 976 m 185 786 l 356 1061 l 613 1061 l 783 786 l 557 786 l 485 926 l 411 786 l 185 786 z "},"ẩ":{"ha":965,"x_min":35,"x_max":985,"o":"m 376 -11 q 203 35 281 -11 q 80 164 125 82 q 35 351 35 246 q 80 536 35 457 q 203 660 125 615 q 376 706 281 706 q 508 668 444 706 q 607 544 572 631 l 607 696 l 896 696 l 896 0 l 604 0 l 604 129 q 515 25 571 61 q 376 -11 460 -11 m 467 208 q 564 249 524 208 q 604 350 604 290 q 564 448 604 410 q 467 486 524 486 q 367 446 407 486 q 326 347 326 406 q 367 249 326 289 q 467 208 407 208 m 700 976 q 715 1036 700 1014 q 747 1074 729 1058 q 780 1104 765 1089 q 794 1142 794 1119 q 781 1167 794 1157 q 738 1176 768 1176 q 692 1171 715 1176 q 640 1156 668 1165 l 629 1271 q 710 1291 665 1283 q 800 1299 754 1299 q 943 1263 901 1299 q 985 1174 985 1228 q 968 1103 985 1129 q 929 1058 951 1076 q 890 1022 907 1040 q 874 976 874 1004 l 700 976 m 185 786 l 356 1061 l 613 1061 l 783 786 l 557 786 l 485 926 l 411 786 l 185 786 z "},"ẫ":{"ha":965,"x_min":35,"x_max":896,"o":"m 376 -11 q 203 35 281 -11 q 80 164 125 82 q 35 351 35 246 q 80 536 35 457 q 203 660 125 615 q 376 706 281 706 q 508 668 444 706 q 607 544 572 631 l 607 696 l 896 696 l 896 0 l 604 0 l 604 129 q 515 25 571 61 q 376 -11 460 -11 m 467 208 q 564 249 524 208 q 604 350 604 290 q 564 448 604 410 q 467 486 524 486 q 367 446 407 486 q 326 347 326 406 q 367 249 326 289 q 467 208 407 208 m 325 1124 l 197 1181 q 284 1319 232 1274 q 400 1365 336 1365 q 464 1352 436 1365 q 517 1326 492 1339 q 572 1313 543 1313 q 608 1326 592 1313 q 642 1367 624 1340 l 769 1311 q 683 1172 735 1218 q 567 1125 631 1125 q 503 1138 532 1125 q 449 1165 475 1151 q 394 1178 424 1178 q 359 1165 375 1178 q 325 1124 343 1151 m 185 786 l 356 1061 l 613 1061 l 783 786 l 557 786 l 485 926 l 411 786 l 185 786 z "},"ȁ":{"ha":965,"x_min":35,"x_max":896,"o":"m 376 -11 q 203 35 281 -11 q 80 164 125 82 q 35 351 35 246 q 80 536 35 457 q 203 660 125 615 q 376 706 281 706 q 508 668 444 706 q 607 544 572 631 l 607 696 l 896 696 l 896 0 l 604 0 l 604 129 q 515 25 571 61 q 376 -11 460 -11 m 467 208 q 564 249 524 208 q 604 350 604 290 q 564 448 604 410 q 467 486 524 486 q 367 446 407 486 q 326 347 326 406 q 367 249 326 289 q 467 208 407 208 m 303 772 l 89 1119 l 307 1208 l 451 825 l 303 772 m 563 774 l 404 1150 l 635 1206 l 719 806 l 563 774 z "},"ä":{"ha":965,"x_min":35,"x_max":896,"o":"m 376 -11 q 203 35 281 -11 q 80 164 125 82 q 35 351 35 246 q 80 536 35 457 q 203 660 125 615 q 376 706 281 706 q 508 668 444 706 q 607 544 572 631 l 607 696 l 896 696 l 896 0 l 604 0 l 604 129 q 515 25 571 61 q 376 -11 460 -11 m 467 208 q 564 249 524 208 q 604 350 604 290 q 564 448 604 410 q 467 486 524 486 q 367 446 407 486 q 326 347 326 406 q 367 249 326 289 q 467 208 407 208 m 288 772 q 178 813 224 772 q 132 911 132 853 q 154 983 132 951 q 212 1034 176 1015 q 288 1053 247 1053 q 366 1033 331 1053 q 423 981 401 1014 q 444 911 444 949 q 422 838 444 869 q 363 790 399 807 q 288 772 328 772 m 681 772 q 567 815 611 772 q 524 911 524 857 q 547 985 524 953 q 606 1035 569 1017 q 681 1053 642 1053 q 763 1031 728 1053 q 816 978 797 1010 q 835 911 835 946 q 813 840 835 871 q 756 790 792 808 q 681 772 721 772 z "},"ạ":{"ha":965,"x_min":35,"x_max":896,"o":"m 376 -11 q 203 35 281 -11 q 80 164 125 82 q 35 351 35 246 q 80 536 35 457 q 203 660 125 615 q 376 706 281 706 q 508 668 444 706 q 607 544 572 631 l 607 696 l 896 696 l 896 0 l 604 0 l 604 129 q 515 25 571 61 q 376 -11 460 -11 m 467 208 q 564 249 524 208 q 604 350 604 290 q 564 448 604 410 q 467 486 524 486 q 367 446 407 486 q 326 347 326 406 q 367 249 326 289 q 467 208 407 208 m 483 -358 q 374 -317 419 -358 q 328 -217 328 -276 q 350 -144 328 -176 q 408 -94 372 -112 q 483 -76 444 -76 q 562 -96 526 -76 q 619 -147 597 -115 q 640 -217 640 -179 q 617 -290 640 -258 q 559 -340 594 -322 q 483 -358 524 -358 z "},"à":{"ha":965,"x_min":35,"x_max":896,"o":"m 376 -11 q 203 35 281 -11 q 80 164 125 82 q 35 351 35 246 q 80 536 35 457 q 203 660 125 615 q 376 706 281 706 q 508 668 444 706 q 607 544 572 631 l 607 696 l 896 696 l 896 0 l 604 0 l 604 129 q 515 25 571 61 q 376 -11 460 -11 m 467 208 q 564 249 524 208 q 604 350 604 290 q 564 448 604 410 q 467 486 524 486 q 367 446 407 486 q 326 347 326 406 q 367 249 326 289 q 467 208 407 208 m 638 772 l 175 957 l 315 1206 l 722 921 l 638 772 z "},"ả":{"ha":965,"x_min":35,"x_max":896,"o":"m 376 -11 q 203 35 281 -11 q 80 164 125 82 q 35 351 35 246 q 80 536 35 457 q 203 660 125 615 q 376 706 281 706 q 508 668 444 706 q 607 544 572 631 l 607 696 l 896 696 l 896 0 l 604 0 l 604 129 q 515 25 571 61 q 376 -11 460 -11 m 467 208 q 564 249 524 208 q 604 350 604 290 q 564 448 604 410 q 467 486 524 486 q 367 446 407 486 q 326 347 326 406 q 367 249 326 289 q 467 208 407 208 m 399 786 q 396 808 397 797 q 394 835 394 818 q 409 888 394 868 q 442 922 424 907 q 474 951 460 936 q 489 989 489 967 q 476 1014 489 1004 q 432 1024 463 1024 q 386 1018 410 1024 q 335 1003 363 1013 l 324 1118 q 404 1138 360 1131 q 494 1146 449 1146 q 638 1110 596 1146 q 679 1021 679 1075 q 663 949 679 976 q 624 903 646 922 q 585 864 601 885 q 568 810 568 843 l 568 786 l 399 786 z "},"ȃ":{"ha":965,"x_min":35,"x_max":896,"o":"m 376 -11 q 203 35 281 -11 q 80 164 125 82 q 35 351 35 246 q 80 536 35 457 q 203 660 125 615 q 376 706 281 706 q 508 668 444 706 q 607 544 572 631 l 607 696 l 896 696 l 896 0 l 604 0 l 604 129 q 515 25 571 61 q 376 -11 460 -11 m 467 208 q 564 249 524 208 q 604 350 604 290 q 564 448 604 410 q 467 486 524 486 q 367 446 407 486 q 326 347 326 406 q 367 249 326 289 q 467 208 407 208 m 210 786 q 290 1060 215 975 q 482 1144 365 1144 q 674 1058 599 1144 q 756 786 750 972 l 560 786 q 538 930 560 889 q 482 971 517 971 q 428 931 447 971 q 408 786 408 890 l 210 786 z "},"ā":{"ha":965,"x_min":35,"x_max":896,"o":"m 376 -11 q 203 35 281 -11 q 80 164 125 82 q 35 351 35 246 q 80 536 35 457 q 203 660 125 615 q 376 706 281 706 q 508 668 444 706 q 607 544 572 631 l 607 696 l 896 696 l 896 0 l 604 0 l 604 129 q 515 25 571 61 q 376 -11 460 -11 m 467 208 q 564 249 524 208 q 604 350 604 290 q 564 448 604 410 q 467 486 524 486 q 367 446 407 486 q 326 347 326 406 q 367 249 326 289 q 467 208 407 208 m 242 786 l 242 964 l 725 964 l 725 786 l 242 786 z "},"ą":{"ha":965,"x_min":35,"x_max":896,"o":"m 376 -11 q 203 35 281 -11 q 80 164 125 82 q 35 351 35 246 q 80 536 35 457 q 203 660 125 615 q 376 706 281 706 q 508 668 444 706 q 607 544 572 631 l 607 696 l 896 696 l 896 0 l 604 0 l 604 129 q 515 25 571 61 q 376 -11 460 -11 m 467 208 q 564 249 524 208 q 604 350 604 290 q 564 448 604 410 q 467 486 524 486 q 367 446 407 486 q 326 347 326 406 q 367 249 326 289 q 467 208 407 208 m 763 -344 q 627 -310 674 -344 q 581 -219 581 -275 q 638 -95 581 -156 q 801 14 694 -35 l 896 0 q 792 -106 825 -58 q 758 -194 758 -154 q 825 -251 758 -251 q 890 -239 853 -251 l 890 -319 q 826 -339 858 -333 q 763 -344 793 -344 z "},"å":{"ha":965,"x_min":35,"x_max":896,"o":"m 376 -11 q 203 35 281 -11 q 80 164 125 82 q 35 351 35 246 q 80 536 35 457 q 203 660 125 615 q 376 706 281 706 q 508 668 444 706 q 607 544 572 631 l 607 696 l 896 696 l 896 0 l 604 0 l 604 129 q 515 25 571 61 q 376 -11 460 -11 m 467 208 q 564 249 524 208 q 604 350 604 290 q 564 448 604 410 q 467 486 524 486 q 367 446 407 486 q 326 347 326 406 q 367 249 326 289 q 467 208 407 208 m 483 772 q 359 802 413 772 q 275 885 306 832 q 244 1008 244 939 q 276 1135 244 1082 q 361 1219 307 1189 q 483 1249 415 1249 q 611 1217 558 1249 q 692 1130 664 1185 q 721 1008 721 1075 q 654 837 721 901 q 483 772 588 772 m 483 925 q 543 947 522 925 q 564 1008 564 969 q 541 1072 564 1049 q 481 1096 518 1096 q 422 1072 444 1096 q 399 1008 399 1047 q 422 947 399 969 q 483 925 446 925 z "},"ǻ":{"ha":965,"x_min":35,"x_max":960,"o":"m 376 -11 q 203 35 281 -11 q 80 164 125 82 q 35 351 35 246 q 80 536 35 457 q 203 660 125 615 q 376 706 281 706 q 508 668 444 706 q 607 544 572 631 l 607 696 l 896 696 l 896 0 l 604 0 l 604 129 q 515 25 571 61 q 376 -11 460 -11 m 467 208 q 564 249 524 208 q 604 350 604 290 q 564 448 604 410 q 467 486 524 486 q 367 446 407 486 q 326 347 326 406 q 367 249 326 289 q 467 208 407 208 m 483 772 q 359 802 413 772 q 275 885 306 832 q 244 1008 244 939 q 276 1135 244 1082 q 361 1219 307 1189 q 483 1249 415 1249 q 626 1207 567 1249 l 847 1361 l 960 1161 l 715 1064 q 721 1008 721 1040 q 654 837 721 901 q 483 772 588 772 m 483 925 q 543 947 522 925 q 564 1008 564 969 q 541 1072 564 1049 q 481 1096 518 1096 q 422 1072 444 1096 q 399 1008 399 1047 q 422 947 399 969 q 483 925 446 925 z "},"ã":{"ha":965,"x_min":35,"x_max":896,"o":"m 376 -11 q 203 35 281 -11 q 80 164 125 82 q 35 351 35 246 q 80 536 35 457 q 203 660 125 615 q 376 706 281 706 q 508 668 444 706 q 607 544 572 631 l 607 696 l 896 696 l 896 0 l 604 0 l 604 129 q 515 25 571 61 q 376 -11 460 -11 m 467 208 q 564 249 524 208 q 604 350 604 290 q 564 448 604 410 q 467 486 524 486 q 367 446 407 486 q 326 347 326 406 q 367 249 326 289 q 467 208 407 208 m 296 775 l 146 842 q 248 1006 186 951 q 385 1060 310 1060 q 459 1043 426 1060 q 522 1010 492 1026 q 588 993 553 993 q 630 1012 611 993 q 669 1061 649 1031 l 819 996 q 718 831 781 886 q 581 776 656 776 q 506 793 539 776 q 443 826 474 810 q 378 843 413 843 q 336 825 356 843 q 296 775 317 807 z "},"æ":{"ha":1465,"x_min":35,"x_max":1438,"o":"m 376 -11 q 203 35 281 -11 q 80 164 125 82 q 35 351 35 246 q 80 536 35 457 q 203 660 125 615 q 376 706 281 706 q 508 668 444 706 q 607 544 572 631 l 607 696 l 854 696 l 854 600 q 971 678 903 650 q 1117 706 1039 706 q 1356 608 1274 706 q 1438 329 1438 510 l 1024 276 q 1196 183 1069 183 q 1281 192 1236 183 q 1374 222 1326 200 l 1407 43 q 1295 3 1356 17 q 1157 -11 1235 -11 q 980 17 1056 -11 q 854 93 904 44 l 854 0 l 604 0 l 604 129 q 515 25 571 61 q 376 -11 460 -11 m 1001 404 l 1219 450 q 1189 516 1214 494 q 1126 538 1164 538 q 1038 499 1071 538 q 1001 404 1006 461 m 326 347 q 367 249 326 289 q 467 208 407 208 q 564 249 524 208 q 604 350 604 290 q 564 448 604 410 q 467 486 524 486 q 367 446 407 486 q 326 347 326 406 z "},"ǽ":{"ha":1465,"x_min":35,"x_max":1438,"o":"m 376 -11 q 203 35 281 -11 q 80 164 125 82 q 35 351 35 246 q 80 536 35 457 q 203 660 125 615 q 376 706 281 706 q 508 668 444 706 q 607 544 572 631 l 607 696 l 854 696 l 854 600 q 971 678 903 650 q 1117 706 1039 706 q 1356 608 1274 706 q 1438 329 1438 510 l 1024 276 q 1196 183 1069 183 q 1281 192 1236 183 q 1374 222 1326 200 l 1407 43 q 1295 3 1356 17 q 1157 -11 1235 -11 q 980 17 1056 -11 q 854 93 904 44 l 854 0 l 604 0 l 604 129 q 515 25 571 61 q 376 -11 460 -11 m 1001 404 l 1219 450 q 1189 516 1214 494 q 1126 538 1164 538 q 1038 499 1071 538 q 1001 404 1006 461 m 326 347 q 367 249 326 289 q 467 208 407 208 q 564 249 524 208 q 604 350 604 290 q 564 448 604 410 q 467 486 524 486 q 367 446 407 486 q 326 347 326 406 m 586 772 l 501 921 l 908 1206 l 1049 957 l 586 772 z "},"b":{"ha":965,"x_min":69,"x_max":931,"o":"m 589 -11 q 450 25 506 -11 q 361 129 394 61 l 361 0 l 69 0 l 69 915 l 364 958 l 364 553 q 459 669 397 632 q 589 706 521 706 q 763 660 686 706 q 885 536 840 615 q 931 351 931 457 q 885 164 931 246 q 763 35 840 82 q 589 -11 686 -11 m 499 208 q 599 249 558 208 q 639 347 639 289 q 599 446 639 406 q 499 486 558 486 q 401 448 442 486 q 361 350 361 410 q 401 249 361 290 q 499 208 442 208 z "},"c":{"ha":660,"x_min":35,"x_max":625,"o":"m 413 -11 q 211 35 296 -11 q 81 160 126 81 q 35 344 35 240 q 82 529 35 447 q 215 658 129 611 q 413 706 300 706 q 625 650 547 706 l 594 461 q 529 483 560 476 q 471 489 499 489 q 363 451 403 489 q 324 347 324 413 q 363 244 324 283 q 465 204 401 204 q 596 228 521 204 l 622 33 q 527 0 576 11 q 413 -11 478 -11 z "},"ć":{"ha":660,"x_min":35,"x_max":678,"o":"m 413 -11 q 211 35 296 -11 q 81 160 126 81 q 35 344 35 240 q 82 529 35 447 q 215 658 129 611 q 413 706 300 706 q 625 650 547 706 l 594 461 q 529 483 560 476 q 471 489 499 489 q 363 451 403 489 q 324 347 324 413 q 363 244 324 283 q 465 204 401 204 q 596 228 521 204 l 622 33 q 527 0 576 11 q 413 -11 478 -11 m 215 772 l 131 921 l 538 1206 l 678 957 l 215 772 z "},"č":{"ha":660,"x_min":35,"x_max":668,"o":"m 413 -11 q 211 35 296 -11 q 81 160 126 81 q 35 344 35 240 q 82 529 35 447 q 215 658 129 611 q 413 706 300 706 q 625 650 547 706 l 594 461 q 529 483 560 476 q 471 489 499 489 q 363 451 403 489 q 324 347 324 413 q 363 244 324 283 q 465 204 401 204 q 596 228 521 204 l 622 33 q 527 0 576 11 q 413 -11 478 -11 m 240 786 l 69 1132 l 300 1132 l 354 983 l 368 929 q 390 992 376 954 q 416 1068 403 1029 q 438 1132 429 1107 l 668 1132 l 497 786 l 240 786 z "},"ç":{"ha":660,"x_min":35,"x_max":625,"o":"m 413 -11 q 211 35 296 -11 q 81 160 126 81 q 35 344 35 240 q 82 529 35 447 q 215 658 129 611 q 413 706 300 706 q 625 650 547 706 l 594 461 q 529 483 560 476 q 471 489 499 489 q 363 451 403 489 q 324 347 324 413 q 363 244 324 283 q 465 204 401 204 q 596 228 521 204 l 622 33 q 527 0 576 11 q 413 -11 478 -11 m 336 -344 q 271 -338 304 -344 q 210 -319 238 -332 l 210 -240 q 247 -249 229 -246 q 276 -251 264 -251 q 334 -235 313 -251 q 356 -186 356 -218 q 333 -142 356 -158 q 275 -121 311 -126 l 331 42 l 436 42 l 401 -62 q 498 -113 469 -81 q 526 -194 526 -146 q 475 -303 526 -262 q 336 -344 424 -344 z "},"ĉ":{"ha":660,"x_min":35,"x_max":668,"o":"m 413 -11 q 211 35 296 -11 q 81 160 126 81 q 35 344 35 240 q 82 529 35 447 q 215 658 129 611 q 413 706 300 706 q 625 650 547 706 l 594 461 q 529 483 560 476 q 471 489 499 489 q 363 451 403 489 q 324 347 324 413 q 363 244 324 283 q 465 204 401 204 q 596 228 521 204 l 622 33 q 527 0 576 11 q 413 -11 478 -11 m 69 786 l 240 1132 l 497 1132 l 668 786 l 438 786 l 385 933 l 368 986 l 354 933 l 300 786 l 69 786 z "},"ċ":{"ha":660,"x_min":35,"x_max":625,"o":"m 413 -11 q 211 35 296 -11 q 81 160 126 81 q 35 344 35 240 q 82 529 35 447 q 215 658 129 611 q 413 706 300 706 q 625 650 547 706 l 594 461 q 529 483 560 476 q 471 489 499 489 q 363 451 403 489 q 324 347 324 413 q 363 244 324 283 q 465 204 401 204 q 596 228 521 204 l 622 33 q 527 0 576 11 q 413 -11 478 -11 m 369 772 q 260 813 306 772 q 214 914 214 854 q 236 987 214 956 q 294 1036 258 1018 q 369 1054 331 1054 q 448 1035 413 1054 q 505 983 483 1015 q 526 914 526 951 q 503 840 526 872 q 445 790 481 808 q 369 772 410 772 z "},"d":{"ha":964,"x_min":35,"x_max":894,"o":"m 376 -11 q 203 35 281 -11 q 80 164 125 82 q 35 351 35 246 q 80 536 35 457 q 203 660 125 615 q 376 706 281 706 q 508 669 444 706 q 601 550 571 632 l 601 915 l 894 958 l 894 0 l 604 0 l 604 129 q 515 25 571 61 q 376 -11 460 -11 m 467 208 q 564 249 524 208 q 604 350 604 290 q 564 448 604 410 q 467 486 524 486 q 367 446 407 486 q 326 347 326 406 q 367 249 326 289 q 467 208 407 208 z "},"ð":{"ha":910,"x_min":35,"x_max":889,"o":"m 417 -22 q 213 18 299 -22 q 81 131 128 58 q 35 301 35 204 q 74 453 35 386 q 188 558 114 519 q 365 597 261 597 q 478 570 428 597 q 561 478 528 543 q 526 674 561 603 l 388 618 l 353 711 l 456 753 q 364 774 417 774 q 259 758 313 774 q 161 710 206 742 l 135 919 q 269 962 192 947 q 424 976 347 976 q 598 947 521 976 q 731 863 675 918 l 854 913 l 889 819 l 794 782 q 868 468 868 656 q 813 212 868 322 q 656 40 757 101 q 417 -22 556 -22 m 325 289 q 353 218 325 246 q 433 190 381 190 q 528 238 496 190 q 560 372 560 286 q 502 397 529 390 q 446 403 475 403 q 358 372 392 403 q 325 289 325 342 z "},"ď":{"ha":964,"x_min":35,"x_max":1235,"o":"m 376 -11 q 203 35 281 -11 q 80 164 125 82 q 35 351 35 246 q 80 536 35 457 q 203 660 125 615 q 376 706 281 706 q 508 669 444 706 q 601 550 571 632 l 601 915 l 894 958 l 894 0 l 604 0 l 604 129 q 515 25 571 61 q 376 -11 460 -11 m 467 208 q 564 249 524 208 q 604 350 604 290 q 564 448 604 410 q 467 486 524 486 q 367 446 407 486 q 326 347 326 406 q 367 249 326 289 q 467 208 407 208 m 978 558 l 978 671 q 1062 686 1039 671 q 1089 733 1085 701 l 978 733 l 978 956 l 1235 956 l 1235 835 q 1177 623 1235 688 q 978 558 1119 558 z "},"đ":{"ha":964,"x_min":35,"x_max":964,"o":"m 376 -11 q 203 35 281 -11 q 80 164 125 82 q 35 351 35 246 q 80 536 35 457 q 203 660 125 615 q 376 706 281 706 q 508 669 444 706 q 601 550 571 632 l 601 750 l 504 750 l 504 868 l 601 868 l 601 915 l 894 958 l 894 868 l 964 868 l 964 750 l 894 750 l 894 0 l 604 0 l 604 129 q 515 25 571 61 q 376 -11 460 -11 m 326 347 q 367 249 326 289 q 467 208 407 208 q 564 249 524 208 q 604 350 604 290 q 564 448 604 410 q 467 486 524 486 q 367 446 407 486 q 326 347 326 406 z "},"ǆ":{"ha":1642,"x_min":35,"x_max":1603,"o":"m 376 -11 q 203 35 281 -11 q 80 164 125 82 q 35 351 35 246 q 80 536 35 457 q 203 660 125 615 q 376 706 281 706 q 508 669 444 706 q 601 550 571 632 l 601 915 l 894 958 l 894 0 l 604 0 l 604 129 q 515 25 571 61 q 376 -11 460 -11 m 467 208 q 564 249 524 208 q 604 350 604 290 q 564 448 604 410 q 467 486 524 486 q 367 446 407 486 q 326 347 326 406 q 367 249 326 289 q 467 208 407 208 m 1006 0 l 1006 149 l 1257 504 l 1015 504 l 1015 696 l 1593 696 l 1593 546 l 1354 192 l 1599 192 l 1599 0 l 1006 0 m 1175 786 l 1004 1132 l 1235 1132 l 1289 983 l 1303 929 q 1324 992 1311 954 q 1351 1068 1338 1029 q 1372 1132 1364 1107 l 1603 1132 l 1432 786 l 1175 786 z "},"e":{"ha":771,"x_min":35,"x_max":743,"o":"m 501 183 q 587 192 542 183 q 679 222 632 200 l 713 43 q 601 3 661 17 q 463 -11 540 -11 q 227 35 322 -11 q 83 161 132 81 q 35 347 35 242 q 87 536 35 456 q 226 661 139 617 q 419 706 314 706 q 660 608 576 706 q 743 329 743 510 l 329 276 q 501 183 375 183 m 307 404 l 525 450 q 494 516 519 494 q 432 538 469 538 q 344 499 376 538 q 307 404 311 461 z "},"é":{"ha":771,"x_min":35,"x_max":743,"o":"m 501 183 q 587 192 542 183 q 679 222 632 200 l 713 43 q 601 3 661 17 q 463 -11 540 -11 q 227 35 322 -11 q 83 161 132 81 q 35 347 35 242 q 87 536 35 456 q 226 661 139 617 q 419 706 314 706 q 660 608 576 706 q 743 329 743 510 l 329 276 q 501 183 375 183 m 307 404 l 525 450 q 494 516 519 494 q 432 538 469 538 q 344 499 376 538 q 307 404 311 461 m 246 772 l 161 921 l 568 1206 l 708 957 l 246 772 z "},"ĕ":{"ha":771,"x_min":35,"x_max":743,"o":"m 501 183 q 587 192 542 183 q 679 222 632 200 l 713 43 q 601 3 661 17 q 463 -11 540 -11 q 227 35 322 -11 q 83 161 132 81 q 35 347 35 242 q 87 536 35 456 q 226 661 139 617 q 419 706 314 706 q 660 608 576 706 q 743 329 743 510 l 329 276 q 501 183 375 183 m 307 404 l 525 450 q 494 516 519 494 q 432 538 469 538 q 344 499 376 538 q 307 404 311 461 m 400 772 q 208 859 283 772 q 126 1131 132 946 l 322 1131 q 344 988 322 1029 q 400 946 365 946 q 454 986 435 946 q 474 1131 474 1026 l 672 1131 q 592 857 667 942 q 400 772 517 772 z "},"ě":{"ha":771,"x_min":35,"x_max":743,"o":"m 501 183 q 587 192 542 183 q 679 222 632 200 l 713 43 q 601 3 661 17 q 463 -11 540 -11 q 227 35 322 -11 q 83 161 132 81 q 35 347 35 242 q 87 536 35 456 q 226 661 139 617 q 419 706 314 706 q 660 608 576 706 q 743 329 743 510 l 329 276 q 501 183 375 183 m 307 404 l 525 450 q 494 516 519 494 q 432 538 469 538 q 344 499 376 538 q 307 404 311 461 m 271 786 l 100 1132 l 331 1132 l 385 983 l 399 929 q 420 992 407 954 q 447 1068 433 1029 q 468 1132 460 1107 l 699 1132 l 528 786 l 271 786 z "},"ê":{"ha":771,"x_min":35,"x_max":743,"o":"m 501 183 q 587 192 542 183 q 679 222 632 200 l 713 43 q 601 3 661 17 q 463 -11 540 -11 q 227 35 322 -11 q 83 161 132 81 q 35 347 35 242 q 87 536 35 456 q 226 661 139 617 q 419 706 314 706 q 660 608 576 706 q 743 329 743 510 l 329 276 q 501 183 375 183 m 307 404 l 525 450 q 494 516 519 494 q 432 538 469 538 q 344 499 376 538 q 307 404 311 461 m 100 786 l 271 1132 l 528 1132 l 699 786 l 468 786 l 415 933 l 399 986 l 385 933 l 331 786 l 100 786 z "},"ế":{"ha":771,"x_min":35,"x_max":989,"o":"m 501 183 q 587 192 542 183 q 679 222 632 200 l 713 43 q 601 3 661 17 q 463 -11 540 -11 q 227 35 322 -11 q 83 161 132 81 q 35 347 35 242 q 87 536 35 456 q 226 661 139 617 q 419 706 314 706 q 660 608 576 706 q 743 329 743 510 l 329 276 q 501 183 375 183 m 307 404 l 525 450 q 494 516 519 494 q 432 538 469 538 q 344 499 376 538 q 307 404 311 461 m 664 976 l 569 1056 l 811 1397 l 989 1260 l 664 976 m 100 786 l 271 1061 l 528 1061 l 699 786 l 472 786 l 399 926 l 326 786 l 100 786 z "},"ệ":{"ha":771,"x_min":35,"x_max":743,"o":"m 501 183 q 587 192 542 183 q 679 222 632 200 l 713 43 q 601 3 661 17 q 463 -11 540 -11 q 227 35 322 -11 q 83 161 132 81 q 35 347 35 242 q 87 536 35 456 q 226 661 139 617 q 419 706 314 706 q 660 608 576 706 q 743 329 743 510 l 329 276 q 501 183 375 183 m 307 404 l 525 450 q 494 516 519 494 q 432 538 469 538 q 344 499 376 538 q 307 404 311 461 m 400 -358 q 290 -317 336 -358 q 244 -217 244 -276 q 267 -144 244 -176 q 325 -94 289 -112 q 400 -76 361 -76 q 478 -96 443 -76 q 535 -147 514 -115 q 557 -217 557 -179 q 534 -290 557 -258 q 476 -340 511 -322 q 400 -358 440 -358 m 100 786 l 271 1132 l 528 1132 l 699 786 l 468 786 l 415 933 l 399 986 l 385 933 l 331 786 l 100 786 z "},"ề":{"ha":771,"x_min":35,"x_max":781,"o":"m 501 183 q 587 192 542 183 q 679 222 632 200 l 713 43 q 601 3 661 17 q 463 -11 540 -11 q 227 35 322 -11 q 83 161 132 81 q 35 347 35 242 q 87 536 35 456 q 226 661 139 617 q 419 706 314 706 q 660 608 576 706 q 743 329 743 510 l 329 276 q 501 183 375 183 m 307 404 l 525 450 q 494 516 519 494 q 432 538 469 538 q 344 499 376 538 q 307 404 311 461 m 686 976 l 361 1260 l 539 1397 l 781 1056 l 686 976 m 101 786 l 272 1061 l 529 1061 l 700 786 l 474 786 l 401 926 l 328 786 l 101 786 z "},"ể":{"ha":771,"x_min":35,"x_max":901,"o":"m 501 183 q 587 192 542 183 q 679 222 632 200 l 713 43 q 601 3 661 17 q 463 -11 540 -11 q 227 35 322 -11 q 83 161 132 81 q 35 347 35 242 q 87 536 35 456 q 226 661 139 617 q 419 706 314 706 q 660 608 576 706 q 743 329 743 510 l 329 276 q 501 183 375 183 m 307 404 l 525 450 q 494 516 519 494 q 432 538 469 538 q 344 499 376 538 q 307 404 311 461 m 617 976 q 631 1036 617 1014 q 664 1074 646 1058 q 697 1104 682 1089 q 711 1142 711 1119 q 698 1167 711 1157 q 654 1176 685 1176 q 608 1171 632 1176 q 557 1156 585 1165 l 546 1271 q 626 1291 582 1283 q 717 1299 671 1299 q 860 1263 818 1299 q 901 1174 901 1228 q 885 1103 901 1129 q 846 1058 868 1076 q 807 1022 824 1040 q 790 976 790 1004 l 617 976 m 101 786 l 272 1061 l 529 1061 l 700 786 l 474 786 l 401 926 l 328 786 l 101 786 z "},"ễ":{"ha":771,"x_min":35,"x_max":743,"o":"m 501 183 q 587 192 542 183 q 679 222 632 200 l 713 43 q 601 3 661 17 q 463 -11 540 -11 q 227 35 322 -11 q 83 161 132 81 q 35 347 35 242 q 87 536 35 456 q 226 661 139 617 q 419 706 314 706 q 660 608 576 706 q 743 329 743 510 l 329 276 q 501 183 375 183 m 307 404 l 525 450 q 494 516 519 494 q 432 538 469 538 q 344 499 376 538 q 307 404 311 461 m 242 1124 l 114 1181 q 201 1319 149 1274 q 317 1365 253 1365 q 381 1352 353 1365 q 434 1326 408 1339 q 489 1313 460 1313 q 524 1326 508 1313 q 558 1367 540 1340 l 686 1311 q 599 1172 651 1218 q 483 1125 547 1125 q 420 1138 449 1125 q 366 1165 392 1151 q 311 1178 340 1178 q 276 1165 292 1178 q 242 1124 260 1151 m 101 786 l 272 1061 l 529 1061 l 700 786 l 474 786 l 401 926 l 328 786 l 101 786 z "},"ȅ":{"ha":771,"x_min":6,"x_max":743,"o":"m 501 183 q 587 192 542 183 q 679 222 632 200 l 713 43 q 601 3 661 17 q 463 -11 540 -11 q 227 35 322 -11 q 83 161 132 81 q 35 347 35 242 q 87 536 35 456 q 226 661 139 617 q 419 706 314 706 q 660 608 576 706 q 743 329 743 510 l 329 276 q 501 183 375 183 m 307 404 l 525 450 q 494 516 519 494 q 432 538 469 538 q 344 499 376 538 q 307 404 311 461 m 219 772 l 6 1119 l 224 1208 l 368 825 l 219 772 m 479 774 l 321 1150 l 551 1206 l 636 806 l 479 774 z "},"ë":{"ha":771,"x_min":35,"x_max":751,"o":"m 501 183 q 587 192 542 183 q 679 222 632 200 l 713 43 q 601 3 661 17 q 463 -11 540 -11 q 227 35 322 -11 q 83 161 132 81 q 35 347 35 242 q 87 536 35 456 q 226 661 139 617 q 419 706 314 706 q 660 608 576 706 q 743 329 743 510 l 329 276 q 501 183 375 183 m 307 404 l 525 450 q 494 516 519 494 q 432 538 469 538 q 344 499 376 538 q 307 404 311 461 m 204 772 q 94 813 140 772 q 49 911 49 853 q 71 983 49 951 q 128 1034 93 1015 q 204 1053 164 1053 q 283 1033 247 1053 q 340 981 318 1014 q 361 911 361 949 q 338 838 361 869 q 280 790 315 807 q 204 772 244 772 m 597 772 q 484 815 528 772 q 440 911 440 857 q 463 985 440 953 q 522 1035 486 1017 q 597 1053 558 1053 q 679 1031 644 1053 q 733 978 714 1010 q 751 911 751 946 q 730 840 751 871 q 673 790 708 808 q 597 772 638 772 z "},"ė":{"ha":771,"x_min":35,"x_max":743,"o":"m 501 183 q 587 192 542 183 q 679 222 632 200 l 713 43 q 601 3 661 17 q 463 -11 540 -11 q 227 35 322 -11 q 83 161 132 81 q 35 347 35 242 q 87 536 35 456 q 226 661 139 617 q 419 706 314 706 q 660 608 576 706 q 743 329 743 510 l 329 276 q 501 183 375 183 m 307 404 l 525 450 q 494 516 519 494 q 432 538 469 538 q 344 499 376 538 q 307 404 311 461 m 400 772 q 290 813 336 772 q 244 914 244 854 q 267 987 244 956 q 325 1036 289 1018 q 400 1054 361 1054 q 478 1035 443 1054 q 535 983 514 1015 q 557 914 557 951 q 534 840 557 872 q 476 790 511 808 q 400 772 440 772 z "},"ẹ":{"ha":771,"x_min":35,"x_max":743,"o":"m 501 183 q 587 192 542 183 q 679 222 632 200 l 713 43 q 601 3 661 17 q 463 -11 540 -11 q 227 35 322 -11 q 83 161 132 81 q 35 347 35 242 q 87 536 35 456 q 226 661 139 617 q 419 706 314 706 q 660 608 576 706 q 743 329 743 510 l 329 276 q 501 183 375 183 m 307 404 l 525 450 q 494 516 519 494 q 432 538 469 538 q 344 499 376 538 q 307 404 311 461 m 400 -358 q 290 -317 336 -358 q 244 -217 244 -276 q 267 -144 244 -176 q 325 -94 289 -112 q 400 -76 361 -76 q 478 -96 443 -76 q 535 -147 514 -115 q 557 -217 557 -179 q 534 -290 557 -258 q 476 -340 511 -322 q 400 -358 440 -358 z "},"è":{"ha":771,"x_min":35,"x_max":743,"o":"m 501 183 q 587 192 542 183 q 679 222 632 200 l 713 43 q 601 3 661 17 q 463 -11 540 -11 q 227 35 322 -11 q 83 161 132 81 q 35 347 35 242 q 87 536 35 456 q 226 661 139 617 q 419 706 314 706 q 660 608 576 706 q 743 329 743 510 l 329 276 q 501 183 375 183 m 307 404 l 525 450 q 494 516 519 494 q 432 538 469 538 q 344 499 376 538 q 307 404 311 461 m 554 772 l 92 957 l 232 1206 l 639 921 l 554 772 z "},"ẻ":{"ha":771,"x_min":35,"x_max":743,"o":"m 501 183 q 587 192 542 183 q 679 222 632 200 l 713 43 q 601 3 661 17 q 463 -11 540 -11 q 227 35 322 -11 q 83 161 132 81 q 35 347 35 242 q 87 536 35 456 q 226 661 139 617 q 419 706 314 706 q 660 608 576 706 q 743 329 743 510 l 329 276 q 501 183 375 183 m 307 404 l 525 450 q 494 516 519 494 q 432 538 469 538 q 344 499 376 538 q 307 404 311 461 m 315 786 q 313 808 314 797 q 311 835 311 818 q 326 888 311 868 q 358 922 340 907 q 391 951 376 936 q 406 989 406 967 q 392 1014 406 1004 q 349 1024 379 1024 q 303 1018 326 1024 q 251 1003 279 1013 l 240 1118 q 321 1138 276 1131 q 411 1146 365 1146 q 554 1110 513 1146 q 596 1021 596 1075 q 579 949 596 976 q 540 903 563 922 q 501 864 518 885 q 485 810 485 843 l 485 786 l 315 786 z "},"ȇ":{"ha":771,"x_min":35,"x_max":743,"o":"m 501 183 q 587 192 542 183 q 679 222 632 200 l 713 43 q 601 3 661 17 q 463 -11 540 -11 q 227 35 322 -11 q 83 161 132 81 q 35 347 35 242 q 87 536 35 456 q 226 661 139 617 q 419 706 314 706 q 660 608 576 706 q 743 329 743 510 l 329 276 q 501 183 375 183 m 307 404 l 525 450 q 494 516 519 494 q 432 538 469 538 q 344 499 376 538 q 307 404 311 461 m 126 786 q 207 1060 132 975 q 399 1144 282 1144 q 591 1058 515 1144 q 672 786 667 972 l 476 786 q 455 930 476 889 q 399 971 433 971 q 344 931 364 971 q 325 786 325 890 l 126 786 z "},"ē":{"ha":771,"x_min":35,"x_max":743,"o":"m 501 183 q 587 192 542 183 q 679 222 632 200 l 713 43 q 601 3 661 17 q 463 -11 540 -11 q 227 35 322 -11 q 83 161 132 81 q 35 347 35 242 q 87 536 35 456 q 226 661 139 617 q 419 706 314 706 q 660 608 576 706 q 743 329 743 510 l 329 276 q 501 183 375 183 m 307 404 l 525 450 q 494 516 519 494 q 432 538 469 538 q 344 499 376 538 q 307 404 311 461 m 158 786 l 158 964 l 642 964 l 642 786 l 158 786 z "},"ę":{"ha":771,"x_min":35,"x_max":743,"o":"m 425 -194 q 492 -251 425 -251 q 557 -239 519 -251 l 557 -319 q 492 -339 525 -333 q 429 -344 460 -344 q 294 -310 340 -344 q 247 -219 247 -275 q 291 -109 247 -162 q 415 -10 335 -56 q 132 99 229 1 q 35 347 35 197 q 87 536 35 456 q 226 661 139 617 q 419 706 314 706 q 660 608 576 706 q 743 329 743 510 l 329 276 q 501 183 375 183 q 587 192 542 183 q 679 222 632 200 l 713 43 q 632 6 681 31 q 536 -51 583 -19 q 457 -120 489 -83 q 425 -194 425 -157 m 307 404 l 525 450 q 494 516 519 494 q 432 538 469 538 q 344 499 376 538 q 307 404 311 461 z "},"ẽ":{"ha":771,"x_min":35,"x_max":743,"o":"m 501 183 q 587 192 542 183 q 679 222 632 200 l 713 43 q 601 3 661 17 q 463 -11 540 -11 q 227 35 322 -11 q 83 161 132 81 q 35 347 35 242 q 87 536 35 456 q 226 661 139 617 q 419 706 314 706 q 660 608 576 706 q 743 329 743 510 l 329 276 q 501 183 375 183 m 307 404 l 525 450 q 494 516 519 494 q 432 538 469 538 q 344 499 376 538 q 307 404 311 461 m 213 775 l 63 842 q 165 1006 103 951 q 301 1060 226 1060 q 376 1043 343 1060 q 439 1010 408 1026 q 504 993 469 993 q 547 1012 528 993 q 586 1061 565 1031 l 736 996 q 635 831 697 886 q 497 776 572 776 q 423 793 456 776 q 360 826 390 810 q 294 843 329 843 q 253 825 272 843 q 213 775 233 807 z "},"ə":{"ha":774,"x_min":18,"x_max":739,"o":"m 382 -11 q 181 36 264 -11 q 58 168 97 83 q 31 365 18 253 l 467 418 q 398 490 444 468 q 293 511 351 511 q 190 501 238 511 q 94 472 143 490 l 61 651 q 188 692 124 679 q 339 706 251 706 q 555 660 465 706 q 692 533 644 614 q 739 347 739 453 q 688 158 739 239 q 556 33 638 78 q 382 -11 475 -11 m 269 244 q 369 157 282 157 q 451 194 422 157 q 486 290 481 231 l 269 244 z "},"f":{"ha":542,"x_min":0,"x_max":567,"o":"m 88 0 l 88 524 l 0 524 l 0 696 l 88 696 l 88 736 q 125 867 88 813 q 229 952 163 922 q 383 982 296 982 q 567 951 494 982 l 547 775 q 488 785 517 782 q 431 789 458 789 q 338 732 338 789 q 347 696 338 714 l 543 696 l 543 524 l 381 524 l 381 0 l 88 0 z "},"g":{"ha":974,"x_min":35,"x_max":904,"o":"m 483 -271 q 385 -264 431 -271 q 313 -247 339 -257 l 335 -46 q 389 -55 360 -51 q 446 -58 418 -58 q 580 -19 539 -58 q 621 100 621 19 l 621 165 q 525 53 582 89 q 382 17 468 17 q 204 62 283 17 q 80 185 125 107 q 35 365 35 264 q 80 543 35 467 q 204 663 125 619 q 382 706 283 706 q 515 669 451 706 q 613 550 579 632 l 613 696 l 904 696 l 904 163 q 794 -165 904 -60 q 483 -271 685 -271 m 472 236 q 572 274 532 236 q 613 364 613 311 q 572 451 613 417 q 472 486 532 486 q 367 450 408 486 q 326 361 326 414 q 367 273 326 310 q 472 236 408 236 z "},"ğ":{"ha":974,"x_min":35,"x_max":904,"o":"m 483 -271 q 385 -264 431 -271 q 313 -247 339 -257 l 335 -46 q 389 -55 360 -51 q 446 -58 418 -58 q 580 -19 539 -58 q 621 100 621 19 l 621 165 q 525 53 582 89 q 382 17 468 17 q 204 62 283 17 q 80 185 125 107 q 35 365 35 264 q 80 543 35 467 q 204 663 125 619 q 382 706 283 706 q 515 669 451 706 q 613 550 579 632 l 613 696 l 904 696 l 904 163 q 794 -165 904 -60 q 483 -271 685 -271 m 472 236 q 572 274 532 236 q 613 364 613 311 q 572 451 613 417 q 472 486 532 486 q 367 450 408 486 q 326 361 326 414 q 367 273 326 310 q 472 236 408 236 m 490 772 q 298 859 374 772 q 217 1131 222 946 l 413 1131 q 434 988 413 1029 q 490 946 456 946 q 544 986 525 946 q 564 1131 564 1026 l 763 1131 q 682 857 757 942 q 490 772 607 772 z "},"ǧ":{"ha":974,"x_min":35,"x_max":904,"o":"m 483 -271 q 385 -264 431 -271 q 313 -247 339 -257 l 335 -46 q 389 -55 360 -51 q 446 -58 418 -58 q 580 -19 539 -58 q 621 100 621 19 l 621 165 q 525 53 582 89 q 382 17 468 17 q 204 62 283 17 q 80 185 125 107 q 35 365 35 264 q 80 543 35 467 q 204 663 125 619 q 382 706 283 706 q 515 669 451 706 q 613 550 579 632 l 613 696 l 904 696 l 904 163 q 794 -165 904 -60 q 483 -271 685 -271 m 472 236 q 572 274 532 236 q 613 364 613 311 q 572 451 613 417 q 472 486 532 486 q 367 450 408 486 q 326 361 326 414 q 367 273 326 310 q 472 236 408 236 m 361 786 l 190 1132 l 421 1132 l 475 983 l 489 929 q 510 992 497 954 q 537 1068 524 1029 q 558 1132 550 1107 l 789 1132 l 618 786 l 361 786 z "},"ĝ":{"ha":974,"x_min":35,"x_max":904,"o":"m 483 -271 q 385 -264 431 -271 q 313 -247 339 -257 l 335 -46 q 389 -55 360 -51 q 446 -58 418 -58 q 580 -19 539 -58 q 621 100 621 19 l 621 165 q 525 53 582 89 q 382 17 468 17 q 204 62 283 17 q 80 185 125 107 q 35 365 35 264 q 80 543 35 467 q 204 663 125 619 q 382 706 283 706 q 515 669 451 706 q 613 550 579 632 l 613 696 l 904 696 l 904 163 q 794 -165 904 -60 q 483 -271 685 -271 m 472 236 q 572 274 532 236 q 613 364 613 311 q 572 451 613 417 q 472 486 532 486 q 367 450 408 486 q 326 361 326 414 q 367 273 326 310 q 472 236 408 236 m 190 786 l 361 1132 l 618 1132 l 789 786 l 558 786 l 506 933 l 489 986 l 475 933 l 421 786 l 190 786 z "},"ģ":{"ha":974,"x_min":35,"x_max":904,"o":"m 483 -271 q 385 -264 431 -271 q 313 -247 339 -257 l 335 -46 q 389 -55 360 -51 q 446 -58 418 -58 q 580 -19 539 -58 q 621 100 621 19 l 621 165 q 525 53 582 89 q 382 17 468 17 q 204 62 283 17 q 80 185 125 107 q 35 365 35 264 q 80 543 35 467 q 204 663 125 619 q 382 706 283 706 q 515 669 451 706 q 613 550 579 632 l 613 696 l 904 696 l 904 163 q 794 -165 904 -60 q 483 -271 685 -271 m 472 236 q 572 274 532 236 q 613 364 613 311 q 572 451 613 417 q 472 486 532 486 q 367 450 408 486 q 326 361 326 414 q 367 273 326 310 q 472 236 408 236 m 361 786 l 361 907 q 419 1119 361 1054 q 618 1183 476 1183 l 618 1071 q 535 1056 558 1071 q 507 1008 511 1040 l 618 1008 l 618 786 l 361 786 z "},"ġ":{"ha":974,"x_min":35,"x_max":904,"o":"m 483 -271 q 385 -264 431 -271 q 313 -247 339 -257 l 335 -46 q 389 -55 360 -51 q 446 -58 418 -58 q 580 -19 539 -58 q 621 100 621 19 l 621 165 q 525 53 582 89 q 382 17 468 17 q 204 62 283 17 q 80 185 125 107 q 35 365 35 264 q 80 543 35 467 q 204 663 125 619 q 382 706 283 706 q 515 669 451 706 q 613 550 579 632 l 613 696 l 904 696 l 904 163 q 794 -165 904 -60 q 483 -271 685 -271 m 472 236 q 572 274 532 236 q 613 364 613 311 q 572 451 613 417 q 472 486 532 486 q 367 450 408 486 q 326 361 326 414 q 367 273 326 310 q 472 236 408 236 m 490 772 q 381 813 426 772 q 335 914 335 854 q 357 987 335 956 q 415 1036 379 1018 q 490 1054 451 1054 q 569 1035 533 1054 q 626 983 604 1015 q 647 914 647 951 q 624 840 647 872 q 566 790 601 808 q 490 772 531 772 z "},"h":{"ha":953,"x_min":69,"x_max":890,"o":"m 69 0 l 69 915 l 363 958 l 363 553 q 454 665 392 625 q 604 706 517 706 q 815 612 740 706 q 890 347 890 518 l 890 0 l 597 0 l 597 363 q 497 486 597 486 q 400 442 438 486 q 363 325 363 399 l 363 0 l 69 0 z "},"ħ":{"ha":953,"x_min":0,"x_max":890,"o":"m 69 0 l 69 750 l 0 750 l 0 868 l 69 868 l 69 915 l 363 958 l 363 868 l 461 868 l 461 750 l 363 750 l 363 553 q 454 665 392 625 q 604 706 517 706 q 815 612 740 706 q 890 347 890 518 l 890 0 l 597 0 l 597 363 q 497 486 597 486 q 400 442 438 486 q 363 325 363 399 l 363 0 l 69 0 z "},"ĥ":{"ha":953,"x_min":69,"x_max":890,"o":"m 69 0 l 69 915 l 363 958 l 363 553 q 454 665 392 625 q 604 706 517 706 q 815 612 740 706 q 890 347 890 518 l 890 0 l 597 0 l 597 363 q 497 486 597 486 q 400 442 438 486 q 363 325 363 399 l 363 0 l 69 0 m 181 1046 l 351 1392 l 608 1392 l 779 1046 l 549 1046 l 496 1193 l 479 1246 l 465 1193 l 411 1046 l 181 1046 z "},"i":{"ha":496,"x_min":57,"x_max":494,"o":"m 326 -11 q 176 22 233 -11 q 92 113 118 56 q 65 240 65 169 l 65 696 l 358 696 l 358 281 q 377 231 358 249 q 422 214 396 214 q 479 231 450 214 l 494 38 q 415 1 464 14 q 326 -11 367 -11 m 213 772 q 103 813 149 772 q 57 914 57 854 q 79 987 57 956 q 138 1036 101 1018 q 213 1054 174 1054 q 291 1035 256 1054 q 348 983 326 1015 q 369 914 369 951 q 347 840 369 872 q 288 790 324 808 q 213 772 253 772 z "},"ı":{"ha":496,"x_min":65,"x_max":494,"o":"m 326 -11 q 176 22 233 -11 q 92 113 118 56 q 65 240 65 169 l 65 696 l 358 696 l 358 281 q 377 231 358 249 q 422 214 396 214 q 479 231 450 214 l 494 38 q 415 1 464 14 q 326 -11 367 -11 z "},"í":{"ha":496,"x_min":-26,"x_max":521,"o":"m 326 -11 q 176 22 233 -11 q 92 113 118 56 q 65 240 65 169 l 65 696 l 358 696 l 358 281 q 377 231 358 249 q 422 214 396 214 q 479 231 450 214 l 494 38 q 415 1 464 14 q 326 -11 367 -11 m 58 772 l -26 921 l 381 1206 l 521 957 l 58 772 z "},"ĭ":{"ha":496,"x_min":-61,"x_max":494,"o":"m 326 -11 q 176 22 233 -11 q 92 113 118 56 q 65 240 65 169 l 65 696 l 358 696 l 358 281 q 377 231 358 249 q 422 214 396 214 q 479 231 450 214 l 494 38 q 415 1 464 14 q 326 -11 367 -11 m 213 772 q 20 859 96 772 q -61 1131 -56 946 l 135 1131 q 156 988 135 1029 q 213 946 178 946 q 267 986 247 946 q 286 1131 286 1026 l 485 1131 q 404 857 479 942 q 213 772 329 772 z "},"î":{"ha":496,"x_min":-87,"x_max":511,"o":"m 326 -11 q 176 22 233 -11 q 92 113 118 56 q 65 240 65 169 l 65 696 l 358 696 l 358 281 q 377 231 358 249 q 422 214 396 214 q 479 231 450 214 l 494 38 q 415 1 464 14 q 326 -11 367 -11 m -87 786 l 83 1132 l 340 1132 l 511 786 l 281 786 l 228 933 l 211 986 l 197 933 l 143 786 l -87 786 z "},"ȉ":{"ha":496,"x_min":-182,"x_max":494,"o":"m 326 -11 q 176 22 233 -11 q 92 113 118 56 q 65 240 65 169 l 65 696 l 358 696 l 358 281 q 377 231 358 249 q 422 214 396 214 q 479 231 450 214 l 494 38 q 415 1 464 14 q 326 -11 367 -11 m 32 772 l -182 1119 l 36 1208 l 181 825 l 32 772 m 292 774 l 133 1150 l 364 1206 l 449 806 l 292 774 z "},"ï":{"ha":496,"x_min":-139,"x_max":564,"o":"m 326 -11 q 176 22 233 -11 q 92 113 118 56 q 65 240 65 169 l 65 696 l 358 696 l 358 281 q 377 231 358 249 q 422 214 396 214 q 479 231 450 214 l 494 38 q 415 1 464 14 q 326 -11 367 -11 m 17 772 q -93 813 -47 772 q -139 911 -139 853 q -117 983 -139 951 q -59 1034 -94 1015 q 17 1053 -24 1053 q 95 1033 60 1053 q 152 981 131 1014 q 174 911 174 949 q 151 838 174 869 q 92 790 128 807 q 17 772 57 772 m 410 772 q 297 815 340 772 q 253 911 253 857 q 276 985 253 953 q 335 1035 299 1017 q 410 1053 371 1053 q 492 1031 457 1053 q 545 978 526 1010 q 564 911 564 946 q 542 840 564 871 q 485 790 521 808 q 410 772 450 772 z "},"ị":{"ha":496,"x_min":57,"x_max":494,"o":"m 326 -11 q 176 22 233 -11 q 92 113 118 56 q 65 240 65 169 l 65 696 l 358 696 l 358 281 q 377 231 358 249 q 422 214 396 214 q 479 231 450 214 l 494 38 q 415 1 464 14 q 326 -11 367 -11 m 213 772 q 103 813 149 772 q 57 914 57 854 q 79 987 57 956 q 138 1036 101 1018 q 213 1054 174 1054 q 291 1035 256 1054 q 348 983 326 1015 q 369 914 369 951 q 347 840 369 872 q 288 790 324 808 q 213 772 253 772 m 254 -358 q 144 -317 190 -358 q 99 -217 99 -276 q 121 -144 99 -176 q 179 -94 143 -112 q 254 -76 215 -76 q 333 -96 297 -76 q 390 -147 368 -115 q 411 -217 411 -179 q 388 -290 411 -258 q 330 -340 365 -322 q 254 -358 294 -358 z "},"ì":{"ha":496,"x_min":-96,"x_max":494,"o":"m 326 -11 q 176 22 233 -11 q 92 113 118 56 q 65 240 65 169 l 65 696 l 358 696 l 358 281 q 377 231 358 249 q 422 214 396 214 q 479 231 450 214 l 494 38 q 415 1 464 14 q 326 -11 367 -11 m 367 772 l -96 957 l 44 1206 l 451 921 l 367 772 z "},"ỉ":{"ha":496,"x_min":53,"x_max":494,"o":"m 326 -11 q 176 22 233 -11 q 92 113 118 56 q 65 240 65 169 l 65 696 l 358 696 l 358 281 q 377 231 358 249 q 422 214 396 214 q 479 231 450 214 l 494 38 q 415 1 464 14 q 326 -11 367 -11 m 128 786 q 125 808 126 797 q 124 835 124 818 q 138 888 124 868 q 171 922 153 907 q 203 951 189 936 q 218 989 218 967 q 205 1014 218 1004 q 161 1024 192 1024 q 115 1018 139 1024 q 64 1003 92 1013 l 53 1118 q 133 1138 89 1131 q 224 1146 178 1146 q 367 1110 325 1146 q 408 1021 408 1075 q 392 949 408 976 q 353 903 375 922 q 314 864 331 885 q 297 810 297 843 l 297 786 l 128 786 z "},"ȋ":{"ha":496,"x_min":-61,"x_max":494,"o":"m 326 -11 q 176 22 233 -11 q 92 113 118 56 q 65 240 65 169 l 65 696 l 358 696 l 358 281 q 377 231 358 249 q 422 214 396 214 q 479 231 450 214 l 494 38 q 415 1 464 14 q 326 -11 367 -11 m -61 786 q 19 1060 -56 975 q 211 1144 94 1144 q 403 1058 328 1144 q 485 786 479 972 l 289 786 q 267 930 289 889 q 211 971 246 971 q 157 931 176 971 q 138 786 138 890 l -61 786 z "},"ĳ":{"ha":971,"x_min":57,"x_max":913,"o":"m 326 -11 q 176 22 233 -11 q 92 113 118 56 q 65 240 65 169 l 65 696 l 358 696 l 358 281 q 377 231 358 249 q 422 214 396 214 q 479 231 450 214 l 494 38 q 415 1 464 14 q 326 -11 367 -11 m 213 772 q 103 813 149 772 q 57 914 57 854 q 79 987 57 956 q 138 1036 101 1018 q 213 1054 174 1054 q 291 1035 256 1054 q 348 983 326 1015 q 369 914 369 951 q 347 840 369 872 q 288 790 324 808 q 213 772 253 772 m 575 -271 q 469 -260 518 -271 q 385 -235 421 -250 l 426 -36 q 474 -49 450 -44 q 517 -53 497 -53 q 587 -28 565 -53 q 608 53 608 -3 l 608 696 l 901 696 l 901 78 q 821 -181 901 -90 q 575 -271 740 -271 m 756 772 q 646 813 692 772 q 600 914 600 854 q 622 987 600 956 q 681 1036 644 1018 q 756 1054 717 1054 q 834 1035 799 1054 q 891 983 869 1015 q 913 914 913 951 q 890 840 913 872 q 831 790 867 808 q 756 772 796 772 z "},"ī":{"ha":496,"x_min":-29,"x_max":494,"o":"m 326 -11 q 176 22 233 -11 q 92 113 118 56 q 65 240 65 169 l 65 696 l 358 696 l 358 281 q 377 231 358 249 q 422 214 396 214 q 479 231 450 214 l 494 38 q 415 1 464 14 q 326 -11 367 -11 m -29 786 l -29 964 l 454 964 l 454 786 l -29 786 z "},"į":{"ha":496,"x_min":57,"x_max":494,"o":"m 213 772 q 103 813 149 772 q 57 914 57 854 q 79 987 57 956 q 138 1036 101 1018 q 213 1054 174 1054 q 291 1035 256 1054 q 348 983 326 1015 q 369 914 369 951 q 347 840 369 872 q 288 790 324 808 q 213 772 253 772 m 271 -344 q 135 -310 182 -344 q 89 -219 89 -275 q 134 -108 89 -162 q 264 -7 179 -54 q 116 73 167 11 q 65 240 65 135 l 65 696 l 360 696 l 360 281 q 378 231 360 249 q 422 214 396 214 q 479 231 450 214 l 494 38 q 353 -56 403 -12 q 285 -133 304 -99 q 267 -194 267 -167 q 333 -251 267 -251 q 399 -239 361 -251 l 399 -319 q 334 -339 367 -333 q 271 -344 301 -344 z "},"ĩ":{"ha":496,"x_min":-125,"x_max":549,"o":"m 326 -11 q 176 22 233 -11 q 92 113 118 56 q 65 240 65 169 l 65 696 l 358 696 l 358 281 q 377 231 358 249 q 422 214 396 214 q 479 231 450 214 l 494 38 q 415 1 464 14 q 326 -11 367 -11 m 25 775 l -125 842 q -23 1006 -85 951 q 114 1060 39 1060 q 188 1043 156 1060 q 251 1010 221 1026 q 317 993 282 993 q 359 1012 340 993 q 399 1061 378 1031 l 549 996 q 447 831 510 886 q 310 776 385 776 q 235 793 268 776 q 172 826 203 810 q 107 843 142 843 q 65 825 85 843 q 25 775 46 807 z "},"j":{"ha":447,"x_min":-139,"x_max":389,"o":"m 51 -271 q -54 -260 -6 -271 q -139 -235 -103 -250 l -97 -36 q -50 -49 -74 -44 q -7 -53 -26 -53 q 63 -28 42 -53 q 85 53 85 -3 l 85 696 l 378 696 l 378 78 q 297 -181 378 -90 q 51 -271 217 -271 m 232 772 q 122 813 168 772 q 76 914 76 854 q 99 987 76 956 q 157 1036 121 1018 q 232 1054 193 1054 q 310 1035 275 1054 q 367 983 346 1015 q 389 914 389 951 q 366 840 389 872 q 308 790 343 808 q 232 772 272 772 z "},"ȷ":{"ha":447,"x_min":-139,"x_max":378,"o":"m 51 -271 q -54 -260 -6 -271 q -139 -235 -103 -250 l -97 -36 q -50 -49 -74 -44 q -7 -53 -26 -53 q 63 -28 42 -53 q 85 53 85 -3 l 85 696 l 378 696 l 378 78 q 297 -181 378 -90 q 51 -271 217 -271 z "},"ĵ":{"ha":447,"x_min":-139,"x_max":531,"o":"m 51 -271 q -54 -260 -6 -271 q -139 -235 -103 -250 l -97 -36 q -50 -49 -74 -44 q -7 -53 -26 -53 q 63 -28 42 -53 q 85 53 85 -3 l 85 696 l 378 696 l 378 78 q 297 -181 378 -90 q 51 -271 217 -271 m -68 786 l 103 1132 l 360 1132 l 531 786 l 300 786 l 247 933 l 231 986 l 217 933 l 163 786 l -68 786 z "},"k":{"ha":869,"x_min":69,"x_max":857,"o":"m 363 0 l 69 0 l 69 915 l 363 958 l 363 482 l 689 747 l 839 554 l 643 390 q 700 252 663 292 q 797 213 738 213 q 857 221 822 213 l 836 -3 q 789 -10 810 -8 q 749 -11 768 -11 q 531 55 611 -11 q 414 249 451 121 l 363 204 l 363 0 z "},"ķ":{"ha":869,"x_min":69,"x_max":857,"o":"m 363 0 l 69 0 l 69 915 l 363 958 l 363 482 l 689 747 l 839 554 l 643 390 q 700 252 663 292 q 797 213 738 213 q 857 221 822 213 l 836 -3 q 789 -10 810 -8 q 749 -11 768 -11 q 531 55 611 -11 q 414 249 451 121 l 363 204 l 363 0 m 314 -487 l 314 -375 q 398 -360 375 -375 q 425 -312 421 -344 l 314 -312 l 314 -90 l 571 -90 l 571 -211 q 513 -423 571 -358 q 314 -487 456 -487 z "},"ĸ":{"ha":869,"x_min":69,"x_max":857,"o":"m 363 0 l 69 0 l 69 696 l 363 696 l 363 482 l 689 747 l 839 554 l 643 390 q 700 252 663 292 q 797 213 738 213 q 857 221 822 213 l 836 -3 q 789 -10 810 -8 q 749 -11 768 -11 q 531 55 611 -11 q 414 249 451 121 l 363 204 l 363 0 z "},"l":{"ha":521,"x_min":65,"x_max":521,"o":"m 343 -11 q 183 22 244 -11 q 93 113 121 56 q 65 240 65 169 l 65 943 l 358 986 l 358 281 q 379 231 358 249 q 433 214 400 214 q 500 231 467 214 l 521 38 q 436 1 488 14 q 343 -11 385 -11 z "},"ĺ":{"ha":521,"x_min":-26,"x_max":521,"o":"m 343 -11 q 183 22 244 -11 q 93 113 121 56 q 65 240 65 169 l 65 943 l 358 986 l 358 281 q 379 231 358 249 q 433 214 400 214 q 500 231 467 214 l 521 38 q 436 1 488 14 q 343 -11 385 -11 m 58 1032 l -26 1181 l 381 1465 l 521 1217 l 58 1032 z "},"ľ":{"ha":521,"x_min":65,"x_max":699,"o":"m 343 -11 q 183 22 244 -11 q 93 113 121 56 q 65 240 65 169 l 65 943 l 358 986 l 358 281 q 379 231 358 249 q 433 214 400 214 q 500 231 467 214 l 521 38 q 436 1 488 14 q 343 -11 385 -11 m 442 558 l 442 671 q 526 686 503 671 q 553 733 549 701 l 442 733 l 442 956 l 699 956 l 699 835 q 641 623 699 688 q 442 558 583 558 z "},"ļ":{"ha":521,"x_min":65,"x_max":521,"o":"m 343 -11 q 183 22 244 -11 q 93 113 121 56 q 65 240 65 169 l 65 943 l 358 986 l 358 281 q 379 231 358 249 q 433 214 400 214 q 500 231 467 214 l 521 38 q 436 1 488 14 q 343 -11 385 -11 m 164 -487 l 164 -375 q 248 -360 225 -375 q 275 -312 271 -344 l 164 -312 l 164 -90 l 421 -90 l 421 -211 q 363 -423 421 -358 q 164 -487 306 -487 z "},"ŀ":{"ha":521,"x_min":65,"x_max":697,"o":"m 343 -11 q 183 22 244 -11 q 93 113 121 56 q 65 240 65 169 l 65 943 l 358 986 l 358 281 q 379 231 358 249 q 433 214 400 214 q 500 231 467 214 l 521 38 q 436 1 488 14 q 343 -11 385 -11 m 556 407 q 455 443 497 407 q 413 542 413 479 q 455 638 413 599 q 556 678 497 678 q 656 640 614 678 q 697 542 697 603 q 656 445 697 483 q 556 407 614 407 z "},"ǉ":{"ha":968,"x_min":65,"x_max":910,"o":"m 343 -11 q 183 22 244 -11 q 93 113 121 56 q 65 240 65 169 l 65 943 l 358 986 l 358 281 q 379 231 358 249 q 433 214 400 214 q 500 231 467 214 l 521 38 q 436 1 488 14 q 343 -11 385 -11 m 572 -271 q 467 -260 515 -271 q 382 -235 418 -250 l 424 -36 q 471 -49 447 -44 q 514 -53 494 -53 q 584 -28 563 -53 q 606 53 606 -3 l 606 696 l 899 696 l 899 78 q 818 -181 899 -90 q 572 -271 738 -271 m 753 772 q 643 813 689 772 q 597 914 597 854 q 619 987 597 956 q 678 1036 642 1018 q 753 1054 714 1054 q 831 1035 796 1054 q 888 983 867 1015 q 910 914 910 951 q 887 840 910 872 q 828 790 864 808 q 753 772 793 772 z "},"ł":{"ha":521,"x_min":-1,"x_max":521,"o":"m 343 -11 q 183 22 244 -11 q 93 113 121 56 q 65 240 65 169 l 65 943 l 358 986 l 358 281 q 379 231 358 249 q 433 214 400 214 q 500 231 467 214 l 521 38 q 436 1 488 14 q 343 -11 385 -11 m 500 589 l -1 436 l -1 554 l 500 707 l 500 589 z "},"m":{"ha":1425,"x_min":69,"x_max":1363,"o":"m 69 0 l 69 696 l 358 696 l 358 544 q 447 664 389 622 q 592 706 504 706 q 738 663 678 706 q 824 554 799 621 q 935 665 871 625 q 1092 706 1000 706 q 1292 612 1221 706 q 1363 347 1363 518 l 1363 0 l 1069 0 l 1069 363 q 982 486 1069 486 q 895 442 928 486 q 863 325 863 399 l 863 0 l 569 0 l 569 363 q 547 457 569 428 q 482 486 525 486 q 395 444 428 486 q 363 325 363 401 l 363 0 l 69 0 z "},"n":{"ha":953,"x_min":69,"x_max":890,"o":"m 69 0 l 69 696 l 358 696 l 358 544 q 453 664 390 622 q 604 706 517 706 q 815 612 740 706 q 890 347 890 518 l 890 0 l 597 0 l 597 363 q 497 486 597 486 q 400 442 438 486 q 363 325 363 399 l 363 0 l 69 0 z "},"ń":{"ha":953,"x_min":69,"x_max":890,"o":"m 69 0 l 69 696 l 358 696 l 358 544 q 453 664 390 622 q 604 706 517 706 q 815 612 740 706 q 890 347 890 518 l 890 0 l 597 0 l 597 363 q 497 486 597 486 q 400 442 438 486 q 363 325 363 399 l 363 0 l 69 0 m 324 772 l 239 921 l 646 1206 l 786 957 l 324 772 z "},"ŉ":{"ha":953,"x_min":1,"x_max":890,"o":"m 1 814 l 1 926 q 85 942 63 926 q 113 989 108 957 l 1 989 l 1 1211 l 258 1211 l 258 1090 q 201 878 258 943 q 1 814 143 814 m 69 0 l 69 696 l 358 696 l 358 544 q 453 664 390 622 q 604 706 517 706 q 815 612 740 706 q 890 347 890 518 l 890 0 l 597 0 l 597 363 q 497 486 597 486 q 400 442 438 486 q 363 325 363 399 l 363 0 l 69 0 z "},"ň":{"ha":953,"x_min":69,"x_max":890,"o":"m 69 0 l 69 696 l 358 696 l 358 544 q 453 664 390 622 q 604 706 517 706 q 815 612 740 706 q 890 347 890 518 l 890 0 l 597 0 l 597 363 q 497 486 597 486 q 400 442 438 486 q 363 325 363 399 l 363 0 l 69 0 m 349 786 l 178 1132 l 408 1132 l 463 983 l 476 929 q 498 992 485 954 q 524 1068 511 1029 q 546 1132 538 1107 l 776 1132 l 606 786 l 349 786 z "},"ņ":{"ha":953,"x_min":69,"x_max":890,"o":"m 69 0 l 69 696 l 358 696 l 358 544 q 453 664 390 622 q 604 706 517 706 q 815 612 740 706 q 890 347 890 518 l 890 0 l 597 0 l 597 363 q 497 486 597 486 q 400 442 438 486 q 363 325 363 399 l 363 0 l 69 0 m 351 -487 l 351 -375 q 435 -360 413 -375 q 463 -312 458 -344 l 351 -312 l 351 -90 l 608 -90 l 608 -211 q 551 -423 608 -358 q 351 -487 493 -487 z "},"ǌ":{"ha":1393,"x_min":69,"x_max":1335,"o":"m 69 0 l 69 696 l 358 696 l 358 544 q 453 664 390 622 q 604 706 517 706 q 815 612 740 706 q 890 347 890 518 l 890 0 l 597 0 l 597 363 q 497 486 597 486 q 400 442 438 486 q 363 325 363 399 l 363 0 l 69 0 m 997 -271 q 892 -260 940 -271 q 807 -235 843 -250 l 849 -36 q 896 -49 872 -44 q 939 -53 919 -53 q 1009 -28 988 -53 q 1031 53 1031 -3 l 1031 696 l 1324 696 l 1324 78 q 1243 -181 1324 -90 q 997 -271 1163 -271 m 1178 772 q 1068 813 1114 772 q 1022 914 1022 854 q 1044 987 1022 956 q 1103 1036 1067 1018 q 1178 1054 1139 1054 q 1256 1035 1221 1054 q 1313 983 1292 1015 q 1335 914 1335 951 q 1312 840 1335 872 q 1253 790 1289 808 q 1178 772 1218 772 z "},"ñ":{"ha":953,"x_min":69,"x_max":890,"o":"m 69 0 l 69 696 l 358 696 l 358 544 q 453 664 390 622 q 604 706 517 706 q 815 612 740 706 q 890 347 890 518 l 890 0 l 597 0 l 597 363 q 497 486 597 486 q 400 442 438 486 q 363 325 363 399 l 363 0 l 69 0 m 290 775 l 140 842 q 242 1006 181 951 q 379 1060 304 1060 q 453 1043 421 1060 q 517 1010 486 1026 q 582 993 547 993 q 624 1012 606 993 q 664 1061 643 1031 l 814 996 q 713 831 775 886 q 575 776 650 776 q 501 793 533 776 q 438 826 468 810 q 372 843 407 843 q 331 825 350 843 q 290 775 311 807 z "},"ŋ":{"ha":953,"x_min":69,"x_max":890,"o":"m 604 706 q 815 612 740 706 q 890 347 890 518 l 890 78 q 812 -181 890 -90 q 572 -271 733 -271 q 470 -260 517 -271 q 388 -235 424 -250 l 429 -36 q 513 -53 471 -53 q 577 -28 557 -53 q 597 53 597 -3 l 597 363 q 497 486 597 486 q 400 442 438 486 q 363 325 363 399 l 363 0 l 69 0 l 69 696 l 358 696 l 358 544 q 453 664 390 622 q 604 706 517 706 z "},"o":{"ha":871,"x_min":35,"x_max":836,"o":"m 435 -11 q 226 35 317 -11 q 85 162 136 81 q 35 349 35 243 q 87 537 35 457 q 229 661 139 617 q 436 706 319 706 q 646 660 556 706 q 786 535 736 615 q 836 349 836 456 q 785 160 836 242 q 644 34 735 79 q 435 -11 554 -11 m 438 197 q 531 240 494 197 q 568 349 568 282 q 532 458 568 415 q 440 500 496 500 q 344 458 381 500 q 307 349 307 415 q 344 240 307 282 q 438 197 381 197 z "},"ó":{"ha":871,"x_min":35,"x_max":836,"o":"m 435 -11 q 226 35 317 -11 q 85 162 136 81 q 35 349 35 243 q 87 537 35 457 q 229 661 139 617 q 436 706 319 706 q 646 660 556 706 q 786 535 736 615 q 836 349 836 456 q 785 160 836 242 q 644 34 735 79 q 435 -11 554 -11 m 438 197 q 531 240 494 197 q 568 349 568 282 q 532 458 568 415 q 440 500 496 500 q 344 458 381 500 q 307 349 307 415 q 344 240 307 282 q 438 197 381 197 m 282 772 l 197 921 l 604 1206 l 744 957 l 282 772 z "},"ŏ":{"ha":871,"x_min":35,"x_max":836,"o":"m 435 -11 q 226 35 317 -11 q 85 162 136 81 q 35 349 35 243 q 87 537 35 457 q 229 661 139 617 q 436 706 319 706 q 646 660 556 706 q 786 535 736 615 q 836 349 836 456 q 785 160 836 242 q 644 34 735 79 q 435 -11 554 -11 m 438 197 q 531 240 494 197 q 568 349 568 282 q 532 458 568 415 q 440 500 496 500 q 344 458 381 500 q 307 349 307 415 q 344 240 307 282 q 438 197 381 197 m 436 772 q 244 859 319 772 q 163 1131 168 946 l 358 1131 q 380 988 358 1029 q 436 946 401 946 q 490 986 471 946 q 510 1131 510 1026 l 708 1131 q 628 857 703 942 q 436 772 553 772 z "},"ô":{"ha":871,"x_min":35,"x_max":836,"o":"m 435 -11 q 226 35 317 -11 q 85 162 136 81 q 35 349 35 243 q 87 537 35 457 q 229 661 139 617 q 436 706 319 706 q 646 660 556 706 q 786 535 736 615 q 836 349 836 456 q 785 160 836 242 q 644 34 735 79 q 435 -11 554 -11 m 438 197 q 531 240 494 197 q 568 349 568 282 q 532 458 568 415 q 440 500 496 500 q 344 458 381 500 q 307 349 307 415 q 344 240 307 282 q 438 197 381 197 m 136 786 l 307 1132 l 564 1132 l 735 786 l 504 786 l 451 933 l 435 986 l 421 933 l 367 786 l 136 786 z "},"ố":{"ha":871,"x_min":35,"x_max":1025,"o":"m 435 -11 q 226 35 317 -11 q 85 162 136 81 q 35 349 35 243 q 87 537 35 457 q 229 661 139 617 q 436 706 319 706 q 646 660 556 706 q 786 535 736 615 q 836 349 836 456 q 785 160 836 242 q 644 34 735 79 q 435 -11 554 -11 m 438 197 q 531 240 494 197 q 568 349 568 282 q 532 458 568 415 q 440 500 496 500 q 344 458 381 500 q 307 349 307 415 q 344 240 307 282 q 438 197 381 197 m 700 976 l 606 1056 l 847 1397 l 1025 1260 l 700 976 m 136 786 l 307 1061 l 564 1061 l 735 786 l 508 786 l 435 926 l 363 786 l 136 786 z "},"ộ":{"ha":871,"x_min":35,"x_max":836,"o":"m 435 -11 q 226 35 317 -11 q 85 162 136 81 q 35 349 35 243 q 87 537 35 457 q 229 661 139 617 q 436 706 319 706 q 646 660 556 706 q 786 535 736 615 q 836 349 836 456 q 785 160 836 242 q 644 34 735 79 q 435 -11 554 -11 m 438 197 q 531 240 494 197 q 568 349 568 282 q 532 458 568 415 q 440 500 496 500 q 344 458 381 500 q 307 349 307 415 q 344 240 307 282 q 438 197 381 197 m 436 -358 q 326 -317 372 -358 q 281 -217 281 -276 q 303 -144 281 -176 q 361 -94 325 -112 q 436 -76 397 -76 q 515 -96 479 -76 q 572 -147 550 -115 q 593 -217 593 -179 q 570 -290 593 -258 q 512 -340 547 -322 q 436 -358 476 -358 m 136 786 l 307 1132 l 564 1132 l 735 786 l 504 786 l 451 933 l 435 986 l 421 933 l 367 786 l 136 786 z "},"ồ":{"ha":871,"x_min":35,"x_max":836,"o":"m 435 -11 q 226 35 317 -11 q 85 162 136 81 q 35 349 35 243 q 87 537 35 457 q 229 661 139 617 q 436 706 319 706 q 646 660 556 706 q 786 535 736 615 q 836 349 836 456 q 785 160 836 242 q 644 34 735 79 q 435 -11 554 -11 m 438 197 q 531 240 494 197 q 568 349 568 282 q 532 458 568 415 q 440 500 496 500 q 344 458 381 500 q 307 349 307 415 q 344 240 307 282 q 438 197 381 197 m 722 976 l 397 1260 l 575 1397 l 817 1056 l 722 976 m 138 786 l 308 1061 l 565 1061 l 736 786 l 510 786 l 438 926 l 364 786 l 138 786 z "},"ổ":{"ha":871,"x_min":35,"x_max":938,"o":"m 435 -11 q 226 35 317 -11 q 85 162 136 81 q 35 349 35 243 q 87 537 35 457 q 229 661 139 617 q 436 706 319 706 q 646 660 556 706 q 786 535 736 615 q 836 349 836 456 q 785 160 836 242 q 644 34 735 79 q 435 -11 554 -11 m 438 197 q 531 240 494 197 q 568 349 568 282 q 532 458 568 415 q 440 500 496 500 q 344 458 381 500 q 307 349 307 415 q 344 240 307 282 q 438 197 381 197 m 653 976 q 667 1036 653 1014 q 700 1074 682 1058 q 733 1104 718 1089 q 747 1142 747 1119 q 734 1167 747 1157 q 690 1176 721 1176 q 644 1171 668 1176 q 593 1156 621 1165 l 582 1271 q 663 1291 618 1283 q 753 1299 707 1299 q 896 1263 854 1299 q 938 1174 938 1228 q 921 1103 938 1129 q 882 1058 904 1076 q 843 1022 860 1040 q 826 976 826 1004 l 653 976 m 138 786 l 308 1061 l 565 1061 l 736 786 l 510 786 l 438 926 l 364 786 l 138 786 z "},"ỗ":{"ha":871,"x_min":35,"x_max":836,"o":"m 435 -11 q 226 35 317 -11 q 85 162 136 81 q 35 349 35 243 q 87 537 35 457 q 229 661 139 617 q 436 706 319 706 q 646 660 556 706 q 786 535 736 615 q 836 349 836 456 q 785 160 836 242 q 644 34 735 79 q 435 -11 554 -11 m 438 197 q 531 240 494 197 q 568 349 568 282 q 532 458 568 415 q 440 500 496 500 q 344 458 381 500 q 307 349 307 415 q 344 240 307 282 q 438 197 381 197 m 278 1124 l 150 1181 q 237 1319 185 1274 q 353 1365 289 1365 q 417 1352 389 1365 q 470 1326 444 1339 q 525 1313 496 1313 q 560 1326 544 1313 q 594 1367 576 1340 l 722 1311 q 635 1172 688 1218 q 519 1125 583 1125 q 456 1138 485 1125 q 402 1165 428 1151 q 347 1178 376 1178 q 312 1165 328 1178 q 278 1124 296 1151 m 138 786 l 308 1061 l 565 1061 l 736 786 l 510 786 l 438 926 l 364 786 l 138 786 z "},"ȍ":{"ha":871,"x_min":35,"x_max":836,"o":"m 435 -11 q 226 35 317 -11 q 85 162 136 81 q 35 349 35 243 q 87 537 35 457 q 229 661 139 617 q 436 706 319 706 q 646 660 556 706 q 786 535 736 615 q 836 349 836 456 q 785 160 836 242 q 644 34 735 79 q 435 -11 554 -11 m 438 197 q 531 240 494 197 q 568 349 568 282 q 532 458 568 415 q 440 500 496 500 q 344 458 381 500 q 307 349 307 415 q 344 240 307 282 q 438 197 381 197 m 256 772 l 42 1119 l 260 1208 l 404 825 l 256 772 m 515 774 l 357 1150 l 588 1206 l 672 806 l 515 774 z "},"ö":{"ha":871,"x_min":35,"x_max":836,"o":"m 435 -11 q 226 35 317 -11 q 85 162 136 81 q 35 349 35 243 q 87 537 35 457 q 229 661 139 617 q 436 706 319 706 q 646 660 556 706 q 786 535 736 615 q 836 349 836 456 q 785 160 836 242 q 644 34 735 79 q 435 -11 554 -11 m 438 197 q 531 240 494 197 q 568 349 568 282 q 532 458 568 415 q 440 500 496 500 q 344 458 381 500 q 307 349 307 415 q 344 240 307 282 q 438 197 381 197 m 240 772 q 131 813 176 772 q 85 911 85 853 q 107 983 85 951 q 165 1034 129 1015 q 240 1053 200 1053 q 319 1033 283 1053 q 376 981 354 1014 q 397 911 397 949 q 374 838 397 869 q 316 790 351 807 q 240 772 281 772 m 633 772 q 520 815 564 772 q 476 911 476 857 q 499 985 476 953 q 558 1035 522 1017 q 633 1053 594 1053 q 715 1031 681 1053 q 769 978 750 1010 q 788 911 788 946 q 766 840 788 871 q 709 790 744 808 q 633 772 674 772 z "},"ȫ":{"ha":871,"x_min":35,"x_max":836,"o":"m 435 -11 q 226 35 317 -11 q 85 162 136 81 q 35 349 35 243 q 87 537 35 457 q 229 661 139 617 q 436 706 319 706 q 646 660 556 706 q 786 535 736 615 q 836 349 836 456 q 785 160 836 242 q 644 34 735 79 q 435 -11 554 -11 m 438 197 q 531 240 494 197 q 568 349 568 282 q 532 458 568 415 q 440 500 496 500 q 344 458 381 500 q 307 349 307 415 q 344 240 307 282 q 438 197 381 197 m 240 772 q 131 813 176 772 q 85 911 85 853 q 107 983 85 951 q 165 1034 129 1015 q 240 1053 200 1053 q 319 1033 283 1053 q 376 981 354 1014 q 397 911 397 949 q 374 838 397 869 q 316 790 351 807 q 240 772 281 772 m 633 772 q 520 815 564 772 q 476 911 476 857 q 499 985 476 953 q 558 1035 522 1017 q 633 1053 594 1053 q 715 1031 681 1053 q 769 978 750 1010 q 788 911 788 946 q 766 840 788 871 q 709 790 744 808 q 633 772 674 772 m 194 1125 l 194 1303 l 678 1303 l 678 1125 l 194 1125 z "},"ȱ":{"ha":871,"x_min":35,"x_max":836,"o":"m 435 -11 q 226 35 317 -11 q 85 162 136 81 q 35 349 35 243 q 87 537 35 457 q 229 661 139 617 q 436 706 319 706 q 646 660 556 706 q 786 535 736 615 q 836 349 836 456 q 785 160 836 242 q 644 34 735 79 q 435 -11 554 -11 m 438 197 q 531 240 494 197 q 568 349 568 282 q 532 458 568 415 q 440 500 496 500 q 344 458 381 500 q 307 349 307 415 q 344 240 307 282 q 438 197 381 197 m 436 772 q 326 813 372 772 q 281 914 281 854 q 303 987 281 956 q 361 1036 325 1018 q 436 1054 397 1054 q 515 1035 479 1054 q 572 983 550 1015 q 593 914 593 951 q 570 840 593 872 q 512 790 547 808 q 436 772 476 772 m 194 1125 l 194 1303 l 678 1303 l 678 1125 l 194 1125 z "},"ọ":{"ha":871,"x_min":35,"x_max":836,"o":"m 435 -11 q 226 35 317 -11 q 85 162 136 81 q 35 349 35 243 q 87 537 35 457 q 229 661 139 617 q 436 706 319 706 q 646 660 556 706 q 786 535 736 615 q 836 349 836 456 q 785 160 836 242 q 644 34 735 79 q 435 -11 554 -11 m 438 197 q 531 240 494 197 q 568 349 568 282 q 532 458 568 415 q 440 500 496 500 q 344 458 381 500 q 307 349 307 415 q 344 240 307 282 q 438 197 381 197 m 436 -358 q 326 -317 372 -358 q 281 -217 281 -276 q 303 -144 281 -176 q 361 -94 325 -112 q 436 -76 397 -76 q 515 -96 479 -76 q 572 -147 550 -115 q 593 -217 593 -179 q 570 -290 593 -258 q 512 -340 547 -322 q 436 -358 476 -358 z "},"ò":{"ha":871,"x_min":35,"x_max":836,"o":"m 435 -11 q 226 35 317 -11 q 85 162 136 81 q 35 349 35 243 q 87 537 35 457 q 229 661 139 617 q 436 706 319 706 q 646 660 556 706 q 786 535 736 615 q 836 349 836 456 q 785 160 836 242 q 644 34 735 79 q 435 -11 554 -11 m 438 197 q 531 240 494 197 q 568 349 568 282 q 532 458 568 415 q 440 500 496 500 q 344 458 381 500 q 307 349 307 415 q 344 240 307 282 q 438 197 381 197 m 590 772 l 128 957 l 268 1206 l 675 921 l 590 772 z "},"ỏ":{"ha":871,"x_min":35,"x_max":836,"o":"m 435 -11 q 226 35 317 -11 q 85 162 136 81 q 35 349 35 243 q 87 537 35 457 q 229 661 139 617 q 436 706 319 706 q 646 660 556 706 q 786 535 736 615 q 836 349 836 456 q 785 160 836 242 q 644 34 735 79 q 435 -11 554 -11 m 438 197 q 531 240 494 197 q 568 349 568 282 q 532 458 568 415 q 440 500 496 500 q 344 458 381 500 q 307 349 307 415 q 344 240 307 282 q 438 197 381 197 m 351 786 q 349 808 350 797 q 347 835 347 818 q 362 888 347 868 q 394 922 376 907 q 427 951 413 936 q 442 989 442 967 q 428 1014 442 1004 q 385 1024 415 1024 q 339 1018 363 1024 q 288 1003 315 1013 l 276 1118 q 357 1138 313 1131 q 447 1146 401 1146 q 590 1110 549 1146 q 632 1021 632 1075 q 615 949 632 976 q 576 903 599 922 q 538 864 554 885 q 521 810 521 843 l 521 786 l 351 786 z "},"ơ":{"ha":871,"x_min":35,"x_max":863,"o":"m 435 -11 q 226 35 317 -11 q 85 162 136 81 q 35 349 35 243 q 87 537 35 457 q 229 661 139 617 q 436 706 319 706 q 527 699 493 706 q 597 692 561 692 q 658 699 636 692 q 690 735 681 707 q 700 825 700 764 l 863 825 q 837 656 863 714 q 747 581 811 597 q 815 469 794 526 q 836 349 836 413 q 785 160 836 242 q 644 34 735 79 q 435 -11 554 -11 m 438 197 q 531 240 494 197 q 568 349 568 282 q 532 458 568 415 q 440 500 496 500 q 344 458 381 500 q 307 349 307 415 q 344 240 307 282 q 438 197 381 197 z "},"ớ":{"ha":871,"x_min":35,"x_max":863,"o":"m 435 -11 q 226 35 317 -11 q 85 162 136 81 q 35 349 35 243 q 87 537 35 457 q 229 661 139 617 q 436 706 319 706 q 527 699 493 706 q 597 692 561 692 q 658 699 636 692 q 690 735 681 707 q 700 825 700 764 l 863 825 q 837 656 863 714 q 747 581 811 597 q 815 469 794 526 q 836 349 836 413 q 785 160 836 242 q 644 34 735 79 q 435 -11 554 -11 m 438 197 q 531 240 494 197 q 568 349 568 282 q 532 458 568 415 q 440 500 496 500 q 344 458 381 500 q 307 349 307 415 q 344 240 307 282 q 438 197 381 197 m 282 772 l 197 921 l 604 1206 l 744 957 l 282 772 z "},"ợ":{"ha":871,"x_min":35,"x_max":863,"o":"m 435 -11 q 226 35 317 -11 q 85 162 136 81 q 35 349 35 243 q 87 537 35 457 q 229 661 139 617 q 436 706 319 706 q 527 699 493 706 q 597 692 561 692 q 658 699 636 692 q 690 735 681 707 q 700 825 700 764 l 863 825 q 837 656 863 714 q 747 581 811 597 q 815 469 794 526 q 836 349 836 413 q 785 160 836 242 q 644 34 735 79 q 435 -11 554 -11 m 438 197 q 531 240 494 197 q 568 349 568 282 q 532 458 568 415 q 440 500 496 500 q 344 458 381 500 q 307 349 307 415 q 344 240 307 282 q 438 197 381 197 m 436 -358 q 326 -317 372 -358 q 281 -217 281 -276 q 303 -144 281 -176 q 361 -94 325 -112 q 436 -76 397 -76 q 515 -96 479 -76 q 572 -147 550 -115 q 593 -217 593 -179 q 570 -290 593 -258 q 512 -340 547 -322 q 436 -358 476 -358 z "},"ờ":{"ha":871,"x_min":35,"x_max":863,"o":"m 435 -11 q 226 35 317 -11 q 85 162 136 81 q 35 349 35 243 q 87 537 35 457 q 229 661 139 617 q 436 706 319 706 q 527 699 493 706 q 597 692 561 692 q 658 699 636 692 q 690 735 681 707 q 700 825 700 764 l 863 825 q 837 656 863 714 q 747 581 811 597 q 815 469 794 526 q 836 349 836 413 q 785 160 836 242 q 644 34 735 79 q 435 -11 554 -11 m 438 197 q 531 240 494 197 q 568 349 568 282 q 532 458 568 415 q 440 500 496 500 q 344 458 381 500 q 307 349 307 415 q 344 240 307 282 q 438 197 381 197 m 590 772 l 128 957 l 268 1206 l 675 921 l 590 772 z "},"ở":{"ha":871,"x_min":35,"x_max":863,"o":"m 435 -11 q 226 35 317 -11 q 85 162 136 81 q 35 349 35 243 q 87 537 35 457 q 229 661 139 617 q 436 706 319 706 q 527 699 493 706 q 597 692 561 692 q 658 699 636 692 q 690 735 681 707 q 700 825 700 764 l 863 825 q 837 656 863 714 q 747 581 811 597 q 815 469 794 526 q 836 349 836 413 q 785 160 836 242 q 644 34 735 79 q 435 -11 554 -11 m 438 197 q 531 240 494 197 q 568 349 568 282 q 532 458 568 415 q 440 500 496 500 q 344 458 381 500 q 307 349 307 415 q 344 240 307 282 q 438 197 381 197 m 351 786 q 349 808 350 797 q 347 835 347 818 q 362 888 347 868 q 394 922 376 907 q 427 951 413 936 q 442 989 442 967 q 428 1014 442 1004 q 385 1024 415 1024 q 339 1018 363 1024 q 288 1003 315 1013 l 276 1118 q 357 1138 313 1131 q 447 1146 401 1146 q 590 1110 549 1146 q 632 1021 632 1075 q 615 949 632 976 q 576 903 599 922 q 538 864 554 885 q 521 810 521 843 l 521 786 l 351 786 z "},"ỡ":{"ha":871,"x_min":35,"x_max":863,"o":"m 435 -11 q 226 35 317 -11 q 85 162 136 81 q 35 349 35 243 q 87 537 35 457 q 229 661 139 617 q 436 706 319 706 q 527 699 493 706 q 597 692 561 692 q 658 699 636 692 q 690 735 681 707 q 700 825 700 764 l 863 825 q 837 656 863 714 q 747 581 811 597 q 815 469 794 526 q 836 349 836 413 q 785 160 836 242 q 644 34 735 79 q 435 -11 554 -11 m 438 197 q 531 240 494 197 q 568 349 568 282 q 532 458 568 415 q 440 500 496 500 q 344 458 381 500 q 307 349 307 415 q 344 240 307 282 q 438 197 381 197 m 249 775 l 99 842 q 201 1006 139 951 q 338 1060 263 1060 q 412 1043 379 1060 q 475 1010 444 1026 q 540 993 506 993 q 583 1012 564 993 q 622 1061 601 1031 l 772 996 q 671 831 733 886 q 533 776 608 776 q 459 793 492 776 q 396 826 426 810 q 331 843 365 843 q 289 825 308 843 q 249 775 269 807 z "},"ő":{"ha":871,"x_min":35,"x_max":836,"o":"m 435 -11 q 226 35 317 -11 q 85 162 136 81 q 35 349 35 243 q 87 537 35 457 q 229 661 139 617 q 436 706 319 706 q 646 660 556 706 q 786 535 736 615 q 836 349 836 456 q 785 160 836 242 q 644 34 735 79 q 435 -11 554 -11 m 438 197 q 531 240 494 197 q 568 349 568 282 q 532 458 568 415 q 440 500 496 500 q 344 458 381 500 q 307 349 307 415 q 344 240 307 282 q 438 197 381 197 m 617 772 l 468 825 l 613 1208 l 831 1119 l 617 772 m 357 774 l 200 806 l 285 1206 l 515 1150 l 357 774 z "},"ȏ":{"ha":871,"x_min":35,"x_max":836,"o":"m 435 -11 q 226 35 317 -11 q 85 162 136 81 q 35 349 35 243 q 87 537 35 457 q 229 661 139 617 q 436 706 319 706 q 646 660 556 706 q 786 535 736 615 q 836 349 836 456 q 785 160 836 242 q 644 34 735 79 q 435 -11 554 -11 m 438 197 q 531 240 494 197 q 568 349 568 282 q 532 458 568 415 q 440 500 496 500 q 344 458 381 500 q 307 349 307 415 q 344 240 307 282 q 438 197 381 197 m 163 786 q 243 1060 168 975 q 435 1144 318 1144 q 627 1058 551 1144 q 708 786 703 972 l 513 786 q 491 930 513 889 q 435 971 469 971 q 381 931 400 971 q 361 786 361 890 l 163 786 z "},"ō":{"ha":871,"x_min":35,"x_max":836,"o":"m 435 -11 q 226 35 317 -11 q 85 162 136 81 q 35 349 35 243 q 87 537 35 457 q 229 661 139 617 q 436 706 319 706 q 646 660 556 706 q 786 535 736 615 q 836 349 836 456 q 785 160 836 242 q 644 34 735 79 q 435 -11 554 -11 m 438 197 q 531 240 494 197 q 568 349 568 282 q 532 458 568 415 q 440 500 496 500 q 344 458 381 500 q 307 349 307 415 q 344 240 307 282 q 438 197 381 197 m 194 786 l 194 964 l 678 964 l 678 786 l 194 786 z "},"ǫ":{"ha":871,"x_min":35,"x_max":836,"o":"m 650 36 q 526 -53 569 -11 q 468 -131 483 -96 q 453 -194 453 -167 q 519 -251 453 -251 q 585 -239 547 -251 l 585 -319 q 520 -339 553 -333 q 457 -344 488 -344 q 322 -310 368 -344 q 275 -219 275 -275 q 316 -108 275 -162 q 431 -11 357 -54 q 224 35 314 -11 q 85 162 135 81 q 35 349 35 243 q 87 537 35 457 q 229 661 139 617 q 436 706 319 706 q 646 660 556 706 q 786 535 736 615 q 836 349 836 456 q 650 36 836 143 m 307 349 q 344 240 307 282 q 438 197 381 197 q 531 240 494 197 q 568 349 568 282 q 532 458 568 415 q 440 500 496 500 q 344 458 381 500 q 307 349 307 415 z "},"ø":{"ha":871,"x_min":35,"x_max":836,"o":"m 435 -11 q 226 35 317 -11 q 85 162 136 81 q 35 349 35 243 q 87 537 35 457 q 229 661 139 617 q 436 706 319 706 q 646 660 556 706 q 786 535 736 615 q 836 349 836 456 q 785 160 836 242 q 644 34 735 79 q 435 -11 554 -11 m 438 197 q 531 240 494 197 q 568 349 568 282 q 532 458 568 415 q 440 500 496 500 q 344 458 381 500 q 307 349 307 415 q 344 240 307 282 q 438 197 381 197 m 231 -119 l 531 817 l 642 817 l 342 -119 l 231 -119 z "},"ǿ":{"ha":871,"x_min":35,"x_max":836,"o":"m 435 -11 q 226 35 317 -11 q 85 162 136 81 q 35 349 35 243 q 87 537 35 457 q 229 661 139 617 q 436 706 319 706 q 646 660 556 706 q 786 535 736 615 q 836 349 836 456 q 785 160 836 242 q 644 34 735 79 q 435 -11 554 -11 m 438 197 q 531 240 494 197 q 568 349 568 282 q 532 458 568 415 q 440 500 496 500 q 344 458 381 500 q 307 349 307 415 q 344 240 307 282 q 438 197 381 197 m 231 -119 l 531 817 l 642 817 l 342 -119 l 231 -119 m 282 772 l 197 921 l 604 1206 l 744 957 l 282 772 z "},"õ":{"ha":871,"x_min":35,"x_max":836,"o":"m 435 -11 q 226 35 317 -11 q 85 162 136 81 q 35 349 35 243 q 87 537 35 457 q 229 661 139 617 q 436 706 319 706 q 646 660 556 706 q 786 535 736 615 q 836 349 836 456 q 785 160 836 242 q 644 34 735 79 q 435 -11 554 -11 m 438 197 q 531 240 494 197 q 568 349 568 282 q 532 458 568 415 q 440 500 496 500 q 344 458 381 500 q 307 349 307 415 q 344 240 307 282 q 438 197 381 197 m 249 775 l 99 842 q 201 1006 139 951 q 338 1060 263 1060 q 412 1043 379 1060 q 475 1010 444 1026 q 540 993 506 993 q 583 1012 564 993 q 622 1061 601 1031 l 772 996 q 671 831 733 886 q 533 776 608 776 q 459 793 492 776 q 396 826 426 810 q 331 843 365 843 q 289 825 308 843 q 249 775 269 807 z "},"ȭ":{"ha":871,"x_min":35,"x_max":836,"o":"m 435 -11 q 226 35 317 -11 q 85 162 136 81 q 35 349 35 243 q 87 537 35 457 q 229 661 139 617 q 436 706 319 706 q 646 660 556 706 q 786 535 736 615 q 836 349 836 456 q 785 160 836 242 q 644 34 735 79 q 435 -11 554 -11 m 438 197 q 531 240 494 197 q 568 349 568 282 q 532 458 568 415 q 440 500 496 500 q 344 458 381 500 q 307 349 307 415 q 344 240 307 282 q 438 197 381 197 m 249 775 l 99 842 q 201 1006 139 951 q 338 1060 263 1060 q 412 1043 379 1060 q 475 1010 444 1026 q 540 993 506 993 q 583 1012 564 993 q 622 1061 601 1031 l 772 996 q 671 831 733 886 q 533 776 608 776 q 459 793 492 776 q 396 826 426 810 q 331 843 365 843 q 289 825 308 843 q 249 775 269 807 m 194 1125 l 194 1303 l 678 1303 l 678 1125 l 194 1125 z "},"œ":{"ha":1304,"x_min":35,"x_max":1276,"o":"m 435 -11 q 226 35 317 -11 q 85 162 136 81 q 35 349 35 243 q 87 537 35 457 q 229 661 139 617 q 436 706 319 706 q 586 681 518 706 q 703 610 654 656 q 817 681 751 656 q 956 706 882 706 q 1194 608 1113 706 q 1276 329 1276 510 l 863 276 q 1035 183 908 183 q 1120 192 1075 183 q 1213 222 1165 200 l 1246 43 q 1134 3 1194 17 q 996 -11 1074 -11 q 825 14 899 -11 q 701 85 751 39 q 585 14 653 39 q 435 -11 517 -11 m 840 404 l 1058 450 q 1028 516 1053 494 q 965 538 1003 538 q 877 499 910 538 q 840 404 844 461 m 307 349 q 344 240 307 282 q 438 197 381 197 q 531 240 494 197 q 568 349 568 282 q 532 458 568 415 q 440 500 496 500 q 344 458 381 500 q 307 349 307 415 z "},"p":{"ha":965,"x_min":69,"x_max":931,"o":"m 363 -219 l 69 -262 l 69 696 l 358 696 l 358 544 q 458 668 394 631 q 589 706 521 706 q 763 660 686 706 q 885 536 840 615 q 931 351 931 457 q 885 164 931 246 q 763 35 840 82 q 589 -11 686 -11 q 450 25 506 -11 q 363 129 394 61 l 363 -219 m 499 208 q 599 249 558 208 q 639 347 639 289 q 599 446 639 406 q 499 486 558 486 q 401 448 442 486 q 361 350 361 410 q 401 249 361 290 q 499 208 442 208 z "},"þ":{"ha":965,"x_min":69,"x_max":931,"o":"m 363 -219 l 69 -262 l 69 915 l 363 958 l 363 550 q 458 669 394 632 q 589 706 521 706 q 763 660 686 706 q 885 536 840 615 q 931 351 931 457 q 885 164 931 246 q 763 35 840 82 q 589 -11 686 -11 q 450 25 506 -11 q 363 129 394 61 l 363 -219 m 499 208 q 599 249 558 208 q 639 347 639 289 q 599 446 639 406 q 499 486 558 486 q 401 448 442 486 q 361 350 361 410 q 401 249 361 290 q 499 208 442 208 z "},"q":{"ha":965,"x_min":35,"x_max":896,"o":"m 603 -262 l 603 129 q 515 25 571 61 q 376 -11 460 -11 q 203 35 281 -11 q 80 164 125 82 q 35 351 35 246 q 80 536 35 457 q 203 660 125 615 q 376 706 281 706 q 508 668 444 706 q 607 544 572 631 l 607 696 l 896 696 l 896 -219 l 603 -262 m 467 208 q 564 249 524 208 q 604 350 604 290 q 564 448 604 410 q 467 486 524 486 q 367 446 407 486 q 326 347 326 406 q 367 249 326 289 q 467 208 407 208 z "},"r":{"ha":621,"x_min":69,"x_max":621,"o":"m 69 0 l 69 696 l 358 696 l 358 522 q 445 661 386 617 q 586 706 504 706 l 621 460 q 556 464 588 464 q 363 306 363 464 l 363 0 l 69 0 z "},"ŕ":{"ha":621,"x_min":69,"x_max":632,"o":"m 69 0 l 69 696 l 358 696 l 358 522 q 445 661 386 617 q 586 706 504 706 l 621 460 q 556 464 588 464 q 363 306 363 464 l 363 0 l 69 0 m 169 772 l 85 921 l 492 1206 l 632 957 l 169 772 z "},"ř":{"ha":621,"x_min":24,"x_max":622,"o":"m 69 0 l 69 696 l 358 696 l 358 522 q 445 661 386 617 q 586 706 504 706 l 621 460 q 556 464 588 464 q 363 306 363 464 l 363 0 l 69 0 m 194 786 l 24 1132 l 254 1132 l 308 983 l 322 929 q 344 992 331 954 q 370 1068 357 1029 q 392 1132 383 1107 l 622 1132 l 451 786 l 194 786 z "},"ŗ":{"ha":621,"x_min":69,"x_max":621,"o":"m 69 0 l 69 696 l 358 696 l 358 522 q 445 661 386 617 q 586 706 504 706 l 621 460 q 556 464 588 464 q 363 306 363 464 l 363 0 l 69 0 m 88 -487 l 88 -375 q 172 -360 149 -375 q 199 -312 194 -344 l 88 -312 l 88 -90 l 344 -90 l 344 -211 q 287 -423 344 -358 q 88 -487 229 -487 z "},"ȑ":{"ha":621,"x_min":-71,"x_max":621,"o":"m 69 0 l 69 696 l 358 696 l 358 522 q 445 661 386 617 q 586 706 504 706 l 621 460 q 556 464 588 464 q 363 306 363 464 l 363 0 l 69 0 m 143 772 l -71 1119 l 147 1208 l 292 825 l 143 772 m 403 774 l 244 1150 l 475 1206 l 560 806 l 403 774 z "},"ȓ":{"ha":621,"x_min":50,"x_max":621,"o":"m 69 0 l 69 696 l 358 696 l 358 522 q 445 661 386 617 q 586 706 504 706 l 621 460 q 556 464 588 464 q 363 306 363 464 l 363 0 l 69 0 m 50 786 q 131 1060 56 975 q 322 1144 206 1144 q 515 1058 439 1144 q 596 786 590 972 l 400 786 q 378 930 400 889 q 322 971 357 971 q 268 931 288 971 q 249 786 249 890 l 50 786 z "},"s":{"ha":633,"x_min":47,"x_max":606,"o":"m 293 -11 q 167 1 231 -11 q 51 36 103 14 l 92 211 q 179 183 124 194 q 278 171 235 171 q 347 208 347 171 q 326 235 347 226 q 270 249 304 243 q 197 266 236 256 q 124 298 158 276 q 69 360 90 319 q 47 465 47 400 q 134 640 47 575 q 372 706 221 706 q 481 697 431 706 q 578 663 532 689 l 549 493 q 394 524 475 524 q 320 515 343 524 q 297 488 297 507 q 319 464 297 472 q 377 448 342 456 q 451 427 413 440 q 526 390 490 414 q 583 327 561 367 q 606 225 606 288 q 524 51 606 114 q 293 -11 442 -11 z "},"ś":{"ha":633,"x_min":47,"x_max":640,"o":"m 293 -11 q 167 1 231 -11 q 51 36 103 14 l 92 211 q 179 183 124 194 q 278 171 235 171 q 347 208 347 171 q 326 235 347 226 q 270 249 304 243 q 197 266 236 256 q 124 298 158 276 q 69 360 90 319 q 47 465 47 400 q 134 640 47 575 q 372 706 221 706 q 481 697 431 706 q 578 663 532 689 l 549 493 q 394 524 475 524 q 320 515 343 524 q 297 488 297 507 q 319 464 297 472 q 377 448 342 456 q 451 427 413 440 q 526 390 490 414 q 583 327 561 367 q 606 225 606 288 q 524 51 606 114 q 293 -11 442 -11 m 178 772 l 93 921 l 500 1206 l 640 957 l 178 772 z "},"š":{"ha":633,"x_min":32,"x_max":631,"o":"m 293 -11 q 167 1 231 -11 q 51 36 103 14 l 92 211 q 179 183 124 194 q 278 171 235 171 q 347 208 347 171 q 326 235 347 226 q 270 249 304 243 q 197 266 236 256 q 124 298 158 276 q 69 360 90 319 q 47 465 47 400 q 134 640 47 575 q 372 706 221 706 q 481 697 431 706 q 578 663 532 689 l 549 493 q 394 524 475 524 q 320 515 343 524 q 297 488 297 507 q 319 464 297 472 q 377 448 342 456 q 451 427 413 440 q 526 390 490 414 q 583 327 561 367 q 606 225 606 288 q 524 51 606 114 q 293 -11 442 -11 m 203 786 l 32 1132 l 263 1132 l 317 983 l 331 929 q 352 992 339 954 q 378 1068 365 1029 q 400 1132 392 1107 l 631 1132 l 460 786 l 203 786 z "},"ş":{"ha":633,"x_min":47,"x_max":606,"o":"m 293 -11 q 167 1 231 -11 q 51 36 103 14 l 92 211 q 179 183 124 194 q 278 171 235 171 q 347 208 347 171 q 326 235 347 226 q 270 249 304 243 q 197 266 236 256 q 124 298 158 276 q 69 360 90 319 q 47 465 47 400 q 134 640 47 575 q 372 706 221 706 q 481 697 431 706 q 578 663 532 689 l 549 493 q 394 524 475 524 q 320 515 343 524 q 297 488 297 507 q 319 464 297 472 q 377 448 342 456 q 451 427 413 440 q 526 390 490 414 q 583 327 561 367 q 606 225 606 288 q 524 51 606 114 q 293 -11 442 -11 m 299 -344 q 233 -338 267 -344 q 172 -319 200 -332 l 172 -240 q 209 -249 192 -246 q 239 -251 226 -251 q 297 -235 275 -251 q 318 -186 318 -218 q 296 -142 318 -158 q 238 -121 274 -126 l 293 42 l 399 42 l 364 -62 q 460 -113 432 -81 q 489 -194 489 -146 q 438 -303 489 -262 q 299 -344 386 -344 z "},"ŝ":{"ha":633,"x_min":32,"x_max":631,"o":"m 293 -11 q 167 1 231 -11 q 51 36 103 14 l 92 211 q 179 183 124 194 q 278 171 235 171 q 347 208 347 171 q 326 235 347 226 q 270 249 304 243 q 197 266 236 256 q 124 298 158 276 q 69 360 90 319 q 47 465 47 400 q 134 640 47 575 q 372 706 221 706 q 481 697 431 706 q 578 663 532 689 l 549 493 q 394 524 475 524 q 320 515 343 524 q 297 488 297 507 q 319 464 297 472 q 377 448 342 456 q 451 427 413 440 q 526 390 490 414 q 583 327 561 367 q 606 225 606 288 q 524 51 606 114 q 293 -11 442 -11 m 32 786 l 203 1132 l 460 1132 l 631 786 l 400 786 l 347 933 l 331 986 l 317 933 l 263 786 l 32 786 z "},"ș":{"ha":633,"x_min":47,"x_max":606,"o":"m 293 -11 q 167 1 231 -11 q 51 36 103 14 l 92 211 q 179 183 124 194 q 278 171 235 171 q 347 208 347 171 q 326 235 347 226 q 270 249 304 243 q 197 266 236 256 q 124 298 158 276 q 69 360 90 319 q 47 465 47 400 q 134 640 47 575 q 372 706 221 706 q 481 697 431 706 q 578 663 532 689 l 549 493 q 394 524 475 524 q 320 515 343 524 q 297 488 297 507 q 319 464 297 472 q 377 448 342 456 q 451 427 413 440 q 526 390 490 414 q 583 327 561 367 q 606 225 606 288 q 524 51 606 114 q 293 -11 442 -11 m 203 -487 l 203 -375 q 287 -360 264 -375 q 314 -312 310 -344 l 203 -312 l 203 -90 l 460 -90 l 460 -211 q 402 -423 460 -358 q 203 -487 344 -487 z "},"ß":{"ha":972,"x_min":69,"x_max":943,"o":"m 576 -12 q 508 -10 538 -12 q 456 -1 478 -7 l 440 203 q 476 198 460 200 q 510 196 493 196 q 612 224 574 196 q 650 313 650 251 q 607 407 650 363 q 469 468 564 451 l 469 596 q 554 633 531 607 q 578 699 578 660 q 556 756 578 733 q 486 778 533 778 q 397 740 431 778 q 363 629 363 703 l 363 0 l 69 0 l 69 582 q 120 799 69 711 q 263 932 171 888 q 479 976 356 976 q 741 908 653 976 q 829 725 829 840 q 800 617 829 665 q 708 539 771 569 q 851 477 800 519 q 923 385 903 435 q 943 293 943 335 q 898 130 943 199 q 771 24 853 61 q 576 -12 689 -12 z "},"ſ":{"ha":525,"x_min":69,"x_max":550,"o":"m 69 0 l 69 669 q 152 904 69 826 q 365 982 235 982 q 467 969 418 982 q 550 928 515 956 l 531 740 q 466 766 499 760 q 406 772 433 772 q 343 753 367 772 q 319 694 319 733 q 328 653 319 676 q 363 596 336 631 l 363 0 l 69 0 z "},"t":{"ha":575,"x_min":0,"x_max":544,"o":"m 367 -11 q 206 22 268 -11 q 117 113 144 56 q 89 240 89 169 l 89 524 l 0 524 l 0 696 l 110 696 l 239 915 l 382 915 l 382 696 l 543 696 l 543 524 l 382 524 l 382 281 q 403 231 382 249 q 457 214 424 214 q 524 231 490 214 l 544 38 q 460 1 511 14 q 367 -11 408 -11 z "},"ŧ":{"ha":575,"x_min":0,"x_max":544,"o":"m 367 -11 q 206 22 268 -11 q 117 113 144 56 q 89 240 89 169 l 89 524 l 0 524 l 0 696 l 110 696 l 239 915 l 382 915 l 382 696 l 543 696 l 543 524 l 382 524 l 382 281 q 403 231 382 249 q 457 214 424 214 q 524 231 490 214 l 544 38 q 460 1 511 14 q 367 -11 408 -11 m 490 331 l 29 331 l 29 449 l 490 449 l 490 331 z "},"ť":{"ha":575,"x_min":0,"x_max":692,"o":"m 367 -11 q 206 22 268 -11 q 117 113 144 56 q 89 240 89 169 l 89 524 l 0 524 l 0 696 l 110 696 l 239 915 l 382 915 l 382 696 l 543 696 l 543 524 l 382 524 l 382 281 q 403 231 382 249 q 457 214 424 214 q 524 231 490 214 l 544 38 q 460 1 511 14 q 367 -11 408 -11 m 435 753 l 435 865 q 519 881 496 865 q 546 928 542 896 l 435 928 l 435 1150 l 692 1150 l 692 1029 q 634 817 692 882 q 435 753 576 753 z "},"ţ":{"ha":575,"x_min":0,"x_max":544,"o":"m 367 -11 q 206 22 268 -11 q 117 113 144 56 q 89 240 89 169 l 89 524 l 0 524 l 0 696 l 110 696 l 239 915 l 382 915 l 382 696 l 543 696 l 543 524 l 382 524 l 382 281 q 403 231 382 249 q 457 214 424 214 q 524 231 490 214 l 544 38 q 460 1 511 14 q 367 -11 408 -11 m 282 -344 q 217 -338 250 -344 q 156 -319 183 -332 l 156 -240 q 192 -249 175 -246 q 222 -251 210 -251 q 280 -235 258 -251 q 301 -186 301 -218 q 279 -142 301 -158 q 221 -121 257 -126 l 276 42 l 382 42 l 347 -62 q 444 -113 415 -81 q 472 -194 472 -146 q 421 -303 472 -262 q 282 -344 369 -344 z "},"ț":{"ha":575,"x_min":0,"x_max":544,"o":"m 367 -11 q 206 22 268 -11 q 117 113 144 56 q 89 240 89 169 l 89 524 l 0 524 l 0 696 l 110 696 l 239 915 l 382 915 l 382 696 l 543 696 l 543 524 l 382 524 l 382 281 q 403 231 382 249 q 457 214 424 214 q 524 231 490 214 l 544 38 q 460 1 511 14 q 367 -11 408 -11 m 186 -487 l 186 -375 q 270 -360 247 -375 q 297 -312 293 -344 l 186 -312 l 186 -90 l 443 -90 l 443 -211 q 385 -423 443 -358 q 186 -487 328 -487 z "},"u":{"ha":868,"x_min":63,"x_max":806,"o":"m 438 -11 q 162 78 261 -11 q 63 326 63 168 l 63 696 l 349 696 l 349 314 q 373 232 349 258 q 439 206 397 206 q 502 232 479 206 q 525 314 525 258 l 525 696 l 806 696 l 806 326 q 709 78 806 167 q 438 -11 613 -11 z "},"ú":{"ha":868,"x_min":63,"x_max":806,"o":"m 438 -11 q 162 78 261 -11 q 63 326 63 168 l 63 696 l 349 696 l 349 314 q 373 232 349 258 q 439 206 397 206 q 502 232 479 206 q 525 314 525 258 l 525 696 l 806 696 l 806 326 q 709 78 806 167 q 438 -11 613 -11 m 281 772 l 196 921 l 603 1206 l 743 957 l 281 772 z "},"ŭ":{"ha":868,"x_min":63,"x_max":806,"o":"m 438 -11 q 162 78 261 -11 q 63 326 63 168 l 63 696 l 349 696 l 349 314 q 373 232 349 258 q 439 206 397 206 q 502 232 479 206 q 525 314 525 258 l 525 696 l 806 696 l 806 326 q 709 78 806 167 q 438 -11 613 -11 m 435 772 q 242 859 318 772 q 161 1131 167 946 l 357 1131 q 378 988 357 1029 q 435 946 400 946 q 489 986 469 946 q 508 1131 508 1026 l 707 1131 q 626 857 701 942 q 435 772 551 772 z "},"û":{"ha":868,"x_min":63,"x_max":806,"o":"m 438 -11 q 162 78 261 -11 q 63 326 63 168 l 63 696 l 349 696 l 349 314 q 373 232 349 258 q 439 206 397 206 q 502 232 479 206 q 525 314 525 258 l 525 696 l 806 696 l 806 326 q 709 78 806 167 q 438 -11 613 -11 m 135 786 l 306 1132 l 563 1132 l 733 786 l 503 786 l 450 933 l 433 986 l 419 933 l 365 786 l 135 786 z "},"ȕ":{"ha":868,"x_min":40,"x_max":806,"o":"m 438 -11 q 162 78 261 -11 q 63 326 63 168 l 63 696 l 349 696 l 349 314 q 373 232 349 258 q 439 206 397 206 q 502 232 479 206 q 525 314 525 258 l 525 696 l 806 696 l 806 326 q 709 78 806 167 q 438 -11 613 -11 m 254 772 l 40 1119 l 258 1208 l 403 825 l 254 772 m 514 774 l 356 1150 l 586 1206 l 671 806 l 514 774 z "},"ü":{"ha":868,"x_min":63,"x_max":806,"o":"m 438 -11 q 162 78 261 -11 q 63 326 63 168 l 63 696 l 349 696 l 349 314 q 373 232 349 258 q 439 206 397 206 q 502 232 479 206 q 525 314 525 258 l 525 696 l 806 696 l 806 326 q 709 78 806 167 q 438 -11 613 -11 m 239 772 q 129 813 175 772 q 83 911 83 853 q 106 983 83 951 q 163 1034 128 1015 q 239 1053 199 1053 q 317 1033 282 1053 q 374 981 353 1014 q 396 911 396 949 q 373 838 396 869 q 315 790 350 807 q 239 772 279 772 m 632 772 q 519 815 563 772 q 475 911 475 857 q 498 985 475 953 q 557 1035 521 1017 q 632 1053 593 1053 q 714 1031 679 1053 q 767 978 749 1010 q 786 911 786 946 q 765 840 786 871 q 708 790 743 808 q 632 772 672 772 z "},"ụ":{"ha":868,"x_min":63,"x_max":806,"o":"m 438 -11 q 162 78 261 -11 q 63 326 63 168 l 63 696 l 349 696 l 349 314 q 373 232 349 258 q 439 206 397 206 q 502 232 479 206 q 525 314 525 258 l 525 696 l 806 696 l 806 326 q 709 78 806 167 q 438 -11 613 -11 m 435 -358 q 325 -317 371 -358 q 279 -217 279 -276 q 301 -144 279 -176 q 360 -94 324 -112 q 435 -76 396 -76 q 513 -96 478 -76 q 570 -147 549 -115 q 592 -217 592 -179 q 569 -290 592 -258 q 510 -340 546 -322 q 435 -358 475 -358 z "},"ù":{"ha":868,"x_min":63,"x_max":806,"o":"m 438 -11 q 162 78 261 -11 q 63 326 63 168 l 63 696 l 349 696 l 349 314 q 373 232 349 258 q 439 206 397 206 q 502 232 479 206 q 525 314 525 258 l 525 696 l 806 696 l 806 326 q 709 78 806 167 q 438 -11 613 -11 m 589 772 l 126 957 l 267 1206 l 674 921 l 589 772 z "},"ủ":{"ha":868,"x_min":63,"x_max":806,"o":"m 438 -11 q 162 78 261 -11 q 63 326 63 168 l 63 696 l 349 696 l 349 314 q 373 232 349 258 q 439 206 397 206 q 502 232 479 206 q 525 314 525 258 l 525 696 l 806 696 l 806 326 q 709 78 806 167 q 438 -11 613 -11 m 350 786 q 347 808 349 797 q 346 835 346 818 q 360 888 346 868 q 393 922 375 907 q 426 951 411 936 q 440 989 440 967 q 427 1014 440 1004 q 383 1024 414 1024 q 338 1018 361 1024 q 286 1003 314 1013 l 275 1118 q 356 1138 311 1131 q 446 1146 400 1146 q 589 1110 547 1146 q 631 1021 631 1075 q 614 949 631 976 q 575 903 597 922 q 536 864 553 885 q 519 810 519 843 l 519 786 l 350 786 z "},"ư":{"ha":910,"x_min":63,"x_max":938,"o":"m 438 -11 q 162 78 261 -11 q 63 326 63 168 l 63 696 l 349 696 l 349 314 q 373 232 349 258 q 439 206 397 206 q 502 232 479 206 q 525 314 525 258 l 525 696 l 658 696 q 729 702 704 696 q 765 736 754 708 q 775 825 775 764 l 938 825 q 906 638 938 699 q 806 556 875 576 l 806 326 q 709 78 806 167 q 438 -11 613 -11 z "},"ứ":{"ha":910,"x_min":63,"x_max":938,"o":"m 438 -11 q 162 78 261 -11 q 63 326 63 168 l 63 696 l 349 696 l 349 314 q 373 232 349 258 q 439 206 397 206 q 502 232 479 206 q 525 314 525 258 l 525 696 l 658 696 q 729 702 704 696 q 765 736 754 708 q 775 825 775 764 l 938 825 q 906 638 938 699 q 806 556 875 576 l 806 326 q 709 78 806 167 q 438 -11 613 -11 m 281 772 l 196 921 l 603 1206 l 743 957 l 281 772 z "},"ự":{"ha":910,"x_min":63,"x_max":938,"o":"m 438 -11 q 162 78 261 -11 q 63 326 63 168 l 63 696 l 349 696 l 349 314 q 373 232 349 258 q 439 206 397 206 q 502 232 479 206 q 525 314 525 258 l 525 696 l 658 696 q 729 702 704 696 q 765 736 754 708 q 775 825 775 764 l 938 825 q 906 638 938 699 q 806 556 875 576 l 806 326 q 709 78 806 167 q 438 -11 613 -11 m 435 -358 q 325 -317 371 -358 q 279 -217 279 -276 q 301 -144 279 -176 q 360 -94 324 -112 q 435 -76 396 -76 q 513 -96 478 -76 q 570 -147 549 -115 q 592 -217 592 -179 q 569 -290 592 -258 q 510 -340 546 -322 q 435 -358 475 -358 z "},"ừ":{"ha":910,"x_min":63,"x_max":938,"o":"m 438 -11 q 162 78 261 -11 q 63 326 63 168 l 63 696 l 349 696 l 349 314 q 373 232 349 258 q 439 206 397 206 q 502 232 479 206 q 525 314 525 258 l 525 696 l 658 696 q 729 702 704 696 q 765 736 754 708 q 775 825 775 764 l 938 825 q 906 638 938 699 q 806 556 875 576 l 806 326 q 709 78 806 167 q 438 -11 613 -11 m 589 772 l 126 957 l 267 1206 l 674 921 l 589 772 z "},"ử":{"ha":910,"x_min":63,"x_max":938,"o":"m 438 -11 q 162 78 261 -11 q 63 326 63 168 l 63 696 l 349 696 l 349 314 q 373 232 349 258 q 439 206 397 206 q 502 232 479 206 q 525 314 525 258 l 525 696 l 658 696 q 729 702 704 696 q 765 736 754 708 q 775 825 775 764 l 938 825 q 906 638 938 699 q 806 556 875 576 l 806 326 q 709 78 806 167 q 438 -11 613 -11 m 350 786 q 347 808 349 797 q 346 835 346 818 q 360 888 346 868 q 393 922 375 907 q 426 951 411 936 q 440 989 440 967 q 427 1014 440 1004 q 383 1024 414 1024 q 338 1018 361 1024 q 286 1003 314 1013 l 275 1118 q 356 1138 311 1131 q 446 1146 400 1146 q 589 1110 547 1146 q 631 1021 631 1075 q 614 949 631 976 q 575 903 597 922 q 536 864 553 885 q 519 810 519 843 l 519 786 l 350 786 z "},"ữ":{"ha":910,"x_min":63,"x_max":938,"o":"m 438 -11 q 162 78 261 -11 q 63 326 63 168 l 63 696 l 349 696 l 349 314 q 373 232 349 258 q 439 206 397 206 q 502 232 479 206 q 525 314 525 258 l 525 696 l 658 696 q 729 702 704 696 q 765 736 754 708 q 775 825 775 764 l 938 825 q 906 638 938 699 q 806 556 875 576 l 806 326 q 709 78 806 167 q 438 -11 613 -11 m 247 775 l 97 842 q 199 1006 138 951 q 336 1060 261 1060 q 410 1043 378 1060 q 474 1010 443 1026 q 539 993 504 993 q 581 1012 563 993 q 621 1061 600 1031 l 771 996 q 669 831 732 886 q 532 776 607 776 q 458 793 490 776 q 394 826 425 810 q 329 843 364 843 q 288 825 307 843 q 247 775 268 807 z "},"ű":{"ha":868,"x_min":63,"x_max":829,"o":"m 438 -11 q 162 78 261 -11 q 63 326 63 168 l 63 696 l 349 696 l 349 314 q 373 232 349 258 q 439 206 397 206 q 502 232 479 206 q 525 314 525 258 l 525 696 l 806 696 l 806 326 q 709 78 806 167 q 438 -11 613 -11 m 615 772 l 467 825 l 611 1208 l 829 1119 l 615 772 m 356 774 l 199 806 l 283 1206 l 514 1150 l 356 774 z "},"ȗ":{"ha":868,"x_min":63,"x_max":806,"o":"m 438 -11 q 162 78 261 -11 q 63 326 63 168 l 63 696 l 349 696 l 349 314 q 373 232 349 258 q 439 206 397 206 q 502 232 479 206 q 525 314 525 258 l 525 696 l 806 696 l 806 326 q 709 78 806 167 q 438 -11 613 -11 m 161 786 q 242 1060 167 975 q 433 1144 317 1144 q 626 1058 550 1144 q 707 786 701 972 l 511 786 q 490 930 511 889 q 433 971 468 971 q 379 931 399 971 q 360 786 360 890 l 161 786 z "},"ū":{"ha":868,"x_min":63,"x_max":806,"o":"m 438 -11 q 162 78 261 -11 q 63 326 63 168 l 63 696 l 349 696 l 349 314 q 373 232 349 258 q 439 206 397 206 q 502 232 479 206 q 525 314 525 258 l 525 696 l 806 696 l 806 326 q 709 78 806 167 q 438 -11 613 -11 m 193 786 l 193 964 l 676 964 l 676 786 l 193 786 z "},"ų":{"ha":868,"x_min":63,"x_max":806,"o":"m 525 696 l 806 696 l 806 326 q 765 149 806 222 q 654 38 725 75 q 535 -45 579 -1 q 471 -128 490 -89 q 451 -194 451 -167 q 518 -251 451 -251 q 583 -239 546 -251 l 583 -319 q 519 -339 551 -333 q 456 -344 486 -344 q 320 -310 367 -344 q 274 -219 274 -275 q 318 -109 274 -164 q 428 -11 363 -54 q 160 78 258 -11 q 63 326 63 168 l 63 696 l 349 696 l 349 314 q 373 232 349 258 q 439 206 397 206 q 502 232 479 206 q 525 314 525 258 l 525 696 z "},"ů":{"ha":868,"x_min":63,"x_max":806,"o":"m 438 -11 q 162 78 261 -11 q 63 326 63 168 l 63 696 l 349 696 l 349 314 q 373 232 349 258 q 439 206 397 206 q 502 232 479 206 q 525 314 525 258 l 525 696 l 806 696 l 806 326 q 709 78 806 167 q 438 -11 613 -11 m 435 772 q 310 802 364 772 q 226 885 257 832 q 196 1008 196 939 q 227 1135 196 1082 q 313 1219 258 1189 q 435 1249 367 1249 q 563 1217 510 1249 q 644 1130 615 1185 q 672 1008 672 1075 q 606 837 672 901 q 435 772 539 772 m 435 925 q 494 947 474 925 q 515 1008 515 969 q 492 1072 515 1049 q 432 1096 469 1096 q 373 1072 396 1096 q 350 1008 350 1047 q 374 947 350 969 q 435 925 397 925 z "},"ũ":{"ha":868,"x_min":63,"x_max":806,"o":"m 438 -11 q 162 78 261 -11 q 63 326 63 168 l 63 696 l 349 696 l 349 314 q 373 232 349 258 q 439 206 397 206 q 502 232 479 206 q 525 314 525 258 l 525 696 l 806 696 l 806 326 q 709 78 806 167 q 438 -11 613 -11 m 247 775 l 97 842 q 199 1006 138 951 q 336 1060 261 1060 q 410 1043 378 1060 q 474 1010 443 1026 q 539 993 504 993 q 581 1012 563 993 q 621 1061 600 1031 l 771 996 q 669 831 732 886 q 532 776 607 776 q 458 793 490 776 q 394 826 425 810 q 329 843 364 843 q 288 825 307 843 q 247 775 268 807 z "},"v":{"ha":794,"x_min":-12,"x_max":803,"o":"m 231 0 l -12 696 l 310 696 l 431 279 l 549 696 l 803 696 l 568 0 l 231 0 z "},"w":{"ha":1210,"x_min":18,"x_max":1199,"o":"m 199 0 l 18 696 l 315 696 l 408 258 l 518 696 l 757 696 l 868 247 l 961 696 l 1199 696 l 1031 0 l 699 0 l 607 354 l 519 0 l 199 0 z "},"ẃ":{"ha":1210,"x_min":18,"x_max":1199,"o":"m 199 0 l 18 696 l 315 696 l 408 258 l 518 696 l 757 696 l 868 247 l 961 696 l 1199 696 l 1031 0 l 699 0 l 607 354 l 519 0 l 199 0 m 457 772 l 372 921 l 779 1206 l 919 957 l 457 772 z "},"ŵ":{"ha":1210,"x_min":18,"x_max":1199,"o":"m 199 0 l 18 696 l 315 696 l 408 258 l 518 696 l 757 696 l 868 247 l 961 696 l 1199 696 l 1031 0 l 699 0 l 607 354 l 519 0 l 199 0 m 311 786 l 482 1132 l 739 1132 l 910 786 l 679 786 l 626 933 l 610 986 l 596 933 l 542 786 l 311 786 z "},"ẅ":{"ha":1210,"x_min":18,"x_max":1199,"o":"m 199 0 l 18 696 l 315 696 l 408 258 l 518 696 l 757 696 l 868 247 l 961 696 l 1199 696 l 1031 0 l 699 0 l 607 354 l 519 0 l 199 0 m 415 772 q 306 813 351 772 q 260 911 260 853 q 282 983 260 951 q 340 1034 304 1015 q 415 1053 375 1053 q 494 1033 458 1053 q 551 981 529 1014 q 572 911 572 949 q 549 838 572 869 q 491 790 526 807 q 415 772 456 772 m 808 772 q 695 815 739 772 q 651 911 651 857 q 674 985 651 953 q 733 1035 697 1017 q 808 1053 769 1053 q 890 1031 856 1053 q 944 978 925 1010 q 963 911 963 946 q 941 840 963 871 q 884 790 919 808 q 808 772 849 772 z "},"ẁ":{"ha":1210,"x_min":18,"x_max":1199,"o":"m 199 0 l 18 696 l 315 696 l 408 258 l 518 696 l 757 696 l 868 247 l 961 696 l 1199 696 l 1031 0 l 699 0 l 607 354 l 519 0 l 199 0 m 765 772 l 303 957 l 443 1206 l 850 921 l 765 772 z "},"x":{"ha":765,"x_min":4,"x_max":768,"o":"m 4 0 l 215 361 l 18 696 l 311 696 l 389 532 l 469 696 l 754 696 l 560 361 l 768 0 l 483 0 l 389 178 l 297 0 l 4 0 z "},"y":{"ha":925,"x_min":63,"x_max":856,"o":"m 435 -271 q 336 -264 382 -271 q 264 -247 290 -257 l 286 -46 q 340 -55 311 -51 q 397 -58 369 -58 q 531 -19 490 -58 q 572 100 572 19 l 572 179 q 478 56 539 94 q 333 18 417 18 q 133 112 204 18 q 63 376 63 206 l 63 696 l 356 696 l 356 361 q 443 238 356 238 q 530 282 497 238 q 563 399 563 326 l 563 696 l 856 696 l 856 163 q 746 -165 856 -60 q 435 -271 636 -271 z "},"ý":{"ha":925,"x_min":63,"x_max":856,"o":"m 435 -271 q 336 -264 382 -271 q 264 -247 290 -257 l 286 -46 q 340 -55 311 -51 q 397 -58 369 -58 q 531 -19 490 -58 q 572 100 572 19 l 572 179 q 478 56 539 94 q 333 18 417 18 q 133 112 204 18 q 63 376 63 206 l 63 696 l 356 696 l 356 361 q 443 238 356 238 q 530 282 497 238 q 563 399 563 326 l 563 696 l 856 696 l 856 163 q 746 -165 856 -60 q 435 -271 636 -271 m 308 772 l 224 921 l 631 1206 l 771 957 l 308 772 z "},"ŷ":{"ha":925,"x_min":63,"x_max":856,"o":"m 435 -271 q 336 -264 382 -271 q 264 -247 290 -257 l 286 -46 q 340 -55 311 -51 q 397 -58 369 -58 q 531 -19 490 -58 q 572 100 572 19 l 572 179 q 478 56 539 94 q 333 18 417 18 q 133 112 204 18 q 63 376 63 206 l 63 696 l 356 696 l 356 361 q 443 238 356 238 q 530 282 497 238 q 563 399 563 326 l 563 696 l 856 696 l 856 163 q 746 -165 856 -60 q 435 -271 636 -271 m 163 786 l 333 1132 l 590 1132 l 761 786 l 531 786 l 478 933 l 461 986 l 447 933 l 393 786 l 163 786 z "},"ÿ":{"ha":925,"x_min":63,"x_max":856,"o":"m 435 -271 q 336 -264 382 -271 q 264 -247 290 -257 l 286 -46 q 340 -55 311 -51 q 397 -58 369 -58 q 531 -19 490 -58 q 572 100 572 19 l 572 179 q 478 56 539 94 q 333 18 417 18 q 133 112 204 18 q 63 376 63 206 l 63 696 l 356 696 l 356 361 q 443 238 356 238 q 530 282 497 238 q 563 399 563 326 l 563 696 l 856 696 l 856 163 q 746 -165 856 -60 q 435 -271 636 -271 m 267 772 q 157 813 203 772 q 111 911 111 853 q 133 983 111 951 q 191 1034 156 1015 q 267 1053 226 1053 q 345 1033 310 1053 q 402 981 381 1014 q 424 911 424 949 q 401 838 424 869 q 342 790 378 807 q 267 772 307 772 m 660 772 q 547 815 590 772 q 503 911 503 857 q 526 985 503 953 q 585 1035 549 1017 q 660 1053 621 1053 q 742 1031 707 1053 q 795 978 776 1010 q 814 911 814 946 q 792 840 814 871 q 735 790 771 808 q 660 772 700 772 z "},"ỵ":{"ha":925,"x_min":63,"x_max":1106,"o":"m 435 -271 q 336 -264 382 -271 q 264 -247 290 -257 l 286 -46 q 340 -55 311 -51 q 397 -58 369 -58 q 531 -19 490 -58 q 572 100 572 19 l 572 179 q 478 56 539 94 q 333 18 417 18 q 133 112 204 18 q 63 376 63 206 l 63 696 l 356 696 l 356 361 q 443 238 356 238 q 530 282 497 238 q 563 399 563 326 l 563 696 l 856 696 l 856 163 q 746 -165 856 -60 q 435 -271 636 -271 m 949 -358 q 839 -317 885 -358 q 793 -217 793 -276 q 815 -144 793 -176 q 874 -94 838 -112 q 949 -76 910 -76 q 1027 -96 992 -76 q 1084 -147 1063 -115 q 1106 -217 1106 -179 q 1083 -290 1106 -258 q 1024 -340 1060 -322 q 949 -358 989 -358 z "},"ỳ":{"ha":925,"x_min":63,"x_max":856,"o":"m 435 -271 q 336 -264 382 -271 q 264 -247 290 -257 l 286 -46 q 340 -55 311 -51 q 397 -58 369 -58 q 531 -19 490 -58 q 572 100 572 19 l 572 179 q 478 56 539 94 q 333 18 417 18 q 133 112 204 18 q 63 376 63 206 l 63 696 l 356 696 l 356 361 q 443 238 356 238 q 530 282 497 238 q 563 399 563 326 l 563 696 l 856 696 l 856 163 q 746 -165 856 -60 q 435 -271 636 -271 m 617 772 l 154 957 l 294 1206 l 701 921 l 617 772 z "},"ỷ":{"ha":925,"x_min":63,"x_max":856,"o":"m 435 -271 q 336 -264 382 -271 q 264 -247 290 -257 l 286 -46 q 340 -55 311 -51 q 397 -58 369 -58 q 531 -19 490 -58 q 572 100 572 19 l 572 179 q 478 56 539 94 q 333 18 417 18 q 133 112 204 18 q 63 376 63 206 l 63 696 l 356 696 l 356 361 q 443 238 356 238 q 530 282 497 238 q 563 399 563 326 l 563 696 l 856 696 l 856 163 q 746 -165 856 -60 q 435 -271 636 -271 m 378 786 q 375 808 376 797 q 374 835 374 818 q 388 888 374 868 q 421 922 403 907 q 453 951 439 936 q 468 989 468 967 q 455 1014 468 1004 q 411 1024 442 1024 q 365 1018 389 1024 q 314 1003 342 1013 l 303 1118 q 383 1138 339 1131 q 474 1146 428 1146 q 617 1110 575 1146 q 658 1021 658 1075 q 642 949 658 976 q 603 903 625 922 q 564 864 581 885 q 547 810 547 843 l 547 786 l 378 786 z "},"ȳ":{"ha":925,"x_min":63,"x_max":856,"o":"m 435 -271 q 336 -264 382 -271 q 264 -247 290 -257 l 286 -46 q 340 -55 311 -51 q 397 -58 369 -58 q 531 -19 490 -58 q 572 100 572 19 l 572 179 q 478 56 539 94 q 333 18 417 18 q 133 112 204 18 q 63 376 63 206 l 63 696 l 356 696 l 356 361 q 443 238 356 238 q 530 282 497 238 q 563 399 563 326 l 563 696 l 856 696 l 856 163 q 746 -165 856 -60 q 435 -271 636 -271 m 221 786 l 221 964 l 704 964 l 704 786 l 221 786 z "},"ỹ":{"ha":925,"x_min":63,"x_max":856,"o":"m 435 -271 q 336 -264 382 -271 q 264 -247 290 -257 l 286 -46 q 340 -55 311 -51 q 397 -58 369 -58 q 531 -19 490 -58 q 572 100 572 19 l 572 179 q 478 56 539 94 q 333 18 417 18 q 133 112 204 18 q 63 376 63 206 l 63 696 l 356 696 l 356 361 q 443 238 356 238 q 530 282 497 238 q 563 399 563 326 l 563 696 l 856 696 l 856 163 q 746 -165 856 -60 q 435 -271 636 -271 m 275 775 l 125 842 q 227 1006 165 951 q 364 1060 289 1060 q 438 1043 406 1060 q 501 1010 471 1026 q 567 993 532 993 q 609 1012 590 993 q 649 1061 628 1031 l 799 996 q 697 831 760 886 q 560 776 635 776 q 485 793 518 776 q 422 826 453 810 q 357 843 392 843 q 315 825 335 843 q 275 775 296 807 z "},"z":{"ha":678,"x_min":42,"x_max":635,"o":"m 42 0 l 42 149 l 293 504 l 51 504 l 51 696 l 629 696 l 629 546 l 390 192 l 635 192 l 635 0 l 42 0 z "},"ź":{"ha":678,"x_min":42,"x_max":649,"o":"m 42 0 l 42 149 l 293 504 l 51 504 l 51 696 l 629 696 l 629 546 l 390 192 l 635 192 l 635 0 l 42 0 m 186 772 l 101 921 l 508 1206 l 649 957 l 186 772 z "},"ž":{"ha":678,"x_min":40,"x_max":639,"o":"m 42 0 l 42 149 l 293 504 l 51 504 l 51 696 l 629 696 l 629 546 l 390 192 l 635 192 l 635 0 l 42 0 m 211 786 l 40 1132 l 271 1132 l 325 983 l 339 929 q 360 992 347 954 q 387 1068 374 1029 q 408 1132 400 1107 l 639 1132 l 468 786 l 211 786 z "},"ż":{"ha":678,"x_min":42,"x_max":635,"o":"m 42 0 l 42 149 l 293 504 l 51 504 l 51 696 l 629 696 l 629 546 l 390 192 l 635 192 l 635 0 l 42 0 m 340 772 q 231 813 276 772 q 185 914 185 854 q 207 987 185 956 q 265 1036 229 1018 q 340 1054 301 1054 q 419 1035 383 1054 q 476 983 454 1015 q 497 914 497 951 q 474 840 497 872 q 416 790 451 808 q 340 772 381 772 z "},"ﬁ":{"ha":1033,"x_min":0,"x_max":1032,"o":"m 750 800 q 640 841 686 800 q 594 942 594 882 q 617 1015 594 983 q 675 1064 639 1046 q 750 1082 711 1082 q 828 1063 793 1082 q 885 1011 864 1043 q 907 942 907 979 q 884 868 907 900 q 826 818 861 836 q 750 800 790 800 m 1017 231 l 1032 38 q 953 1 1001 14 q 864 -11 904 -11 q 713 22 771 -11 q 629 113 656 56 q 603 240 603 169 l 603 524 l 381 524 l 381 0 l 88 0 l 88 524 l 0 524 l 0 696 l 88 696 l 88 736 q 125 867 88 813 q 229 952 163 922 q 383 982 296 982 q 476 974 429 982 q 557 951 522 967 l 547 775 q 488 785 517 782 q 431 789 458 789 q 338 732 338 789 q 347 696 338 714 l 896 696 l 896 281 q 915 231 896 249 q 960 214 933 214 q 1017 231 988 214 z "},"ﬂ":{"ha":1058,"x_min":0,"x_max":1058,"o":"m 1038 231 l 1058 38 q 974 1 1025 14 q 881 -11 922 -11 q 720 22 782 -11 q 631 113 658 56 q 603 240 603 169 l 603 778 q 553 790 581 786 q 507 794 526 794 q 381 696 393 794 l 515 696 l 515 524 l 381 524 l 381 0 l 88 0 l 88 524 l 0 524 l 0 696 l 88 696 q 119 794 93 744 q 199 887 146 844 q 335 956 251 929 q 535 982 418 982 q 722 968 629 982 q 896 924 815 954 l 896 281 q 917 231 896 249 q 971 214 938 214 q 1038 231 1004 214 z "},"ª":{"ha":672,"x_min":21,"x_max":631,"o":"m 260 467 q 136 500 190 467 q 51 591 82 533 q 21 721 21 649 q 52 849 21 793 q 138 938 83 906 q 260 969 192 969 q 352 947 307 969 q 419 856 397 925 l 419 956 l 631 956 l 631 475 l 419 475 l 419 565 q 357 488 396 510 q 260 467 318 467 m 331 628 q 392 652 368 628 q 417 718 417 676 q 392 784 417 760 q 331 808 367 808 q 266 784 292 808 q 240 718 240 760 q 268 652 240 676 q 331 628 296 628 z "},"º":{"ha":601,"x_min":21,"x_max":581,"o":"m 300 467 q 154 499 217 467 q 56 588 92 531 q 21 719 21 644 q 60 857 21 801 q 163 941 99 913 q 301 969 226 969 q 447 938 385 969 q 545 849 510 906 q 581 719 581 793 q 538 574 581 631 q 431 492 496 518 q 300 467 367 467 m 303 626 q 358 650 335 626 q 382 719 382 674 q 358 788 382 765 q 303 811 335 811 q 247 788 271 811 q 222 719 222 765 q 247 650 222 674 q 303 626 271 626 z "},"Ω":{"ha":1075,"x_min":28,"x_max":1047,"o":"m 28 0 l 28 203 l 229 203 q 81 364 121 272 q 40 549 40 456 q 73 707 40 631 q 169 844 106 783 q 325 942 232 906 q 538 978 418 978 q 750 942 657 978 q 906 844 843 906 q 1002 707 969 783 q 1035 549 1035 631 q 994 364 1035 456 q 846 203 954 272 l 1047 203 l 1047 0 l 590 0 l 590 182 q 675 285 647 235 q 712 386 703 335 q 721 493 721 438 q 667 674 721 613 q 538 735 613 735 q 408 674 463 735 q 354 493 354 613 q 363 386 354 438 q 400 285 372 335 q 485 182 428 235 l 485 0 l 28 0 z "},"μ":{"ha":925,"x_min":69,"x_max":863,"o":"m 69 696 l 363 696 l 363 371 q 395 249 363 288 q 482 210 428 210 q 569 333 569 210 l 569 696 l 863 696 l 863 349 q 790 84 863 178 q 589 -10 718 -10 q 447 26 506 -10 q 358 110 389 63 l 358 -219 l 69 -262 l 69 696 z "},"π":{"ha":950,"x_min":1,"x_max":881,"o":"m 182 -22 q 1 26 83 -22 l 15 219 q 72 203 44 203 q 135 265 135 203 l 135 696 l 881 696 l 881 1 l 588 1 l 588 439 l 429 439 l 429 233 q 363 40 429 103 q 182 -22 297 -22 z "},"⁄":{"ha":183,"x_min":-244,"x_max":428,"o":"m -244 0 l 275 956 l 428 956 l -94 0 l -244 0 z "}}}
